G04 #@! TF.GenerationSoftware,KiCad,Pcbnew,(5.1.6)-1*
G04 #@! TF.CreationDate,2020-08-07T18:30:50-03:00*
G04 #@! TF.ProjectId,av-mc1000,61762d6d-6331-4303-9030-2e6b69636164,rev?*
G04 #@! TF.SameCoordinates,Original*
G04 #@! TF.FileFunction,Legend,Bot*
G04 #@! TF.FilePolarity,Positive*
%FSLAX46Y46*%
G04 Gerber Fmt 4.6, Leading zero omitted, Abs format (unit mm)*
G04 Created by KiCad (PCBNEW (5.1.6)-1) date 2020-08-07 18:30:50*
%MOMM*%
%LPD*%
G01*
G04 APERTURE LIST*
%ADD10C,0.150000*%
%ADD11C,0.200000*%
%ADD12C,0.010000*%
G04 APERTURE END LIST*
D10*
X114938318Y-124988580D02*
X114813318Y-123988580D01*
X114432366Y-123988580D01*
X114343080Y-124036200D01*
X114301413Y-124083819D01*
X114265699Y-124179057D01*
X114283556Y-124321914D01*
X114343080Y-124417152D01*
X114396651Y-124464771D01*
X114497842Y-124512390D01*
X114878794Y-124512390D01*
X113938318Y-124988580D02*
X113854985Y-124321914D01*
X113878794Y-124512390D02*
X113819270Y-124417152D01*
X113765699Y-124369533D01*
X113664508Y-124321914D01*
X113569270Y-124321914D01*
X113176413Y-124988580D02*
X113265699Y-124940961D01*
X113307366Y-124893342D01*
X113343080Y-124798104D01*
X113307366Y-124512390D01*
X113247842Y-124417152D01*
X113194270Y-124369533D01*
X113093080Y-124321914D01*
X112950223Y-124321914D01*
X112860937Y-124369533D01*
X112819270Y-124417152D01*
X112783556Y-124512390D01*
X112819270Y-124798104D01*
X112878794Y-124893342D01*
X112932366Y-124940961D01*
X113033556Y-124988580D01*
X113176413Y-124988580D01*
X112331175Y-124321914D02*
X112438318Y-125179057D01*
X112497842Y-125274295D01*
X112599032Y-125321914D01*
X112646651Y-125321914D01*
X112289508Y-123988580D02*
X112343080Y-124036200D01*
X112301413Y-124083819D01*
X112247842Y-124036200D01*
X112289508Y-123988580D01*
X112301413Y-124083819D01*
X111551413Y-124940961D02*
X111652604Y-124988580D01*
X111843080Y-124988580D01*
X111932366Y-124940961D01*
X111968080Y-124845723D01*
X111920461Y-124464771D01*
X111860937Y-124369533D01*
X111759747Y-124321914D01*
X111569270Y-124321914D01*
X111479985Y-124369533D01*
X111444270Y-124464771D01*
X111456175Y-124560009D01*
X111944270Y-124655247D01*
X111140699Y-124321914D02*
X110759747Y-124321914D01*
X110956175Y-123988580D02*
X111063318Y-124845723D01*
X111027604Y-124940961D01*
X110938318Y-124988580D01*
X110843080Y-124988580D01*
X110366889Y-124988580D02*
X110456175Y-124940961D01*
X110497842Y-124893342D01*
X110533556Y-124798104D01*
X110497842Y-124512390D01*
X110438318Y-124417152D01*
X110384747Y-124369533D01*
X110283556Y-124321914D01*
X110140699Y-124321914D01*
X110051413Y-124369533D01*
X110009747Y-124417152D01*
X109974032Y-124512390D01*
X110009747Y-124798104D01*
X110069270Y-124893342D01*
X110122842Y-124940961D01*
X110224032Y-124988580D01*
X110366889Y-124988580D01*
X108527604Y-123988580D02*
X108337127Y-123988580D01*
X108247842Y-124036200D01*
X108164508Y-124131438D01*
X108140699Y-124321914D01*
X108182366Y-124655247D01*
X108253794Y-124845723D01*
X108360937Y-124940961D01*
X108462127Y-124988580D01*
X108652604Y-124988580D01*
X108741889Y-124940961D01*
X108825223Y-124845723D01*
X108849032Y-124655247D01*
X108807366Y-124321914D01*
X108735937Y-124131438D01*
X108628794Y-124036200D01*
X108527604Y-123988580D01*
X107795461Y-124988580D02*
X107712127Y-124321914D01*
X107735937Y-124512390D02*
X107676413Y-124417152D01*
X107622842Y-124369533D01*
X107521651Y-124321914D01*
X107426413Y-124321914D01*
X107176413Y-124988580D02*
X107093080Y-124321914D01*
X107051413Y-123988580D02*
X107104985Y-124036200D01*
X107063318Y-124083819D01*
X107009747Y-124036200D01*
X107051413Y-123988580D01*
X107063318Y-124083819D01*
X106188318Y-124321914D02*
X106289508Y-125131438D01*
X106349032Y-125226676D01*
X106402604Y-125274295D01*
X106503794Y-125321914D01*
X106646651Y-125321914D01*
X106735937Y-125274295D01*
X106265699Y-124940961D02*
X106366889Y-124988580D01*
X106557366Y-124988580D01*
X106646651Y-124940961D01*
X106688318Y-124893342D01*
X106724032Y-124798104D01*
X106688318Y-124512390D01*
X106628794Y-124417152D01*
X106575223Y-124369533D01*
X106474032Y-124321914D01*
X106283556Y-124321914D01*
X106194270Y-124369533D01*
X105795461Y-124988580D02*
X105712127Y-124321914D01*
X105670461Y-123988580D02*
X105724032Y-124036200D01*
X105682366Y-124083819D01*
X105628794Y-124036200D01*
X105670461Y-123988580D01*
X105682366Y-124083819D01*
X105235937Y-124321914D02*
X105319270Y-124988580D01*
X105247842Y-124417152D02*
X105194270Y-124369533D01*
X105093080Y-124321914D01*
X104950223Y-124321914D01*
X104860937Y-124369533D01*
X104825223Y-124464771D01*
X104890699Y-124988580D01*
X103985937Y-124988580D02*
X103920461Y-124464771D01*
X103956175Y-124369533D01*
X104045461Y-124321914D01*
X104235937Y-124321914D01*
X104337127Y-124369533D01*
X103979985Y-124940961D02*
X104081175Y-124988580D01*
X104319270Y-124988580D01*
X104408556Y-124940961D01*
X104444270Y-124845723D01*
X104432366Y-124750485D01*
X104372842Y-124655247D01*
X104271651Y-124607628D01*
X104033556Y-124607628D01*
X103932366Y-124560009D01*
X103366889Y-124988580D02*
X103456175Y-124940961D01*
X103491889Y-124845723D01*
X103384747Y-123988580D01*
X102974032Y-124893342D02*
X102932366Y-124940961D01*
X102985937Y-124988580D01*
X103027604Y-124940961D01*
X102974032Y-124893342D01*
X102985937Y-124988580D01*
X102908556Y-124369533D02*
X102866889Y-124417152D01*
X102920461Y-124464771D01*
X102962127Y-124417152D01*
X102908556Y-124369533D01*
X102920461Y-124464771D01*
X101765699Y-123988580D02*
X101557366Y-124988580D01*
X101099032Y-123988580D01*
X100890699Y-124988580D02*
X100807366Y-124321914D01*
X100765699Y-123988580D02*
X100819270Y-124036200D01*
X100777604Y-124083819D01*
X100724032Y-124036200D01*
X100765699Y-123988580D01*
X100777604Y-124083819D01*
X99979985Y-124940961D02*
X100081175Y-124988580D01*
X100271651Y-124988580D01*
X100360937Y-124940961D01*
X100402604Y-124893342D01*
X100438318Y-124798104D01*
X100402604Y-124512390D01*
X100343080Y-124417152D01*
X100289508Y-124369533D01*
X100188318Y-124321914D01*
X99997842Y-124321914D01*
X99908556Y-124369533D01*
X99616889Y-124321914D02*
X99235937Y-124321914D01*
X99432366Y-123988580D02*
X99539508Y-124845723D01*
X99503794Y-124940961D01*
X99414508Y-124988580D01*
X99319270Y-124988580D01*
X98843080Y-124988580D02*
X98932366Y-124940961D01*
X98974032Y-124893342D01*
X99009747Y-124798104D01*
X98974032Y-124512390D01*
X98914508Y-124417152D01*
X98860937Y-124369533D01*
X98759747Y-124321914D01*
X98616889Y-124321914D01*
X98527604Y-124369533D01*
X98485937Y-124417152D01*
X98450223Y-124512390D01*
X98485937Y-124798104D01*
X98545461Y-124893342D01*
X98599032Y-124940961D01*
X98700223Y-124988580D01*
X98843080Y-124988580D01*
X98081175Y-124988580D02*
X97997842Y-124321914D01*
X98021651Y-124512390D02*
X97962127Y-124417152D01*
X97908556Y-124369533D01*
X97807366Y-124321914D01*
X97712127Y-124321914D01*
X96718080Y-123988580D02*
X96146651Y-123988580D01*
X96557366Y-124988580D02*
X96432366Y-123988580D01*
X95938318Y-124988580D02*
X95854985Y-124321914D01*
X95878794Y-124512390D02*
X95819270Y-124417152D01*
X95765699Y-124369533D01*
X95664508Y-124321914D01*
X95569270Y-124321914D01*
X94807366Y-124321914D02*
X94890699Y-124988580D01*
X95235937Y-124321914D02*
X95301413Y-124845723D01*
X95265699Y-124940961D01*
X95176413Y-124988580D01*
X95033556Y-124988580D01*
X94932366Y-124940961D01*
X94878794Y-124893342D01*
X93979985Y-124940961D02*
X94081175Y-124988580D01*
X94271651Y-124988580D01*
X94360937Y-124940961D01*
X94402604Y-124893342D01*
X94438318Y-124798104D01*
X94402604Y-124512390D01*
X94343080Y-124417152D01*
X94289508Y-124369533D01*
X94188318Y-124321914D01*
X93997842Y-124321914D01*
X93908556Y-124369533D01*
X93122842Y-124940961D02*
X93224032Y-124988580D01*
X93414508Y-124988580D01*
X93503794Y-124940961D01*
X93545461Y-124893342D01*
X93581175Y-124798104D01*
X93545461Y-124512390D01*
X93485937Y-124417152D01*
X93432366Y-124369533D01*
X93331175Y-124321914D01*
X93140699Y-124321914D01*
X93051413Y-124369533D01*
X92557366Y-124988580D02*
X92646651Y-124940961D01*
X92688318Y-124893342D01*
X92724032Y-124798104D01*
X92688318Y-124512390D01*
X92628794Y-124417152D01*
X92575223Y-124369533D01*
X92474032Y-124321914D01*
X92331175Y-124321914D01*
X92241889Y-124369533D01*
X92200223Y-124417152D01*
X92164508Y-124512390D01*
X92200223Y-124798104D01*
X92259747Y-124893342D01*
X92313318Y-124940961D01*
X92414508Y-124988580D01*
X92557366Y-124988580D01*
X141324752Y-113470376D02*
X140524752Y-113470376D01*
X140524752Y-113775138D01*
X140562848Y-113851328D01*
X140600943Y-113889423D01*
X140677133Y-113927519D01*
X140791419Y-113927519D01*
X140867609Y-113889423D01*
X140905705Y-113851328D01*
X140943800Y-113775138D01*
X140943800Y-113470376D01*
X141324752Y-114270376D02*
X140791419Y-114270376D01*
X140524752Y-114270376D02*
X140562848Y-114232280D01*
X140600943Y-114270376D01*
X140562848Y-114308471D01*
X140524752Y-114270376D01*
X140600943Y-114270376D01*
X140791419Y-114651328D02*
X141324752Y-114651328D01*
X140867609Y-114651328D02*
X140829514Y-114689423D01*
X140791419Y-114765614D01*
X140791419Y-114879900D01*
X140829514Y-114956090D01*
X140905705Y-114994185D01*
X141324752Y-114994185D01*
X141324752Y-115489423D02*
X141286657Y-115413233D01*
X141248562Y-115375138D01*
X141172371Y-115337042D01*
X140943800Y-115337042D01*
X140867609Y-115375138D01*
X140829514Y-115413233D01*
X140791419Y-115489423D01*
X140791419Y-115603709D01*
X140829514Y-115679900D01*
X140867609Y-115717995D01*
X140943800Y-115756090D01*
X141172371Y-115756090D01*
X141248562Y-115717995D01*
X141286657Y-115679900D01*
X141324752Y-115603709D01*
X141324752Y-115489423D01*
X141324752Y-117127519D02*
X141324752Y-116670376D01*
X141324752Y-116898947D02*
X140524752Y-116898947D01*
X140639038Y-116822757D01*
X140715228Y-116746566D01*
X140753324Y-116670376D01*
X141248562Y-117470376D02*
X141286657Y-117508471D01*
X141324752Y-117470376D01*
X141286657Y-117432280D01*
X141248562Y-117470376D01*
X141324752Y-117470376D01*
X140829514Y-117470376D02*
X140867609Y-117508471D01*
X140905705Y-117470376D01*
X140867609Y-117432280D01*
X140829514Y-117470376D01*
X140905705Y-117470376D01*
X140524752Y-117737042D02*
X141324752Y-118003709D01*
X140524752Y-118270376D01*
X141324752Y-118537042D02*
X140791419Y-118537042D01*
X140524752Y-118537042D02*
X140562848Y-118498947D01*
X140600943Y-118537042D01*
X140562848Y-118575138D01*
X140524752Y-118537042D01*
X140600943Y-118537042D01*
X141324752Y-119260852D02*
X140524752Y-119260852D01*
X141286657Y-119260852D02*
X141324752Y-119184661D01*
X141324752Y-119032280D01*
X141286657Y-118956090D01*
X141248562Y-118917995D01*
X141172371Y-118879900D01*
X140943800Y-118879900D01*
X140867609Y-118917995D01*
X140829514Y-118956090D01*
X140791419Y-119032280D01*
X140791419Y-119184661D01*
X140829514Y-119260852D01*
X141286657Y-119946566D02*
X141324752Y-119870376D01*
X141324752Y-119717995D01*
X141286657Y-119641804D01*
X141210467Y-119603709D01*
X140905705Y-119603709D01*
X140829514Y-119641804D01*
X140791419Y-119717995D01*
X140791419Y-119870376D01*
X140829514Y-119946566D01*
X140905705Y-119984661D01*
X140981895Y-119984661D01*
X141058086Y-119603709D01*
X141324752Y-120441804D02*
X141286657Y-120365614D01*
X141248562Y-120327519D01*
X141172371Y-120289423D01*
X140943800Y-120289423D01*
X140867609Y-120327519D01*
X140829514Y-120365614D01*
X140791419Y-120441804D01*
X140791419Y-120556090D01*
X140829514Y-120632280D01*
X140867609Y-120670376D01*
X140943800Y-120708471D01*
X141172371Y-120708471D01*
X141248562Y-120670376D01*
X141286657Y-120632280D01*
X141324752Y-120556090D01*
X141324752Y-120441804D01*
X142674752Y-113470376D02*
X141874752Y-113470376D01*
X141874752Y-113775138D01*
X141912848Y-113851328D01*
X141950943Y-113889423D01*
X142027133Y-113927519D01*
X142141419Y-113927519D01*
X142217609Y-113889423D01*
X142255705Y-113851328D01*
X142293800Y-113775138D01*
X142293800Y-113470376D01*
X142674752Y-114270376D02*
X142141419Y-114270376D01*
X141874752Y-114270376D02*
X141912848Y-114232280D01*
X141950943Y-114270376D01*
X141912848Y-114308471D01*
X141874752Y-114270376D01*
X141950943Y-114270376D01*
X142141419Y-114651328D02*
X142674752Y-114651328D01*
X142217609Y-114651328D02*
X142179514Y-114689423D01*
X142141419Y-114765614D01*
X142141419Y-114879900D01*
X142179514Y-114956090D01*
X142255705Y-114994185D01*
X142674752Y-114994185D01*
X142674752Y-115489423D02*
X142636657Y-115413233D01*
X142598562Y-115375138D01*
X142522371Y-115337042D01*
X142293800Y-115337042D01*
X142217609Y-115375138D01*
X142179514Y-115413233D01*
X142141419Y-115489423D01*
X142141419Y-115603709D01*
X142179514Y-115679900D01*
X142217609Y-115717995D01*
X142293800Y-115756090D01*
X142522371Y-115756090D01*
X142598562Y-115717995D01*
X142636657Y-115679900D01*
X142674752Y-115603709D01*
X142674752Y-115489423D01*
X141950943Y-116670376D02*
X141912848Y-116708471D01*
X141874752Y-116784661D01*
X141874752Y-116975138D01*
X141912848Y-117051328D01*
X141950943Y-117089423D01*
X142027133Y-117127519D01*
X142103324Y-117127519D01*
X142217609Y-117089423D01*
X142674752Y-116632280D01*
X142674752Y-117127519D01*
X142598562Y-117470376D02*
X142636657Y-117508471D01*
X142674752Y-117470376D01*
X142636657Y-117432280D01*
X142598562Y-117470376D01*
X142674752Y-117470376D01*
X142179514Y-117470376D02*
X142217609Y-117508471D01*
X142255705Y-117470376D01*
X142217609Y-117432280D01*
X142179514Y-117470376D01*
X142255705Y-117470376D01*
X142446181Y-117813233D02*
X142446181Y-118194185D01*
X142674752Y-117737042D02*
X141874752Y-118003709D01*
X142674752Y-118270376D01*
X142141419Y-118879900D02*
X142674752Y-118879900D01*
X142141419Y-118537042D02*
X142560467Y-118537042D01*
X142636657Y-118575138D01*
X142674752Y-118651328D01*
X142674752Y-118765614D01*
X142636657Y-118841804D01*
X142598562Y-118879900D01*
X142674752Y-119603709D02*
X141874752Y-119603709D01*
X142636657Y-119603709D02*
X142674752Y-119527519D01*
X142674752Y-119375138D01*
X142636657Y-119298947D01*
X142598562Y-119260852D01*
X142522371Y-119222757D01*
X142293800Y-119222757D01*
X142217609Y-119260852D01*
X142179514Y-119298947D01*
X142141419Y-119375138D01*
X142141419Y-119527519D01*
X142179514Y-119603709D01*
X142674752Y-119984661D02*
X142141419Y-119984661D01*
X141874752Y-119984661D02*
X141912848Y-119946566D01*
X141950943Y-119984661D01*
X141912848Y-120022757D01*
X141874752Y-119984661D01*
X141950943Y-119984661D01*
X142674752Y-120479900D02*
X142636657Y-120403709D01*
X142598562Y-120365614D01*
X142522371Y-120327519D01*
X142293800Y-120327519D01*
X142217609Y-120365614D01*
X142179514Y-120403709D01*
X142141419Y-120479900D01*
X142141419Y-120594185D01*
X142179514Y-120670376D01*
X142217609Y-120708471D01*
X142293800Y-120746566D01*
X142522371Y-120746566D01*
X142598562Y-120708471D01*
X142636657Y-120670376D01*
X142674752Y-120594185D01*
X142674752Y-120479900D01*
X144024752Y-113470376D02*
X143224752Y-113470376D01*
X143224752Y-113775138D01*
X143262848Y-113851328D01*
X143300943Y-113889423D01*
X143377133Y-113927519D01*
X143491419Y-113927519D01*
X143567609Y-113889423D01*
X143605705Y-113851328D01*
X143643800Y-113775138D01*
X143643800Y-113470376D01*
X144024752Y-114270376D02*
X143491419Y-114270376D01*
X143224752Y-114270376D02*
X143262848Y-114232280D01*
X143300943Y-114270376D01*
X143262848Y-114308471D01*
X143224752Y-114270376D01*
X143300943Y-114270376D01*
X143491419Y-114651328D02*
X144024752Y-114651328D01*
X143567609Y-114651328D02*
X143529514Y-114689423D01*
X143491419Y-114765614D01*
X143491419Y-114879900D01*
X143529514Y-114956090D01*
X143605705Y-114994185D01*
X144024752Y-114994185D01*
X144024752Y-115489423D02*
X143986657Y-115413233D01*
X143948562Y-115375138D01*
X143872371Y-115337042D01*
X143643800Y-115337042D01*
X143567609Y-115375138D01*
X143529514Y-115413233D01*
X143491419Y-115489423D01*
X143491419Y-115603709D01*
X143529514Y-115679900D01*
X143567609Y-115717995D01*
X143643800Y-115756090D01*
X143872371Y-115756090D01*
X143948562Y-115717995D01*
X143986657Y-115679900D01*
X144024752Y-115603709D01*
X144024752Y-115489423D01*
X143224752Y-116632280D02*
X143224752Y-117127519D01*
X143529514Y-116860852D01*
X143529514Y-116975138D01*
X143567609Y-117051328D01*
X143605705Y-117089423D01*
X143681895Y-117127519D01*
X143872371Y-117127519D01*
X143948562Y-117089423D01*
X143986657Y-117051328D01*
X144024752Y-116975138D01*
X144024752Y-116746566D01*
X143986657Y-116670376D01*
X143948562Y-116632280D01*
X143948562Y-117470376D02*
X143986657Y-117508471D01*
X144024752Y-117470376D01*
X143986657Y-117432280D01*
X143948562Y-117470376D01*
X144024752Y-117470376D01*
X143529514Y-117470376D02*
X143567609Y-117508471D01*
X143605705Y-117470376D01*
X143567609Y-117432280D01*
X143529514Y-117470376D01*
X143605705Y-117470376D01*
X143262848Y-118270376D02*
X143224752Y-118194185D01*
X143224752Y-118079900D01*
X143262848Y-117965614D01*
X143339038Y-117889423D01*
X143415228Y-117851328D01*
X143567609Y-117813233D01*
X143681895Y-117813233D01*
X143834276Y-117851328D01*
X143910467Y-117889423D01*
X143986657Y-117965614D01*
X144024752Y-118079900D01*
X144024752Y-118156090D01*
X143986657Y-118270376D01*
X143948562Y-118308471D01*
X143681895Y-118308471D01*
X143681895Y-118156090D01*
X144024752Y-118651328D02*
X143224752Y-118651328D01*
X144024752Y-119108471D01*
X143224752Y-119108471D01*
X144024752Y-119489423D02*
X143224752Y-119489423D01*
X143224752Y-119679900D01*
X143262848Y-119794185D01*
X143339038Y-119870376D01*
X143415228Y-119908471D01*
X143567609Y-119946566D01*
X143681895Y-119946566D01*
X143834276Y-119908471D01*
X143910467Y-119870376D01*
X143986657Y-119794185D01*
X144024752Y-119679900D01*
X144024752Y-119489423D01*
X140487428Y-106610104D02*
X140944571Y-106610104D01*
X140716000Y-106610104D02*
X140716000Y-105810104D01*
X140792190Y-105924390D01*
X140868380Y-106000580D01*
X140944571Y-106038676D01*
X92862428Y-118497304D02*
X93319571Y-118497304D01*
X93091000Y-118497304D02*
X93091000Y-117697304D01*
X93167190Y-117811590D01*
X93243380Y-117887780D01*
X93319571Y-117925876D01*
D11*
X115188940Y-122824761D02*
X114938940Y-120824761D01*
X114450845Y-122253333D01*
X113605607Y-120824761D01*
X113855607Y-122824761D01*
X111736559Y-122634285D02*
X111843702Y-122729523D01*
X112141321Y-122824761D01*
X112331797Y-122824761D01*
X112605607Y-122729523D01*
X112772273Y-122539047D01*
X112843702Y-122348571D01*
X112891321Y-121967619D01*
X112855607Y-121681904D01*
X112712750Y-121300952D01*
X112593702Y-121110476D01*
X112379416Y-120920000D01*
X112081797Y-120824761D01*
X111891321Y-120824761D01*
X111617511Y-120920000D01*
X111534178Y-121015238D01*
X109855607Y-122824761D02*
X110998464Y-122824761D01*
X110427035Y-122824761D02*
X110177035Y-120824761D01*
X110403226Y-121110476D01*
X110617511Y-121300952D01*
X110819892Y-121396190D01*
X108367511Y-120824761D02*
X108177035Y-120824761D01*
X107998464Y-120920000D01*
X107915130Y-121015238D01*
X107843702Y-121205714D01*
X107796083Y-121586666D01*
X107855607Y-122062857D01*
X107998464Y-122443809D01*
X108117511Y-122634285D01*
X108224654Y-122729523D01*
X108427035Y-122824761D01*
X108617511Y-122824761D01*
X108796083Y-122729523D01*
X108879416Y-122634285D01*
X108950845Y-122443809D01*
X108998464Y-122062857D01*
X108938940Y-121586666D01*
X108796083Y-121205714D01*
X108677035Y-121015238D01*
X108569892Y-120920000D01*
X108367511Y-120824761D01*
X106462750Y-120824761D02*
X106272273Y-120824761D01*
X106093702Y-120920000D01*
X106010369Y-121015238D01*
X105938940Y-121205714D01*
X105891321Y-121586666D01*
X105950845Y-122062857D01*
X106093702Y-122443809D01*
X106212750Y-122634285D01*
X106319892Y-122729523D01*
X106522273Y-122824761D01*
X106712750Y-122824761D01*
X106891321Y-122729523D01*
X106974654Y-122634285D01*
X107046083Y-122443809D01*
X107093702Y-122062857D01*
X107034178Y-121586666D01*
X106891321Y-121205714D01*
X106772273Y-121015238D01*
X106665130Y-120920000D01*
X106462750Y-120824761D01*
X104557988Y-120824761D02*
X104367511Y-120824761D01*
X104188940Y-120920000D01*
X104105607Y-121015238D01*
X104034178Y-121205714D01*
X103986559Y-121586666D01*
X104046083Y-122062857D01*
X104188940Y-122443809D01*
X104307988Y-122634285D01*
X104415130Y-122729523D01*
X104617511Y-122824761D01*
X104807988Y-122824761D01*
X104986559Y-122729523D01*
X105069892Y-122634285D01*
X105141321Y-122443809D01*
X105188940Y-122062857D01*
X105129416Y-121586666D01*
X104986559Y-121205714D01*
X104867511Y-121015238D01*
X104760369Y-120920000D01*
X104557988Y-120824761D01*
X101784178Y-122253333D02*
X100831797Y-122253333D01*
X102046083Y-122824761D02*
X101129416Y-120824761D01*
X100712750Y-122824761D01*
X100081797Y-120824761D02*
X99665130Y-122824761D01*
X98748464Y-120824761D01*
X96177035Y-120824761D02*
X95796083Y-120824761D01*
X95617511Y-120920000D01*
X95450845Y-121110476D01*
X95403226Y-121491428D01*
X95486559Y-122158095D01*
X95629416Y-122539047D01*
X95843702Y-122729523D01*
X96046083Y-122824761D01*
X96427035Y-122824761D01*
X96605607Y-122729523D01*
X96772273Y-122539047D01*
X96819892Y-122158095D01*
X96736559Y-121491428D01*
X96593702Y-121110476D01*
X96379416Y-120920000D01*
X96177035Y-120824761D01*
X93688940Y-121491428D02*
X93855607Y-122824761D01*
X94546083Y-121491428D02*
X94677035Y-122539047D01*
X94605607Y-122729523D01*
X94427035Y-122824761D01*
X94141321Y-122824761D01*
X93938940Y-122729523D01*
X93831797Y-122634285D01*
X93022273Y-121491428D02*
X92260369Y-121491428D01*
X92653226Y-120824761D02*
X92867511Y-122539047D01*
X92796083Y-122729523D01*
X92617511Y-122824761D01*
X92427035Y-122824761D01*
D12*
G36*
X111656090Y-89952348D02*
G01*
X111577546Y-89952778D01*
X111520702Y-89953942D01*
X111481895Y-89956207D01*
X111457462Y-89959940D01*
X111443738Y-89965506D01*
X111437060Y-89973273D01*
X111433764Y-89983605D01*
X111433444Y-89984943D01*
X111428438Y-90009079D01*
X111419171Y-90056701D01*
X111406608Y-90122741D01*
X111391713Y-90202128D01*
X111375449Y-90289796D01*
X111374881Y-90292875D01*
X111358590Y-90378789D01*
X111343348Y-90454696D01*
X111330139Y-90516045D01*
X111319946Y-90558282D01*
X111313752Y-90576855D01*
X111313457Y-90577184D01*
X111295212Y-90586253D01*
X111257595Y-90601367D01*
X111208729Y-90619262D01*
X111208457Y-90619358D01*
X111146907Y-90642493D01*
X111074343Y-90671965D01*
X111005943Y-90701597D01*
X111002706Y-90703062D01*
X110891298Y-90753626D01*
X110644601Y-90585160D01*
X110568923Y-90533803D01*
X110500369Y-90487889D01*
X110442912Y-90450030D01*
X110400524Y-90422837D01*
X110377175Y-90408921D01*
X110374958Y-90407889D01*
X110357990Y-90412484D01*
X110326299Y-90434655D01*
X110278648Y-90475447D01*
X110213802Y-90535905D01*
X110147603Y-90600227D01*
X110083786Y-90663612D01*
X110026671Y-90721451D01*
X109979695Y-90770175D01*
X109946297Y-90806210D01*
X109929915Y-90825984D01*
X109929306Y-90827002D01*
X109927495Y-90840572D01*
X109934317Y-90862733D01*
X109951460Y-90896478D01*
X109980607Y-90944800D01*
X110023445Y-91010692D01*
X110080552Y-91095517D01*
X110131234Y-91170177D01*
X110176539Y-91237140D01*
X110213850Y-91292516D01*
X110240548Y-91332420D01*
X110254015Y-91352962D01*
X110254863Y-91354356D01*
X110253219Y-91374038D01*
X110240755Y-91412293D01*
X110219952Y-91461889D01*
X110212538Y-91477728D01*
X110180186Y-91548290D01*
X110145672Y-91628353D01*
X110117635Y-91697629D01*
X110097432Y-91749045D01*
X110081385Y-91788119D01*
X110072112Y-91808541D01*
X110070959Y-91810114D01*
X110053904Y-91812721D01*
X110013702Y-91819863D01*
X109955698Y-91830523D01*
X109885237Y-91843685D01*
X109807665Y-91858333D01*
X109728328Y-91873449D01*
X109652569Y-91888018D01*
X109585736Y-91901022D01*
X109533172Y-91911445D01*
X109500224Y-91918270D01*
X109492143Y-91920199D01*
X109483795Y-91924962D01*
X109477494Y-91935718D01*
X109472955Y-91956098D01*
X109469896Y-91989734D01*
X109468033Y-92040255D01*
X109467082Y-92111292D01*
X109466760Y-92206476D01*
X109466743Y-92245492D01*
X109466743Y-92562799D01*
X109542943Y-92577839D01*
X109585337Y-92585995D01*
X109648600Y-92597899D01*
X109725038Y-92612116D01*
X109806957Y-92627210D01*
X109829600Y-92631355D01*
X109905194Y-92646053D01*
X109971047Y-92660505D01*
X110021634Y-92673375D01*
X110051426Y-92683322D01*
X110056388Y-92686287D01*
X110068574Y-92707283D01*
X110086047Y-92747967D01*
X110105423Y-92800322D01*
X110109266Y-92811600D01*
X110134661Y-92881523D01*
X110166183Y-92960418D01*
X110197031Y-93031266D01*
X110197183Y-93031595D01*
X110248553Y-93142733D01*
X110079601Y-93391253D01*
X109910648Y-93639772D01*
X110127571Y-93857058D01*
X110193181Y-93921726D01*
X110253021Y-93978733D01*
X110303733Y-94025033D01*
X110341954Y-94057584D01*
X110364325Y-94073343D01*
X110367534Y-94074343D01*
X110386374Y-94066469D01*
X110424820Y-94044578D01*
X110478670Y-94011267D01*
X110543724Y-93969131D01*
X110614060Y-93921943D01*
X110685445Y-93873810D01*
X110749092Y-93831928D01*
X110800959Y-93798871D01*
X110837005Y-93777218D01*
X110853133Y-93769543D01*
X110872811Y-93776037D01*
X110910125Y-93793150D01*
X110957379Y-93817326D01*
X110962388Y-93820013D01*
X111026023Y-93851927D01*
X111069659Y-93867579D01*
X111096798Y-93867745D01*
X111110943Y-93853204D01*
X111111025Y-93853000D01*
X111118095Y-93835779D01*
X111134958Y-93794899D01*
X111160305Y-93733525D01*
X111192829Y-93654819D01*
X111231222Y-93561947D01*
X111274178Y-93458072D01*
X111315778Y-93357502D01*
X111361496Y-93246516D01*
X111403474Y-93143703D01*
X111440452Y-93052215D01*
X111471173Y-92975201D01*
X111494378Y-92915815D01*
X111508810Y-92877209D01*
X111513257Y-92862800D01*
X111502104Y-92846272D01*
X111472931Y-92819930D01*
X111434029Y-92790887D01*
X111323243Y-92699039D01*
X111236649Y-92593759D01*
X111175284Y-92477266D01*
X111140185Y-92351776D01*
X111132392Y-92219507D01*
X111138057Y-92158457D01*
X111168922Y-92031795D01*
X111222080Y-91919941D01*
X111294233Y-91824001D01*
X111382083Y-91745076D01*
X111482335Y-91684270D01*
X111591690Y-91642687D01*
X111706853Y-91621428D01*
X111824525Y-91621599D01*
X111941410Y-91644301D01*
X112054211Y-91690638D01*
X112159631Y-91761713D01*
X112203632Y-91801911D01*
X112288021Y-91905129D01*
X112346778Y-92017925D01*
X112380296Y-92137010D01*
X112388965Y-92259095D01*
X112373177Y-92380893D01*
X112333322Y-92499116D01*
X112269793Y-92610475D01*
X112182979Y-92711684D01*
X112085971Y-92790887D01*
X112045563Y-92821162D01*
X112017018Y-92847219D01*
X112006743Y-92862825D01*
X112012123Y-92879843D01*
X112027425Y-92920500D01*
X112051388Y-92981642D01*
X112082756Y-93060119D01*
X112120268Y-93152780D01*
X112162667Y-93256472D01*
X112204337Y-93357526D01*
X112250310Y-93468607D01*
X112292893Y-93571541D01*
X112330779Y-93663165D01*
X112362660Y-93740316D01*
X112387229Y-93799831D01*
X112403180Y-93838544D01*
X112409090Y-93853000D01*
X112423052Y-93867685D01*
X112450060Y-93867642D01*
X112493587Y-93852099D01*
X112557110Y-93820284D01*
X112557612Y-93820013D01*
X112605440Y-93795323D01*
X112644103Y-93777338D01*
X112665905Y-93769614D01*
X112666867Y-93769543D01*
X112683279Y-93777378D01*
X112719513Y-93799165D01*
X112771526Y-93832328D01*
X112835275Y-93874291D01*
X112905940Y-93921943D01*
X112977884Y-93970191D01*
X113042726Y-94012151D01*
X113096265Y-94045227D01*
X113134303Y-94066821D01*
X113152467Y-94074343D01*
X113169192Y-94064457D01*
X113202820Y-94036826D01*
X113249990Y-93994495D01*
X113307342Y-93940505D01*
X113371516Y-93877899D01*
X113392503Y-93856983D01*
X113609501Y-93639623D01*
X113444332Y-93397220D01*
X113394136Y-93322781D01*
X113350081Y-93255972D01*
X113314638Y-93200665D01*
X113290281Y-93160729D01*
X113279478Y-93140036D01*
X113279162Y-93138563D01*
X113284857Y-93119058D01*
X113300174Y-93079822D01*
X113322463Y-93027430D01*
X113338107Y-92992355D01*
X113367359Y-92925201D01*
X113394906Y-92857358D01*
X113416263Y-92800034D01*
X113422065Y-92782572D01*
X113438548Y-92735938D01*
X113454660Y-92699905D01*
X113463510Y-92686287D01*
X113483040Y-92677952D01*
X113525666Y-92666137D01*
X113585855Y-92652181D01*
X113658078Y-92637422D01*
X113690400Y-92631355D01*
X113772478Y-92616273D01*
X113851205Y-92601669D01*
X113918891Y-92588980D01*
X113967840Y-92579642D01*
X113977057Y-92577839D01*
X114053257Y-92562799D01*
X114053257Y-92245492D01*
X114053086Y-92141154D01*
X114052384Y-92062213D01*
X114050866Y-92005038D01*
X114048251Y-91965999D01*
X114044254Y-91941465D01*
X114038591Y-91927805D01*
X114030980Y-91921389D01*
X114027857Y-91920199D01*
X114009022Y-91915980D01*
X113967412Y-91907562D01*
X113908370Y-91895961D01*
X113837243Y-91882195D01*
X113759375Y-91867280D01*
X113680113Y-91852232D01*
X113604802Y-91838069D01*
X113538787Y-91825806D01*
X113487413Y-91816461D01*
X113456025Y-91811050D01*
X113449041Y-91810114D01*
X113442715Y-91797596D01*
X113428710Y-91764246D01*
X113409645Y-91716377D01*
X113402366Y-91697629D01*
X113373004Y-91625195D01*
X113338429Y-91545170D01*
X113307463Y-91477728D01*
X113284677Y-91426159D01*
X113269518Y-91383785D01*
X113264458Y-91357834D01*
X113265264Y-91354356D01*
X113275959Y-91337936D01*
X113300380Y-91301417D01*
X113335905Y-91248687D01*
X113379913Y-91183635D01*
X113429783Y-91110151D01*
X113439644Y-91095645D01*
X113497508Y-91009704D01*
X113540044Y-90944261D01*
X113568946Y-90896304D01*
X113585910Y-90862820D01*
X113592633Y-90840795D01*
X113590810Y-90827217D01*
X113590764Y-90827131D01*
X113576414Y-90809297D01*
X113544677Y-90774817D01*
X113498990Y-90727268D01*
X113442796Y-90670222D01*
X113379532Y-90607255D01*
X113372398Y-90600227D01*
X113292670Y-90523020D01*
X113231143Y-90466330D01*
X113186579Y-90429110D01*
X113157743Y-90410315D01*
X113145042Y-90407889D01*
X113126506Y-90418471D01*
X113088039Y-90442916D01*
X113033614Y-90478612D01*
X112967202Y-90522947D01*
X112892775Y-90573311D01*
X112875399Y-90585160D01*
X112628703Y-90753626D01*
X112517294Y-90703062D01*
X112449543Y-90673595D01*
X112376817Y-90643959D01*
X112314297Y-90620330D01*
X112311543Y-90619358D01*
X112262640Y-90601457D01*
X112224943Y-90586320D01*
X112206575Y-90577210D01*
X112206544Y-90577184D01*
X112200715Y-90560717D01*
X112190808Y-90520219D01*
X112177805Y-90460242D01*
X112162691Y-90385340D01*
X112146448Y-90300064D01*
X112145119Y-90292875D01*
X112128825Y-90205014D01*
X112113867Y-90125260D01*
X112101209Y-90058681D01*
X112091814Y-90010347D01*
X112086646Y-89985325D01*
X112086556Y-89984943D01*
X112083411Y-89974299D01*
X112077296Y-89966262D01*
X112064547Y-89960467D01*
X112041500Y-89956547D01*
X112004491Y-89954135D01*
X111949856Y-89952865D01*
X111873933Y-89952371D01*
X111773056Y-89952286D01*
X111760000Y-89952286D01*
X111656090Y-89952348D01*
G37*
X111656090Y-89952348D02*
X111577546Y-89952778D01*
X111520702Y-89953942D01*
X111481895Y-89956207D01*
X111457462Y-89959940D01*
X111443738Y-89965506D01*
X111437060Y-89973273D01*
X111433764Y-89983605D01*
X111433444Y-89984943D01*
X111428438Y-90009079D01*
X111419171Y-90056701D01*
X111406608Y-90122741D01*
X111391713Y-90202128D01*
X111375449Y-90289796D01*
X111374881Y-90292875D01*
X111358590Y-90378789D01*
X111343348Y-90454696D01*
X111330139Y-90516045D01*
X111319946Y-90558282D01*
X111313752Y-90576855D01*
X111313457Y-90577184D01*
X111295212Y-90586253D01*
X111257595Y-90601367D01*
X111208729Y-90619262D01*
X111208457Y-90619358D01*
X111146907Y-90642493D01*
X111074343Y-90671965D01*
X111005943Y-90701597D01*
X111002706Y-90703062D01*
X110891298Y-90753626D01*
X110644601Y-90585160D01*
X110568923Y-90533803D01*
X110500369Y-90487889D01*
X110442912Y-90450030D01*
X110400524Y-90422837D01*
X110377175Y-90408921D01*
X110374958Y-90407889D01*
X110357990Y-90412484D01*
X110326299Y-90434655D01*
X110278648Y-90475447D01*
X110213802Y-90535905D01*
X110147603Y-90600227D01*
X110083786Y-90663612D01*
X110026671Y-90721451D01*
X109979695Y-90770175D01*
X109946297Y-90806210D01*
X109929915Y-90825984D01*
X109929306Y-90827002D01*
X109927495Y-90840572D01*
X109934317Y-90862733D01*
X109951460Y-90896478D01*
X109980607Y-90944800D01*
X110023445Y-91010692D01*
X110080552Y-91095517D01*
X110131234Y-91170177D01*
X110176539Y-91237140D01*
X110213850Y-91292516D01*
X110240548Y-91332420D01*
X110254015Y-91352962D01*
X110254863Y-91354356D01*
X110253219Y-91374038D01*
X110240755Y-91412293D01*
X110219952Y-91461889D01*
X110212538Y-91477728D01*
X110180186Y-91548290D01*
X110145672Y-91628353D01*
X110117635Y-91697629D01*
X110097432Y-91749045D01*
X110081385Y-91788119D01*
X110072112Y-91808541D01*
X110070959Y-91810114D01*
X110053904Y-91812721D01*
X110013702Y-91819863D01*
X109955698Y-91830523D01*
X109885237Y-91843685D01*
X109807665Y-91858333D01*
X109728328Y-91873449D01*
X109652569Y-91888018D01*
X109585736Y-91901022D01*
X109533172Y-91911445D01*
X109500224Y-91918270D01*
X109492143Y-91920199D01*
X109483795Y-91924962D01*
X109477494Y-91935718D01*
X109472955Y-91956098D01*
X109469896Y-91989734D01*
X109468033Y-92040255D01*
X109467082Y-92111292D01*
X109466760Y-92206476D01*
X109466743Y-92245492D01*
X109466743Y-92562799D01*
X109542943Y-92577839D01*
X109585337Y-92585995D01*
X109648600Y-92597899D01*
X109725038Y-92612116D01*
X109806957Y-92627210D01*
X109829600Y-92631355D01*
X109905194Y-92646053D01*
X109971047Y-92660505D01*
X110021634Y-92673375D01*
X110051426Y-92683322D01*
X110056388Y-92686287D01*
X110068574Y-92707283D01*
X110086047Y-92747967D01*
X110105423Y-92800322D01*
X110109266Y-92811600D01*
X110134661Y-92881523D01*
X110166183Y-92960418D01*
X110197031Y-93031266D01*
X110197183Y-93031595D01*
X110248553Y-93142733D01*
X110079601Y-93391253D01*
X109910648Y-93639772D01*
X110127571Y-93857058D01*
X110193181Y-93921726D01*
X110253021Y-93978733D01*
X110303733Y-94025033D01*
X110341954Y-94057584D01*
X110364325Y-94073343D01*
X110367534Y-94074343D01*
X110386374Y-94066469D01*
X110424820Y-94044578D01*
X110478670Y-94011267D01*
X110543724Y-93969131D01*
X110614060Y-93921943D01*
X110685445Y-93873810D01*
X110749092Y-93831928D01*
X110800959Y-93798871D01*
X110837005Y-93777218D01*
X110853133Y-93769543D01*
X110872811Y-93776037D01*
X110910125Y-93793150D01*
X110957379Y-93817326D01*
X110962388Y-93820013D01*
X111026023Y-93851927D01*
X111069659Y-93867579D01*
X111096798Y-93867745D01*
X111110943Y-93853204D01*
X111111025Y-93853000D01*
X111118095Y-93835779D01*
X111134958Y-93794899D01*
X111160305Y-93733525D01*
X111192829Y-93654819D01*
X111231222Y-93561947D01*
X111274178Y-93458072D01*
X111315778Y-93357502D01*
X111361496Y-93246516D01*
X111403474Y-93143703D01*
X111440452Y-93052215D01*
X111471173Y-92975201D01*
X111494378Y-92915815D01*
X111508810Y-92877209D01*
X111513257Y-92862800D01*
X111502104Y-92846272D01*
X111472931Y-92819930D01*
X111434029Y-92790887D01*
X111323243Y-92699039D01*
X111236649Y-92593759D01*
X111175284Y-92477266D01*
X111140185Y-92351776D01*
X111132392Y-92219507D01*
X111138057Y-92158457D01*
X111168922Y-92031795D01*
X111222080Y-91919941D01*
X111294233Y-91824001D01*
X111382083Y-91745076D01*
X111482335Y-91684270D01*
X111591690Y-91642687D01*
X111706853Y-91621428D01*
X111824525Y-91621599D01*
X111941410Y-91644301D01*
X112054211Y-91690638D01*
X112159631Y-91761713D01*
X112203632Y-91801911D01*
X112288021Y-91905129D01*
X112346778Y-92017925D01*
X112380296Y-92137010D01*
X112388965Y-92259095D01*
X112373177Y-92380893D01*
X112333322Y-92499116D01*
X112269793Y-92610475D01*
X112182979Y-92711684D01*
X112085971Y-92790887D01*
X112045563Y-92821162D01*
X112017018Y-92847219D01*
X112006743Y-92862825D01*
X112012123Y-92879843D01*
X112027425Y-92920500D01*
X112051388Y-92981642D01*
X112082756Y-93060119D01*
X112120268Y-93152780D01*
X112162667Y-93256472D01*
X112204337Y-93357526D01*
X112250310Y-93468607D01*
X112292893Y-93571541D01*
X112330779Y-93663165D01*
X112362660Y-93740316D01*
X112387229Y-93799831D01*
X112403180Y-93838544D01*
X112409090Y-93853000D01*
X112423052Y-93867685D01*
X112450060Y-93867642D01*
X112493587Y-93852099D01*
X112557110Y-93820284D01*
X112557612Y-93820013D01*
X112605440Y-93795323D01*
X112644103Y-93777338D01*
X112665905Y-93769614D01*
X112666867Y-93769543D01*
X112683279Y-93777378D01*
X112719513Y-93799165D01*
X112771526Y-93832328D01*
X112835275Y-93874291D01*
X112905940Y-93921943D01*
X112977884Y-93970191D01*
X113042726Y-94012151D01*
X113096265Y-94045227D01*
X113134303Y-94066821D01*
X113152467Y-94074343D01*
X113169192Y-94064457D01*
X113202820Y-94036826D01*
X113249990Y-93994495D01*
X113307342Y-93940505D01*
X113371516Y-93877899D01*
X113392503Y-93856983D01*
X113609501Y-93639623D01*
X113444332Y-93397220D01*
X113394136Y-93322781D01*
X113350081Y-93255972D01*
X113314638Y-93200665D01*
X113290281Y-93160729D01*
X113279478Y-93140036D01*
X113279162Y-93138563D01*
X113284857Y-93119058D01*
X113300174Y-93079822D01*
X113322463Y-93027430D01*
X113338107Y-92992355D01*
X113367359Y-92925201D01*
X113394906Y-92857358D01*
X113416263Y-92800034D01*
X113422065Y-92782572D01*
X113438548Y-92735938D01*
X113454660Y-92699905D01*
X113463510Y-92686287D01*
X113483040Y-92677952D01*
X113525666Y-92666137D01*
X113585855Y-92652181D01*
X113658078Y-92637422D01*
X113690400Y-92631355D01*
X113772478Y-92616273D01*
X113851205Y-92601669D01*
X113918891Y-92588980D01*
X113967840Y-92579642D01*
X113977057Y-92577839D01*
X114053257Y-92562799D01*
X114053257Y-92245492D01*
X114053086Y-92141154D01*
X114052384Y-92062213D01*
X114050866Y-92005038D01*
X114048251Y-91965999D01*
X114044254Y-91941465D01*
X114038591Y-91927805D01*
X114030980Y-91921389D01*
X114027857Y-91920199D01*
X114009022Y-91915980D01*
X113967412Y-91907562D01*
X113908370Y-91895961D01*
X113837243Y-91882195D01*
X113759375Y-91867280D01*
X113680113Y-91852232D01*
X113604802Y-91838069D01*
X113538787Y-91825806D01*
X113487413Y-91816461D01*
X113456025Y-91811050D01*
X113449041Y-91810114D01*
X113442715Y-91797596D01*
X113428710Y-91764246D01*
X113409645Y-91716377D01*
X113402366Y-91697629D01*
X113373004Y-91625195D01*
X113338429Y-91545170D01*
X113307463Y-91477728D01*
X113284677Y-91426159D01*
X113269518Y-91383785D01*
X113264458Y-91357834D01*
X113265264Y-91354356D01*
X113275959Y-91337936D01*
X113300380Y-91301417D01*
X113335905Y-91248687D01*
X113379913Y-91183635D01*
X113429783Y-91110151D01*
X113439644Y-91095645D01*
X113497508Y-91009704D01*
X113540044Y-90944261D01*
X113568946Y-90896304D01*
X113585910Y-90862820D01*
X113592633Y-90840795D01*
X113590810Y-90827217D01*
X113590764Y-90827131D01*
X113576414Y-90809297D01*
X113544677Y-90774817D01*
X113498990Y-90727268D01*
X113442796Y-90670222D01*
X113379532Y-90607255D01*
X113372398Y-90600227D01*
X113292670Y-90523020D01*
X113231143Y-90466330D01*
X113186579Y-90429110D01*
X113157743Y-90410315D01*
X113145042Y-90407889D01*
X113126506Y-90418471D01*
X113088039Y-90442916D01*
X113033614Y-90478612D01*
X112967202Y-90522947D01*
X112892775Y-90573311D01*
X112875399Y-90585160D01*
X112628703Y-90753626D01*
X112517294Y-90703062D01*
X112449543Y-90673595D01*
X112376817Y-90643959D01*
X112314297Y-90620330D01*
X112311543Y-90619358D01*
X112262640Y-90601457D01*
X112224943Y-90586320D01*
X112206575Y-90577210D01*
X112206544Y-90577184D01*
X112200715Y-90560717D01*
X112190808Y-90520219D01*
X112177805Y-90460242D01*
X112162691Y-90385340D01*
X112146448Y-90300064D01*
X112145119Y-90292875D01*
X112128825Y-90205014D01*
X112113867Y-90125260D01*
X112101209Y-90058681D01*
X112091814Y-90010347D01*
X112086646Y-89985325D01*
X112086556Y-89984943D01*
X112083411Y-89974299D01*
X112077296Y-89966262D01*
X112064547Y-89960467D01*
X112041500Y-89956547D01*
X112004491Y-89954135D01*
X111949856Y-89952865D01*
X111873933Y-89952371D01*
X111773056Y-89952286D01*
X111760000Y-89952286D01*
X111656090Y-89952348D01*
G36*
X108606405Y-94676966D02*
G01*
X108548979Y-94714497D01*
X108521281Y-94748096D01*
X108499338Y-94809064D01*
X108497595Y-94857308D01*
X108501543Y-94921816D01*
X108650314Y-94986934D01*
X108722651Y-95020202D01*
X108769916Y-95046964D01*
X108794493Y-95070144D01*
X108798763Y-95092667D01*
X108785111Y-95117455D01*
X108770057Y-95133886D01*
X108726254Y-95160235D01*
X108678611Y-95162081D01*
X108634855Y-95141546D01*
X108602711Y-95100752D01*
X108596962Y-95086347D01*
X108569424Y-95041356D01*
X108537742Y-95022182D01*
X108494286Y-95005779D01*
X108494286Y-95067966D01*
X108498128Y-95110283D01*
X108513177Y-95145969D01*
X108544720Y-95186943D01*
X108549408Y-95192267D01*
X108584494Y-95228720D01*
X108614653Y-95248283D01*
X108652385Y-95257283D01*
X108683665Y-95260230D01*
X108739615Y-95260965D01*
X108779445Y-95251660D01*
X108804292Y-95237846D01*
X108843344Y-95207467D01*
X108870375Y-95174613D01*
X108887483Y-95133294D01*
X108896762Y-95077521D01*
X108900307Y-95001305D01*
X108900590Y-94962622D01*
X108899628Y-94916247D01*
X108811993Y-94916247D01*
X108810977Y-94941126D01*
X108808444Y-94945200D01*
X108791726Y-94939665D01*
X108755751Y-94925017D01*
X108707669Y-94904190D01*
X108697614Y-94899714D01*
X108636848Y-94868814D01*
X108603368Y-94841657D01*
X108596010Y-94816220D01*
X108613609Y-94790481D01*
X108628144Y-94779109D01*
X108680590Y-94756364D01*
X108729678Y-94760122D01*
X108770773Y-94787884D01*
X108799242Y-94837152D01*
X108808369Y-94876257D01*
X108811993Y-94916247D01*
X108899628Y-94916247D01*
X108898715Y-94872249D01*
X108891804Y-94805384D01*
X108878116Y-94756695D01*
X108855904Y-94720849D01*
X108823426Y-94692513D01*
X108809267Y-94683355D01*
X108744947Y-94659507D01*
X108674527Y-94658006D01*
X108606405Y-94676966D01*
G37*
X108606405Y-94676966D02*
X108548979Y-94714497D01*
X108521281Y-94748096D01*
X108499338Y-94809064D01*
X108497595Y-94857308D01*
X108501543Y-94921816D01*
X108650314Y-94986934D01*
X108722651Y-95020202D01*
X108769916Y-95046964D01*
X108794493Y-95070144D01*
X108798763Y-95092667D01*
X108785111Y-95117455D01*
X108770057Y-95133886D01*
X108726254Y-95160235D01*
X108678611Y-95162081D01*
X108634855Y-95141546D01*
X108602711Y-95100752D01*
X108596962Y-95086347D01*
X108569424Y-95041356D01*
X108537742Y-95022182D01*
X108494286Y-95005779D01*
X108494286Y-95067966D01*
X108498128Y-95110283D01*
X108513177Y-95145969D01*
X108544720Y-95186943D01*
X108549408Y-95192267D01*
X108584494Y-95228720D01*
X108614653Y-95248283D01*
X108652385Y-95257283D01*
X108683665Y-95260230D01*
X108739615Y-95260965D01*
X108779445Y-95251660D01*
X108804292Y-95237846D01*
X108843344Y-95207467D01*
X108870375Y-95174613D01*
X108887483Y-95133294D01*
X108896762Y-95077521D01*
X108900307Y-95001305D01*
X108900590Y-94962622D01*
X108899628Y-94916247D01*
X108811993Y-94916247D01*
X108810977Y-94941126D01*
X108808444Y-94945200D01*
X108791726Y-94939665D01*
X108755751Y-94925017D01*
X108707669Y-94904190D01*
X108697614Y-94899714D01*
X108636848Y-94868814D01*
X108603368Y-94841657D01*
X108596010Y-94816220D01*
X108613609Y-94790481D01*
X108628144Y-94779109D01*
X108680590Y-94756364D01*
X108729678Y-94760122D01*
X108770773Y-94787884D01*
X108799242Y-94837152D01*
X108808369Y-94876257D01*
X108811993Y-94916247D01*
X108899628Y-94916247D01*
X108898715Y-94872249D01*
X108891804Y-94805384D01*
X108878116Y-94756695D01*
X108855904Y-94720849D01*
X108823426Y-94692513D01*
X108809267Y-94683355D01*
X108744947Y-94659507D01*
X108674527Y-94658006D01*
X108606405Y-94676966D01*
G36*
X109107400Y-94668752D02*
G01*
X109090052Y-94676334D01*
X109048644Y-94709128D01*
X109013235Y-94756547D01*
X108991336Y-94807151D01*
X108987771Y-94832098D01*
X108999721Y-94866927D01*
X109025933Y-94885357D01*
X109054036Y-94896516D01*
X109066905Y-94898572D01*
X109073171Y-94883649D01*
X109085544Y-94851175D01*
X109090972Y-94836502D01*
X109121410Y-94785744D01*
X109165480Y-94760427D01*
X109221990Y-94761206D01*
X109226175Y-94762203D01*
X109256345Y-94776507D01*
X109278524Y-94804393D01*
X109293673Y-94849287D01*
X109302750Y-94914615D01*
X109306714Y-95003804D01*
X109307086Y-95051261D01*
X109307270Y-95126071D01*
X109308478Y-95177069D01*
X109311691Y-95209471D01*
X109317891Y-95228495D01*
X109328060Y-95239356D01*
X109343181Y-95247272D01*
X109344054Y-95247670D01*
X109373172Y-95259981D01*
X109387597Y-95264514D01*
X109389814Y-95250809D01*
X109391711Y-95212925D01*
X109393153Y-95155715D01*
X109394002Y-95084027D01*
X109394171Y-95031565D01*
X109393308Y-94930047D01*
X109389930Y-94853032D01*
X109382858Y-94796023D01*
X109370912Y-94754526D01*
X109352910Y-94724043D01*
X109327673Y-94700080D01*
X109302753Y-94683355D01*
X109242829Y-94661097D01*
X109173089Y-94656076D01*
X109107400Y-94668752D01*
G37*
X109107400Y-94668752D02*
X109090052Y-94676334D01*
X109048644Y-94709128D01*
X109013235Y-94756547D01*
X108991336Y-94807151D01*
X108987771Y-94832098D01*
X108999721Y-94866927D01*
X109025933Y-94885357D01*
X109054036Y-94896516D01*
X109066905Y-94898572D01*
X109073171Y-94883649D01*
X109085544Y-94851175D01*
X109090972Y-94836502D01*
X109121410Y-94785744D01*
X109165480Y-94760427D01*
X109221990Y-94761206D01*
X109226175Y-94762203D01*
X109256345Y-94776507D01*
X109278524Y-94804393D01*
X109293673Y-94849287D01*
X109302750Y-94914615D01*
X109306714Y-95003804D01*
X109307086Y-95051261D01*
X109307270Y-95126071D01*
X109308478Y-95177069D01*
X109311691Y-95209471D01*
X109317891Y-95228495D01*
X109328060Y-95239356D01*
X109343181Y-95247272D01*
X109344054Y-95247670D01*
X109373172Y-95259981D01*
X109387597Y-95264514D01*
X109389814Y-95250809D01*
X109391711Y-95212925D01*
X109393153Y-95155715D01*
X109394002Y-95084027D01*
X109394171Y-95031565D01*
X109393308Y-94930047D01*
X109389930Y-94853032D01*
X109382858Y-94796023D01*
X109370912Y-94754526D01*
X109352910Y-94724043D01*
X109327673Y-94700080D01*
X109302753Y-94683355D01*
X109242829Y-94661097D01*
X109173089Y-94656076D01*
X109107400Y-94668752D01*
G36*
X109615124Y-94666335D02*
G01*
X109573333Y-94685344D01*
X109540531Y-94708378D01*
X109516497Y-94734133D01*
X109499903Y-94767358D01*
X109489423Y-94812800D01*
X109483729Y-94875207D01*
X109481493Y-94959327D01*
X109481257Y-95014721D01*
X109481257Y-95230826D01*
X109518226Y-95247670D01*
X109547344Y-95259981D01*
X109561769Y-95264514D01*
X109564528Y-95251025D01*
X109566718Y-95214653D01*
X109568058Y-95161542D01*
X109568343Y-95119372D01*
X109569566Y-95058447D01*
X109572864Y-95010115D01*
X109577679Y-94980518D01*
X109581504Y-94974229D01*
X109607217Y-94980652D01*
X109647582Y-94997125D01*
X109694321Y-95019458D01*
X109739155Y-95043457D01*
X109773807Y-95064930D01*
X109789998Y-95079685D01*
X109790062Y-95079845D01*
X109788670Y-95107152D01*
X109776182Y-95133219D01*
X109754257Y-95154392D01*
X109722257Y-95161474D01*
X109694908Y-95160649D01*
X109656174Y-95160042D01*
X109635842Y-95169116D01*
X109623631Y-95193092D01*
X109622091Y-95197613D01*
X109616797Y-95231806D01*
X109630953Y-95252568D01*
X109667852Y-95262462D01*
X109707711Y-95264292D01*
X109779438Y-95250727D01*
X109816568Y-95231355D01*
X109862424Y-95185845D01*
X109886744Y-95129983D01*
X109888927Y-95070957D01*
X109868371Y-95015953D01*
X109837451Y-94981486D01*
X109806580Y-94962189D01*
X109758058Y-94937759D01*
X109701515Y-94912985D01*
X109692090Y-94909199D01*
X109629981Y-94881791D01*
X109594178Y-94857634D01*
X109582663Y-94833619D01*
X109593420Y-94806635D01*
X109611886Y-94785543D01*
X109655531Y-94759572D01*
X109703554Y-94757624D01*
X109747594Y-94777637D01*
X109779291Y-94817551D01*
X109783451Y-94827848D01*
X109807673Y-94865724D01*
X109843035Y-94893842D01*
X109887657Y-94916917D01*
X109887657Y-94851485D01*
X109885031Y-94811506D01*
X109873770Y-94779997D01*
X109848801Y-94746378D01*
X109824831Y-94720484D01*
X109787559Y-94683817D01*
X109758599Y-94664121D01*
X109727495Y-94656220D01*
X109692287Y-94654914D01*
X109615124Y-94666335D01*
G37*
X109615124Y-94666335D02*
X109573333Y-94685344D01*
X109540531Y-94708378D01*
X109516497Y-94734133D01*
X109499903Y-94767358D01*
X109489423Y-94812800D01*
X109483729Y-94875207D01*
X109481493Y-94959327D01*
X109481257Y-95014721D01*
X109481257Y-95230826D01*
X109518226Y-95247670D01*
X109547344Y-95259981D01*
X109561769Y-95264514D01*
X109564528Y-95251025D01*
X109566718Y-95214653D01*
X109568058Y-95161542D01*
X109568343Y-95119372D01*
X109569566Y-95058447D01*
X109572864Y-95010115D01*
X109577679Y-94980518D01*
X109581504Y-94974229D01*
X109607217Y-94980652D01*
X109647582Y-94997125D01*
X109694321Y-95019458D01*
X109739155Y-95043457D01*
X109773807Y-95064930D01*
X109789998Y-95079685D01*
X109790062Y-95079845D01*
X109788670Y-95107152D01*
X109776182Y-95133219D01*
X109754257Y-95154392D01*
X109722257Y-95161474D01*
X109694908Y-95160649D01*
X109656174Y-95160042D01*
X109635842Y-95169116D01*
X109623631Y-95193092D01*
X109622091Y-95197613D01*
X109616797Y-95231806D01*
X109630953Y-95252568D01*
X109667852Y-95262462D01*
X109707711Y-95264292D01*
X109779438Y-95250727D01*
X109816568Y-95231355D01*
X109862424Y-95185845D01*
X109886744Y-95129983D01*
X109888927Y-95070957D01*
X109868371Y-95015953D01*
X109837451Y-94981486D01*
X109806580Y-94962189D01*
X109758058Y-94937759D01*
X109701515Y-94912985D01*
X109692090Y-94909199D01*
X109629981Y-94881791D01*
X109594178Y-94857634D01*
X109582663Y-94833619D01*
X109593420Y-94806635D01*
X109611886Y-94785543D01*
X109655531Y-94759572D01*
X109703554Y-94757624D01*
X109747594Y-94777637D01*
X109779291Y-94817551D01*
X109783451Y-94827848D01*
X109807673Y-94865724D01*
X109843035Y-94893842D01*
X109887657Y-94916917D01*
X109887657Y-94851485D01*
X109885031Y-94811506D01*
X109873770Y-94779997D01*
X109848801Y-94746378D01*
X109824831Y-94720484D01*
X109787559Y-94683817D01*
X109758599Y-94664121D01*
X109727495Y-94656220D01*
X109692287Y-94654914D01*
X109615124Y-94666335D01*
G36*
X109980167Y-94668663D02*
G01*
X109977952Y-94706850D01*
X109976216Y-94764886D01*
X109975101Y-94838180D01*
X109974743Y-94915055D01*
X109974743Y-95175196D01*
X110020674Y-95221127D01*
X110052325Y-95249429D01*
X110080110Y-95260893D01*
X110118085Y-95260168D01*
X110133160Y-95258321D01*
X110180274Y-95252948D01*
X110219244Y-95249869D01*
X110228743Y-95249585D01*
X110260767Y-95251445D01*
X110306568Y-95256114D01*
X110324326Y-95258321D01*
X110367943Y-95261735D01*
X110397255Y-95254320D01*
X110426320Y-95231427D01*
X110436812Y-95221127D01*
X110482743Y-95175196D01*
X110482743Y-94688602D01*
X110445774Y-94671758D01*
X110413941Y-94659282D01*
X110395317Y-94654914D01*
X110390542Y-94668718D01*
X110386079Y-94707286D01*
X110382225Y-94766356D01*
X110379278Y-94841663D01*
X110377857Y-94905286D01*
X110373886Y-95155657D01*
X110339241Y-95160556D01*
X110307732Y-95157131D01*
X110292292Y-95146041D01*
X110287977Y-95125308D01*
X110284292Y-95081145D01*
X110281531Y-95019146D01*
X110279988Y-94944909D01*
X110279765Y-94906706D01*
X110279543Y-94686783D01*
X110233834Y-94670849D01*
X110201482Y-94660015D01*
X110183885Y-94654962D01*
X110183377Y-94654914D01*
X110181612Y-94668648D01*
X110179671Y-94706730D01*
X110177718Y-94764482D01*
X110175916Y-94837227D01*
X110174657Y-94905286D01*
X110170686Y-95155657D01*
X110083600Y-95155657D01*
X110079604Y-94927240D01*
X110075608Y-94698822D01*
X110033153Y-94676868D01*
X110001808Y-94661793D01*
X109983256Y-94654951D01*
X109982721Y-94654914D01*
X109980167Y-94668663D01*
G37*
X109980167Y-94668663D02*
X109977952Y-94706850D01*
X109976216Y-94764886D01*
X109975101Y-94838180D01*
X109974743Y-94915055D01*
X109974743Y-95175196D01*
X110020674Y-95221127D01*
X110052325Y-95249429D01*
X110080110Y-95260893D01*
X110118085Y-95260168D01*
X110133160Y-95258321D01*
X110180274Y-95252948D01*
X110219244Y-95249869D01*
X110228743Y-95249585D01*
X110260767Y-95251445D01*
X110306568Y-95256114D01*
X110324326Y-95258321D01*
X110367943Y-95261735D01*
X110397255Y-95254320D01*
X110426320Y-95231427D01*
X110436812Y-95221127D01*
X110482743Y-95175196D01*
X110482743Y-94688602D01*
X110445774Y-94671758D01*
X110413941Y-94659282D01*
X110395317Y-94654914D01*
X110390542Y-94668718D01*
X110386079Y-94707286D01*
X110382225Y-94766356D01*
X110379278Y-94841663D01*
X110377857Y-94905286D01*
X110373886Y-95155657D01*
X110339241Y-95160556D01*
X110307732Y-95157131D01*
X110292292Y-95146041D01*
X110287977Y-95125308D01*
X110284292Y-95081145D01*
X110281531Y-95019146D01*
X110279988Y-94944909D01*
X110279765Y-94906706D01*
X110279543Y-94686783D01*
X110233834Y-94670849D01*
X110201482Y-94660015D01*
X110183885Y-94654962D01*
X110183377Y-94654914D01*
X110181612Y-94668648D01*
X110179671Y-94706730D01*
X110177718Y-94764482D01*
X110175916Y-94837227D01*
X110174657Y-94905286D01*
X110170686Y-95155657D01*
X110083600Y-95155657D01*
X110079604Y-94927240D01*
X110075608Y-94698822D01*
X110033153Y-94676868D01*
X110001808Y-94661793D01*
X109983256Y-94654951D01*
X109982721Y-94654914D01*
X109980167Y-94668663D01*
G36*
X110569883Y-94775358D02*
G01*
X110570067Y-94883837D01*
X110570781Y-94967287D01*
X110572325Y-95029704D01*
X110574999Y-95075085D01*
X110579106Y-95107429D01*
X110584945Y-95130733D01*
X110592818Y-95148995D01*
X110598779Y-95159418D01*
X110648145Y-95215945D01*
X110710736Y-95251377D01*
X110779987Y-95264090D01*
X110849332Y-95252463D01*
X110890625Y-95231568D01*
X110933975Y-95195422D01*
X110963519Y-95151276D01*
X110981345Y-95093462D01*
X110989537Y-95016313D01*
X110990698Y-94959714D01*
X110990542Y-94955647D01*
X110889143Y-94955647D01*
X110888524Y-95020550D01*
X110885686Y-95063514D01*
X110879160Y-95091622D01*
X110867477Y-95111953D01*
X110853517Y-95127288D01*
X110806635Y-95156890D01*
X110756299Y-95159419D01*
X110708724Y-95134705D01*
X110705021Y-95131356D01*
X110689217Y-95113935D01*
X110679307Y-95093209D01*
X110673942Y-95062362D01*
X110671772Y-95014577D01*
X110671429Y-94961748D01*
X110672173Y-94895381D01*
X110675252Y-94851106D01*
X110681939Y-94822009D01*
X110693504Y-94801173D01*
X110702987Y-94790107D01*
X110747040Y-94762198D01*
X110797776Y-94758843D01*
X110846204Y-94780159D01*
X110855550Y-94788073D01*
X110871460Y-94805647D01*
X110881390Y-94826587D01*
X110886722Y-94857782D01*
X110888837Y-94906122D01*
X110889143Y-94955647D01*
X110990542Y-94955647D01*
X110987190Y-94868568D01*
X110975274Y-94800086D01*
X110952865Y-94748600D01*
X110917876Y-94708443D01*
X110890625Y-94687861D01*
X110841093Y-94665625D01*
X110783684Y-94655304D01*
X110730318Y-94658067D01*
X110700457Y-94669212D01*
X110688739Y-94672383D01*
X110680963Y-94660557D01*
X110675535Y-94628866D01*
X110671429Y-94580593D01*
X110666933Y-94526829D01*
X110660687Y-94494482D01*
X110649324Y-94475985D01*
X110629472Y-94463770D01*
X110617000Y-94458362D01*
X110569829Y-94438601D01*
X110569883Y-94775358D01*
G37*
X110569883Y-94775358D02*
X110570067Y-94883837D01*
X110570781Y-94967287D01*
X110572325Y-95029704D01*
X110574999Y-95075085D01*
X110579106Y-95107429D01*
X110584945Y-95130733D01*
X110592818Y-95148995D01*
X110598779Y-95159418D01*
X110648145Y-95215945D01*
X110710736Y-95251377D01*
X110779987Y-95264090D01*
X110849332Y-95252463D01*
X110890625Y-95231568D01*
X110933975Y-95195422D01*
X110963519Y-95151276D01*
X110981345Y-95093462D01*
X110989537Y-95016313D01*
X110990698Y-94959714D01*
X110990542Y-94955647D01*
X110889143Y-94955647D01*
X110888524Y-95020550D01*
X110885686Y-95063514D01*
X110879160Y-95091622D01*
X110867477Y-95111953D01*
X110853517Y-95127288D01*
X110806635Y-95156890D01*
X110756299Y-95159419D01*
X110708724Y-95134705D01*
X110705021Y-95131356D01*
X110689217Y-95113935D01*
X110679307Y-95093209D01*
X110673942Y-95062362D01*
X110671772Y-95014577D01*
X110671429Y-94961748D01*
X110672173Y-94895381D01*
X110675252Y-94851106D01*
X110681939Y-94822009D01*
X110693504Y-94801173D01*
X110702987Y-94790107D01*
X110747040Y-94762198D01*
X110797776Y-94758843D01*
X110846204Y-94780159D01*
X110855550Y-94788073D01*
X110871460Y-94805647D01*
X110881390Y-94826587D01*
X110886722Y-94857782D01*
X110888837Y-94906122D01*
X110889143Y-94955647D01*
X110990542Y-94955647D01*
X110987190Y-94868568D01*
X110975274Y-94800086D01*
X110952865Y-94748600D01*
X110917876Y-94708443D01*
X110890625Y-94687861D01*
X110841093Y-94665625D01*
X110783684Y-94655304D01*
X110730318Y-94658067D01*
X110700457Y-94669212D01*
X110688739Y-94672383D01*
X110680963Y-94660557D01*
X110675535Y-94628866D01*
X110671429Y-94580593D01*
X110666933Y-94526829D01*
X110660687Y-94494482D01*
X110649324Y-94475985D01*
X110629472Y-94463770D01*
X110617000Y-94458362D01*
X110569829Y-94438601D01*
X110569883Y-94775358D01*
G36*
X111230074Y-94659755D02*
G01*
X111164142Y-94684084D01*
X111110727Y-94727117D01*
X111089836Y-94757409D01*
X111067061Y-94812994D01*
X111067534Y-94853186D01*
X111091438Y-94880217D01*
X111100283Y-94884813D01*
X111138470Y-94899144D01*
X111157972Y-94895472D01*
X111164578Y-94871407D01*
X111164914Y-94858114D01*
X111177008Y-94809210D01*
X111208529Y-94774999D01*
X111252341Y-94758476D01*
X111301305Y-94762634D01*
X111341106Y-94784227D01*
X111354550Y-94796544D01*
X111364079Y-94811487D01*
X111370515Y-94834075D01*
X111374683Y-94869328D01*
X111377403Y-94922266D01*
X111379498Y-94997907D01*
X111380040Y-95021857D01*
X111382019Y-95103790D01*
X111384269Y-95161455D01*
X111387643Y-95199608D01*
X111392994Y-95223004D01*
X111401176Y-95236398D01*
X111413041Y-95244545D01*
X111420638Y-95248144D01*
X111452898Y-95260452D01*
X111471889Y-95264514D01*
X111478164Y-95250948D01*
X111481994Y-95209934D01*
X111483400Y-95140999D01*
X111482402Y-95043669D01*
X111482092Y-95028657D01*
X111479899Y-94939859D01*
X111477307Y-94875019D01*
X111473618Y-94829067D01*
X111468136Y-94796935D01*
X111460165Y-94773553D01*
X111449007Y-94753852D01*
X111443170Y-94745410D01*
X111409704Y-94708057D01*
X111372273Y-94679003D01*
X111367691Y-94676467D01*
X111300574Y-94656443D01*
X111230074Y-94659755D01*
G37*
X111230074Y-94659755D02*
X111164142Y-94684084D01*
X111110727Y-94727117D01*
X111089836Y-94757409D01*
X111067061Y-94812994D01*
X111067534Y-94853186D01*
X111091438Y-94880217D01*
X111100283Y-94884813D01*
X111138470Y-94899144D01*
X111157972Y-94895472D01*
X111164578Y-94871407D01*
X111164914Y-94858114D01*
X111177008Y-94809210D01*
X111208529Y-94774999D01*
X111252341Y-94758476D01*
X111301305Y-94762634D01*
X111341106Y-94784227D01*
X111354550Y-94796544D01*
X111364079Y-94811487D01*
X111370515Y-94834075D01*
X111374683Y-94869328D01*
X111377403Y-94922266D01*
X111379498Y-94997907D01*
X111380040Y-95021857D01*
X111382019Y-95103790D01*
X111384269Y-95161455D01*
X111387643Y-95199608D01*
X111392994Y-95223004D01*
X111401176Y-95236398D01*
X111413041Y-95244545D01*
X111420638Y-95248144D01*
X111452898Y-95260452D01*
X111471889Y-95264514D01*
X111478164Y-95250948D01*
X111481994Y-95209934D01*
X111483400Y-95140999D01*
X111482402Y-95043669D01*
X111482092Y-95028657D01*
X111479899Y-94939859D01*
X111477307Y-94875019D01*
X111473618Y-94829067D01*
X111468136Y-94796935D01*
X111460165Y-94773553D01*
X111449007Y-94753852D01*
X111443170Y-94745410D01*
X111409704Y-94708057D01*
X111372273Y-94679003D01*
X111367691Y-94676467D01*
X111300574Y-94656443D01*
X111230074Y-94659755D01*
G36*
X111720256Y-94660968D02*
G01*
X111663384Y-94682087D01*
X111662733Y-94682493D01*
X111627560Y-94708380D01*
X111601593Y-94738633D01*
X111583330Y-94778058D01*
X111571268Y-94831462D01*
X111563904Y-94903651D01*
X111559736Y-94999432D01*
X111559371Y-95013078D01*
X111554124Y-95218842D01*
X111598284Y-95241678D01*
X111630237Y-95257110D01*
X111649530Y-95264423D01*
X111650422Y-95264514D01*
X111653761Y-95251022D01*
X111656413Y-95214626D01*
X111658044Y-95161452D01*
X111658400Y-95118393D01*
X111658408Y-95048641D01*
X111661597Y-95004837D01*
X111672712Y-94983944D01*
X111696499Y-94982925D01*
X111737704Y-94998741D01*
X111799914Y-95027815D01*
X111845659Y-95051963D01*
X111869187Y-95072913D01*
X111876104Y-95095747D01*
X111876114Y-95096877D01*
X111864701Y-95136212D01*
X111830908Y-95157462D01*
X111779191Y-95160539D01*
X111741939Y-95160006D01*
X111722297Y-95170735D01*
X111710048Y-95196505D01*
X111702998Y-95229337D01*
X111713158Y-95247966D01*
X111716983Y-95250632D01*
X111752999Y-95261340D01*
X111803434Y-95262856D01*
X111855374Y-95255759D01*
X111892178Y-95242788D01*
X111943062Y-95199585D01*
X111971986Y-95139446D01*
X111977714Y-95092462D01*
X111973343Y-95050082D01*
X111957525Y-95015488D01*
X111926203Y-94984763D01*
X111875322Y-94953990D01*
X111800824Y-94919252D01*
X111796286Y-94917288D01*
X111729179Y-94886287D01*
X111687768Y-94860862D01*
X111670019Y-94838014D01*
X111673893Y-94814745D01*
X111697357Y-94788056D01*
X111704373Y-94781914D01*
X111751370Y-94758100D01*
X111800067Y-94759103D01*
X111842478Y-94782451D01*
X111870616Y-94825675D01*
X111873231Y-94834160D01*
X111898692Y-94875308D01*
X111930999Y-94895128D01*
X111977714Y-94914770D01*
X111977714Y-94863950D01*
X111963504Y-94790082D01*
X111921325Y-94722327D01*
X111899376Y-94699661D01*
X111849483Y-94670569D01*
X111786033Y-94657400D01*
X111720256Y-94660968D01*
G37*
X111720256Y-94660968D02*
X111663384Y-94682087D01*
X111662733Y-94682493D01*
X111627560Y-94708380D01*
X111601593Y-94738633D01*
X111583330Y-94778058D01*
X111571268Y-94831462D01*
X111563904Y-94903651D01*
X111559736Y-94999432D01*
X111559371Y-95013078D01*
X111554124Y-95218842D01*
X111598284Y-95241678D01*
X111630237Y-95257110D01*
X111649530Y-95264423D01*
X111650422Y-95264514D01*
X111653761Y-95251022D01*
X111656413Y-95214626D01*
X111658044Y-95161452D01*
X111658400Y-95118393D01*
X111658408Y-95048641D01*
X111661597Y-95004837D01*
X111672712Y-94983944D01*
X111696499Y-94982925D01*
X111737704Y-94998741D01*
X111799914Y-95027815D01*
X111845659Y-95051963D01*
X111869187Y-95072913D01*
X111876104Y-95095747D01*
X111876114Y-95096877D01*
X111864701Y-95136212D01*
X111830908Y-95157462D01*
X111779191Y-95160539D01*
X111741939Y-95160006D01*
X111722297Y-95170735D01*
X111710048Y-95196505D01*
X111702998Y-95229337D01*
X111713158Y-95247966D01*
X111716983Y-95250632D01*
X111752999Y-95261340D01*
X111803434Y-95262856D01*
X111855374Y-95255759D01*
X111892178Y-95242788D01*
X111943062Y-95199585D01*
X111971986Y-95139446D01*
X111977714Y-95092462D01*
X111973343Y-95050082D01*
X111957525Y-95015488D01*
X111926203Y-94984763D01*
X111875322Y-94953990D01*
X111800824Y-94919252D01*
X111796286Y-94917288D01*
X111729179Y-94886287D01*
X111687768Y-94860862D01*
X111670019Y-94838014D01*
X111673893Y-94814745D01*
X111697357Y-94788056D01*
X111704373Y-94781914D01*
X111751370Y-94758100D01*
X111800067Y-94759103D01*
X111842478Y-94782451D01*
X111870616Y-94825675D01*
X111873231Y-94834160D01*
X111898692Y-94875308D01*
X111930999Y-94895128D01*
X111977714Y-94914770D01*
X111977714Y-94863950D01*
X111963504Y-94790082D01*
X111921325Y-94722327D01*
X111899376Y-94699661D01*
X111849483Y-94670569D01*
X111786033Y-94657400D01*
X111720256Y-94660968D01*
G36*
X112384114Y-94561289D02*
G01*
X112379861Y-94620613D01*
X112374975Y-94655572D01*
X112368205Y-94670820D01*
X112358298Y-94671015D01*
X112355086Y-94669195D01*
X112312356Y-94656015D01*
X112256773Y-94656785D01*
X112200263Y-94670333D01*
X112164918Y-94687861D01*
X112128679Y-94715861D01*
X112102187Y-94747549D01*
X112084001Y-94787813D01*
X112072678Y-94841543D01*
X112066778Y-94913626D01*
X112064857Y-95008951D01*
X112064823Y-95027237D01*
X112064800Y-95232646D01*
X112110509Y-95248580D01*
X112142973Y-95259420D01*
X112160785Y-95264468D01*
X112161309Y-95264514D01*
X112163063Y-95250828D01*
X112164556Y-95213076D01*
X112165674Y-95156224D01*
X112166303Y-95085234D01*
X112166400Y-95042073D01*
X112166602Y-94956973D01*
X112167642Y-94895981D01*
X112170169Y-94854177D01*
X112174836Y-94826642D01*
X112182293Y-94808456D01*
X112193189Y-94794698D01*
X112199993Y-94788073D01*
X112246728Y-94761375D01*
X112297728Y-94759375D01*
X112343999Y-94781955D01*
X112352556Y-94790107D01*
X112365107Y-94805436D01*
X112373812Y-94823618D01*
X112379369Y-94849909D01*
X112382474Y-94889562D01*
X112383824Y-94947832D01*
X112384114Y-95028173D01*
X112384114Y-95232646D01*
X112429823Y-95248580D01*
X112462287Y-95259420D01*
X112480099Y-95264468D01*
X112480623Y-95264514D01*
X112481963Y-95250623D01*
X112483172Y-95211439D01*
X112484199Y-95150700D01*
X112484998Y-95072141D01*
X112485519Y-94979498D01*
X112485714Y-94876509D01*
X112485714Y-94479342D01*
X112438543Y-94459444D01*
X112391371Y-94439547D01*
X112384114Y-94561289D01*
G37*
X112384114Y-94561289D02*
X112379861Y-94620613D01*
X112374975Y-94655572D01*
X112368205Y-94670820D01*
X112358298Y-94671015D01*
X112355086Y-94669195D01*
X112312356Y-94656015D01*
X112256773Y-94656785D01*
X112200263Y-94670333D01*
X112164918Y-94687861D01*
X112128679Y-94715861D01*
X112102187Y-94747549D01*
X112084001Y-94787813D01*
X112072678Y-94841543D01*
X112066778Y-94913626D01*
X112064857Y-95008951D01*
X112064823Y-95027237D01*
X112064800Y-95232646D01*
X112110509Y-95248580D01*
X112142973Y-95259420D01*
X112160785Y-95264468D01*
X112161309Y-95264514D01*
X112163063Y-95250828D01*
X112164556Y-95213076D01*
X112165674Y-95156224D01*
X112166303Y-95085234D01*
X112166400Y-95042073D01*
X112166602Y-94956973D01*
X112167642Y-94895981D01*
X112170169Y-94854177D01*
X112174836Y-94826642D01*
X112182293Y-94808456D01*
X112193189Y-94794698D01*
X112199993Y-94788073D01*
X112246728Y-94761375D01*
X112297728Y-94759375D01*
X112343999Y-94781955D01*
X112352556Y-94790107D01*
X112365107Y-94805436D01*
X112373812Y-94823618D01*
X112379369Y-94849909D01*
X112382474Y-94889562D01*
X112383824Y-94947832D01*
X112384114Y-95028173D01*
X112384114Y-95232646D01*
X112429823Y-95248580D01*
X112462287Y-95259420D01*
X112480099Y-95264468D01*
X112480623Y-95264514D01*
X112481963Y-95250623D01*
X112483172Y-95211439D01*
X112484199Y-95150700D01*
X112484998Y-95072141D01*
X112485519Y-94979498D01*
X112485714Y-94876509D01*
X112485714Y-94479342D01*
X112438543Y-94459444D01*
X112391371Y-94439547D01*
X112384114Y-94561289D01*
G36*
X113591697Y-94641239D02*
G01*
X113534473Y-94679735D01*
X113490251Y-94735335D01*
X113463833Y-94806086D01*
X113458490Y-94858162D01*
X113459097Y-94879893D01*
X113464178Y-94896531D01*
X113478145Y-94911437D01*
X113505411Y-94927973D01*
X113550388Y-94949498D01*
X113617489Y-94979374D01*
X113617829Y-94979524D01*
X113679593Y-95007813D01*
X113730241Y-95032933D01*
X113764596Y-95052179D01*
X113777482Y-95062848D01*
X113777486Y-95062934D01*
X113766128Y-95086166D01*
X113739569Y-95111774D01*
X113709077Y-95130221D01*
X113693630Y-95133886D01*
X113651485Y-95121212D01*
X113615192Y-95089471D01*
X113597483Y-95054572D01*
X113580448Y-95028845D01*
X113547078Y-94999546D01*
X113507851Y-94974235D01*
X113473244Y-94960471D01*
X113466007Y-94959714D01*
X113457861Y-94972160D01*
X113457370Y-95003972D01*
X113463357Y-95046866D01*
X113474643Y-95092558D01*
X113490050Y-95132761D01*
X113490829Y-95134322D01*
X113537196Y-95199062D01*
X113597289Y-95243097D01*
X113665535Y-95264711D01*
X113736362Y-95262185D01*
X113804196Y-95233804D01*
X113807212Y-95231808D01*
X113860573Y-95183448D01*
X113895660Y-95120352D01*
X113915078Y-95037387D01*
X113917684Y-95014078D01*
X113922299Y-94904055D01*
X113916767Y-94852748D01*
X113777486Y-94852748D01*
X113775676Y-94884753D01*
X113765778Y-94894093D01*
X113741102Y-94887105D01*
X113702205Y-94870587D01*
X113658725Y-94849881D01*
X113657644Y-94849333D01*
X113620791Y-94829949D01*
X113606000Y-94817013D01*
X113609647Y-94803451D01*
X113625005Y-94785632D01*
X113664077Y-94759845D01*
X113706154Y-94757950D01*
X113743897Y-94776717D01*
X113769966Y-94812915D01*
X113777486Y-94852748D01*
X113916767Y-94852748D01*
X113912806Y-94816027D01*
X113888450Y-94746212D01*
X113854544Y-94697302D01*
X113793347Y-94647878D01*
X113725937Y-94623359D01*
X113657120Y-94621797D01*
X113591697Y-94641239D01*
G37*
X113591697Y-94641239D02*
X113534473Y-94679735D01*
X113490251Y-94735335D01*
X113463833Y-94806086D01*
X113458490Y-94858162D01*
X113459097Y-94879893D01*
X113464178Y-94896531D01*
X113478145Y-94911437D01*
X113505411Y-94927973D01*
X113550388Y-94949498D01*
X113617489Y-94979374D01*
X113617829Y-94979524D01*
X113679593Y-95007813D01*
X113730241Y-95032933D01*
X113764596Y-95052179D01*
X113777482Y-95062848D01*
X113777486Y-95062934D01*
X113766128Y-95086166D01*
X113739569Y-95111774D01*
X113709077Y-95130221D01*
X113693630Y-95133886D01*
X113651485Y-95121212D01*
X113615192Y-95089471D01*
X113597483Y-95054572D01*
X113580448Y-95028845D01*
X113547078Y-94999546D01*
X113507851Y-94974235D01*
X113473244Y-94960471D01*
X113466007Y-94959714D01*
X113457861Y-94972160D01*
X113457370Y-95003972D01*
X113463357Y-95046866D01*
X113474643Y-95092558D01*
X113490050Y-95132761D01*
X113490829Y-95134322D01*
X113537196Y-95199062D01*
X113597289Y-95243097D01*
X113665535Y-95264711D01*
X113736362Y-95262185D01*
X113804196Y-95233804D01*
X113807212Y-95231808D01*
X113860573Y-95183448D01*
X113895660Y-95120352D01*
X113915078Y-95037387D01*
X113917684Y-95014078D01*
X113922299Y-94904055D01*
X113916767Y-94852748D01*
X113777486Y-94852748D01*
X113775676Y-94884753D01*
X113765778Y-94894093D01*
X113741102Y-94887105D01*
X113702205Y-94870587D01*
X113658725Y-94849881D01*
X113657644Y-94849333D01*
X113620791Y-94829949D01*
X113606000Y-94817013D01*
X113609647Y-94803451D01*
X113625005Y-94785632D01*
X113664077Y-94759845D01*
X113706154Y-94757950D01*
X113743897Y-94776717D01*
X113769966Y-94812915D01*
X113777486Y-94852748D01*
X113916767Y-94852748D01*
X113912806Y-94816027D01*
X113888450Y-94746212D01*
X113854544Y-94697302D01*
X113793347Y-94647878D01*
X113725937Y-94623359D01*
X113657120Y-94621797D01*
X113591697Y-94641239D01*
G36*
X114718885Y-94631962D02*
G01*
X114650855Y-94667733D01*
X114600649Y-94725301D01*
X114582815Y-94762312D01*
X114568937Y-94817882D01*
X114561833Y-94888096D01*
X114561160Y-94964727D01*
X114566573Y-95039552D01*
X114577730Y-95104342D01*
X114594286Y-95150873D01*
X114599374Y-95158887D01*
X114659645Y-95218707D01*
X114731231Y-95254535D01*
X114808908Y-95265020D01*
X114887452Y-95248810D01*
X114909311Y-95239092D01*
X114951878Y-95209143D01*
X114989237Y-95169433D01*
X114992768Y-95164397D01*
X115007119Y-95140124D01*
X115016606Y-95114178D01*
X115022210Y-95080022D01*
X115024914Y-95031119D01*
X115025701Y-94960935D01*
X115025714Y-94945200D01*
X115025678Y-94940192D01*
X114880571Y-94940192D01*
X114879727Y-95006430D01*
X114876404Y-95050386D01*
X114869417Y-95078779D01*
X114857584Y-95098325D01*
X114851543Y-95104857D01*
X114816814Y-95129680D01*
X114783097Y-95128548D01*
X114749005Y-95107016D01*
X114728671Y-95084029D01*
X114716629Y-95050478D01*
X114709866Y-94997569D01*
X114709402Y-94991399D01*
X114708248Y-94895513D01*
X114720312Y-94824299D01*
X114745430Y-94778194D01*
X114783440Y-94757635D01*
X114797008Y-94756514D01*
X114832636Y-94762152D01*
X114857006Y-94781686D01*
X114871907Y-94819042D01*
X114879125Y-94878150D01*
X114880571Y-94940192D01*
X115025678Y-94940192D01*
X115025174Y-94870413D01*
X115022904Y-94818159D01*
X115017932Y-94781949D01*
X115009287Y-94755299D01*
X114995995Y-94731722D01*
X114993057Y-94727338D01*
X114943687Y-94668249D01*
X114889891Y-94633947D01*
X114824398Y-94620331D01*
X114802158Y-94619665D01*
X114718885Y-94631962D01*
G37*
X114718885Y-94631962D02*
X114650855Y-94667733D01*
X114600649Y-94725301D01*
X114582815Y-94762312D01*
X114568937Y-94817882D01*
X114561833Y-94888096D01*
X114561160Y-94964727D01*
X114566573Y-95039552D01*
X114577730Y-95104342D01*
X114594286Y-95150873D01*
X114599374Y-95158887D01*
X114659645Y-95218707D01*
X114731231Y-95254535D01*
X114808908Y-95265020D01*
X114887452Y-95248810D01*
X114909311Y-95239092D01*
X114951878Y-95209143D01*
X114989237Y-95169433D01*
X114992768Y-95164397D01*
X115007119Y-95140124D01*
X115016606Y-95114178D01*
X115022210Y-95080022D01*
X115024914Y-95031119D01*
X115025701Y-94960935D01*
X115025714Y-94945200D01*
X115025678Y-94940192D01*
X114880571Y-94940192D01*
X114879727Y-95006430D01*
X114876404Y-95050386D01*
X114869417Y-95078779D01*
X114857584Y-95098325D01*
X114851543Y-95104857D01*
X114816814Y-95129680D01*
X114783097Y-95128548D01*
X114749005Y-95107016D01*
X114728671Y-95084029D01*
X114716629Y-95050478D01*
X114709866Y-94997569D01*
X114709402Y-94991399D01*
X114708248Y-94895513D01*
X114720312Y-94824299D01*
X114745430Y-94778194D01*
X114783440Y-94757635D01*
X114797008Y-94756514D01*
X114832636Y-94762152D01*
X114857006Y-94781686D01*
X114871907Y-94819042D01*
X114879125Y-94878150D01*
X114880571Y-94940192D01*
X115025678Y-94940192D01*
X115025174Y-94870413D01*
X115022904Y-94818159D01*
X115017932Y-94781949D01*
X115009287Y-94755299D01*
X114995995Y-94731722D01*
X114993057Y-94727338D01*
X114943687Y-94668249D01*
X114889891Y-94633947D01*
X114824398Y-94620331D01*
X114802158Y-94619665D01*
X114718885Y-94631962D01*
G36*
X113043907Y-94637780D02*
G01*
X112997328Y-94664723D01*
X112964943Y-94691466D01*
X112941258Y-94719484D01*
X112924941Y-94753748D01*
X112914661Y-94799227D01*
X112909086Y-94860892D01*
X112906884Y-94943711D01*
X112906629Y-95003246D01*
X112906629Y-95222391D01*
X112968314Y-95250044D01*
X113030000Y-95277697D01*
X113037257Y-95037670D01*
X113040256Y-94948028D01*
X113043402Y-94882962D01*
X113047299Y-94838026D01*
X113052553Y-94808770D01*
X113059769Y-94790748D01*
X113069550Y-94779511D01*
X113072688Y-94777079D01*
X113120239Y-94758083D01*
X113168303Y-94765600D01*
X113196914Y-94785543D01*
X113208553Y-94799675D01*
X113216609Y-94818220D01*
X113221729Y-94846334D01*
X113224559Y-94889173D01*
X113225744Y-94951895D01*
X113225943Y-95017261D01*
X113225982Y-95099268D01*
X113227386Y-95157316D01*
X113232086Y-95196465D01*
X113242013Y-95221780D01*
X113259097Y-95238323D01*
X113285268Y-95251156D01*
X113320225Y-95264491D01*
X113358404Y-95279007D01*
X113353859Y-95021389D01*
X113352029Y-94928519D01*
X113349888Y-94859889D01*
X113346819Y-94810711D01*
X113342206Y-94776198D01*
X113335432Y-94751562D01*
X113325881Y-94732016D01*
X113314366Y-94714770D01*
X113258810Y-94659680D01*
X113191020Y-94627822D01*
X113117287Y-94620191D01*
X113043907Y-94637780D01*
G37*
X113043907Y-94637780D02*
X112997328Y-94664723D01*
X112964943Y-94691466D01*
X112941258Y-94719484D01*
X112924941Y-94753748D01*
X112914661Y-94799227D01*
X112909086Y-94860892D01*
X112906884Y-94943711D01*
X112906629Y-95003246D01*
X112906629Y-95222391D01*
X112968314Y-95250044D01*
X113030000Y-95277697D01*
X113037257Y-95037670D01*
X113040256Y-94948028D01*
X113043402Y-94882962D01*
X113047299Y-94838026D01*
X113052553Y-94808770D01*
X113059769Y-94790748D01*
X113069550Y-94779511D01*
X113072688Y-94777079D01*
X113120239Y-94758083D01*
X113168303Y-94765600D01*
X113196914Y-94785543D01*
X113208553Y-94799675D01*
X113216609Y-94818220D01*
X113221729Y-94846334D01*
X113224559Y-94889173D01*
X113225744Y-94951895D01*
X113225943Y-95017261D01*
X113225982Y-95099268D01*
X113227386Y-95157316D01*
X113232086Y-95196465D01*
X113242013Y-95221780D01*
X113259097Y-95238323D01*
X113285268Y-95251156D01*
X113320225Y-95264491D01*
X113358404Y-95279007D01*
X113353859Y-95021389D01*
X113352029Y-94928519D01*
X113349888Y-94859889D01*
X113346819Y-94810711D01*
X113342206Y-94776198D01*
X113335432Y-94751562D01*
X113325881Y-94732016D01*
X113314366Y-94714770D01*
X113258810Y-94659680D01*
X113191020Y-94627822D01*
X113117287Y-94620191D01*
X113043907Y-94637780D01*
G36*
X114160256Y-94629918D02*
G01*
X114104799Y-94657568D01*
X114055852Y-94708480D01*
X114042371Y-94727338D01*
X114027686Y-94752015D01*
X114018158Y-94778816D01*
X114012707Y-94814587D01*
X114010253Y-94866169D01*
X114009714Y-94934267D01*
X114012148Y-95027588D01*
X114020606Y-95097657D01*
X114036826Y-95149931D01*
X114062546Y-95189869D01*
X114099503Y-95222929D01*
X114102218Y-95224886D01*
X114138640Y-95244908D01*
X114182498Y-95254815D01*
X114238276Y-95257257D01*
X114328952Y-95257257D01*
X114328990Y-95345283D01*
X114329834Y-95394308D01*
X114334976Y-95423065D01*
X114348413Y-95440311D01*
X114374142Y-95454808D01*
X114380321Y-95457769D01*
X114409236Y-95471648D01*
X114431624Y-95480414D01*
X114448271Y-95481171D01*
X114459964Y-95471023D01*
X114467490Y-95447073D01*
X114471634Y-95406426D01*
X114473185Y-95346186D01*
X114472929Y-95263455D01*
X114471651Y-95155339D01*
X114471252Y-95123000D01*
X114469815Y-95011524D01*
X114468528Y-94938603D01*
X114329029Y-94938603D01*
X114328245Y-95000499D01*
X114324760Y-95040997D01*
X114316876Y-95067708D01*
X114302895Y-95088244D01*
X114293403Y-95098260D01*
X114254596Y-95127567D01*
X114220237Y-95129952D01*
X114184784Y-95105750D01*
X114183886Y-95104857D01*
X114169461Y-95086153D01*
X114160687Y-95060732D01*
X114156261Y-95021584D01*
X114154882Y-94961697D01*
X114154857Y-94948430D01*
X114158188Y-94865901D01*
X114169031Y-94808691D01*
X114188660Y-94773766D01*
X114218350Y-94758094D01*
X114235509Y-94756514D01*
X114276234Y-94763926D01*
X114304168Y-94788330D01*
X114320983Y-94832980D01*
X114328350Y-94901130D01*
X114329029Y-94938603D01*
X114468528Y-94938603D01*
X114468292Y-94925245D01*
X114466323Y-94860333D01*
X114463550Y-94812958D01*
X114459612Y-94779290D01*
X114454151Y-94755498D01*
X114446808Y-94737753D01*
X114437223Y-94722224D01*
X114433113Y-94716381D01*
X114378595Y-94661185D01*
X114309664Y-94629890D01*
X114229928Y-94621165D01*
X114160256Y-94629918D01*
G37*
X114160256Y-94629918D02*
X114104799Y-94657568D01*
X114055852Y-94708480D01*
X114042371Y-94727338D01*
X114027686Y-94752015D01*
X114018158Y-94778816D01*
X114012707Y-94814587D01*
X114010253Y-94866169D01*
X114009714Y-94934267D01*
X114012148Y-95027588D01*
X114020606Y-95097657D01*
X114036826Y-95149931D01*
X114062546Y-95189869D01*
X114099503Y-95222929D01*
X114102218Y-95224886D01*
X114138640Y-95244908D01*
X114182498Y-95254815D01*
X114238276Y-95257257D01*
X114328952Y-95257257D01*
X114328990Y-95345283D01*
X114329834Y-95394308D01*
X114334976Y-95423065D01*
X114348413Y-95440311D01*
X114374142Y-95454808D01*
X114380321Y-95457769D01*
X114409236Y-95471648D01*
X114431624Y-95480414D01*
X114448271Y-95481171D01*
X114459964Y-95471023D01*
X114467490Y-95447073D01*
X114471634Y-95406426D01*
X114473185Y-95346186D01*
X114472929Y-95263455D01*
X114471651Y-95155339D01*
X114471252Y-95123000D01*
X114469815Y-95011524D01*
X114468528Y-94938603D01*
X114329029Y-94938603D01*
X114328245Y-95000499D01*
X114324760Y-95040997D01*
X114316876Y-95067708D01*
X114302895Y-95088244D01*
X114293403Y-95098260D01*
X114254596Y-95127567D01*
X114220237Y-95129952D01*
X114184784Y-95105750D01*
X114183886Y-95104857D01*
X114169461Y-95086153D01*
X114160687Y-95060732D01*
X114156261Y-95021584D01*
X114154882Y-94961697D01*
X114154857Y-94948430D01*
X114158188Y-94865901D01*
X114169031Y-94808691D01*
X114188660Y-94773766D01*
X114218350Y-94758094D01*
X114235509Y-94756514D01*
X114276234Y-94763926D01*
X114304168Y-94788330D01*
X114320983Y-94832980D01*
X114328350Y-94901130D01*
X114329029Y-94938603D01*
X114468528Y-94938603D01*
X114468292Y-94925245D01*
X114466323Y-94860333D01*
X114463550Y-94812958D01*
X114459612Y-94779290D01*
X114454151Y-94755498D01*
X114446808Y-94737753D01*
X114437223Y-94722224D01*
X114433113Y-94716381D01*
X114378595Y-94661185D01*
X114309664Y-94629890D01*
X114229928Y-94621165D01*
X114160256Y-94629918D01*
M02*
