G04 #@! TF.GenerationSoftware,KiCad,Pcbnew,(5.1.6)-1*
G04 #@! TF.CreationDate,2020-08-07T18:30:50-03:00*
G04 #@! TF.ProjectId,av-mc1000,61762d6d-6331-4303-9030-2e6b69636164,rev?*
G04 #@! TF.SameCoordinates,Original*
G04 #@! TF.FileFunction,Copper,L2,Bot*
G04 #@! TF.FilePolarity,Positive*
%FSLAX46Y46*%
G04 Gerber Fmt 4.6, Leading zero omitted, Abs format (unit mm)*
G04 Created by KiCad (PCBNEW (5.1.6)-1) date 2020-08-07 18:30:50*
%MOMM*%
%LPD*%
G01*
G04 APERTURE LIST*
G04 #@! TA.AperFunction,ComponentPad*
%ADD10O,1.700000X1.700000*%
G04 #@! TD*
G04 #@! TA.AperFunction,ComponentPad*
%ADD11R,1.700000X1.700000*%
G04 #@! TD*
G04 #@! TA.AperFunction,ComponentPad*
%ADD12C,1.600000*%
G04 #@! TD*
G04 #@! TA.AperFunction,ComponentPad*
%ADD13R,1.600000X1.600000*%
G04 #@! TD*
G04 #@! TA.AperFunction,ComponentPad*
%ADD14C,2.000000*%
G04 #@! TD*
G04 #@! TA.AperFunction,ComponentPad*
%ADD15R,2.200000X2.200000*%
G04 #@! TD*
G04 #@! TA.AperFunction,ComponentPad*
%ADD16O,2.200000X2.200000*%
G04 #@! TD*
G04 #@! TA.AperFunction,ComponentPad*
%ADD17R,1.500000X1.050000*%
G04 #@! TD*
G04 #@! TA.AperFunction,ComponentPad*
%ADD18O,1.500000X1.050000*%
G04 #@! TD*
G04 #@! TA.AperFunction,ComponentPad*
%ADD19O,1.600000X1.600000*%
G04 #@! TD*
G04 #@! TA.AperFunction,ComponentPad*
%ADD20C,1.500000*%
G04 #@! TD*
G04 #@! TA.AperFunction,ViaPad*
%ADD21C,0.800000*%
G04 #@! TD*
G04 #@! TA.AperFunction,Conductor*
%ADD22C,0.250000*%
G04 #@! TD*
G04 #@! TA.AperFunction,Conductor*
%ADD23C,0.100000*%
G04 #@! TD*
G04 APERTURE END LIST*
D10*
X142316000Y-111455000D03*
X142316000Y-108915000D03*
D11*
X142316000Y-106375000D03*
D12*
X103175600Y-97459800D03*
X98175600Y-97459800D03*
X128930000Y-119456000D03*
X128930000Y-114456000D03*
D13*
X121375000Y-119075000D03*
D12*
X123875000Y-119075000D03*
D14*
X128571000Y-95732600D03*
X123571000Y-95732600D03*
D15*
X108687000Y-98602800D03*
D16*
X116307000Y-98602800D03*
D11*
X91338400Y-118049000D03*
D10*
X91338400Y-115509000D03*
X91338400Y-112969000D03*
X91338400Y-110429000D03*
X91338400Y-107889000D03*
X91338400Y-105349000D03*
X91338400Y-102809000D03*
X91338400Y-100269000D03*
X91338400Y-97729000D03*
D17*
X135433000Y-110185000D03*
D18*
X135433000Y-107645000D03*
X135433000Y-108915000D03*
X135433000Y-102565000D03*
X135433000Y-101295000D03*
D17*
X135433000Y-103835000D03*
D19*
X116307000Y-103548000D03*
D12*
X108687000Y-103548000D03*
X116307000Y-108394000D03*
D19*
X108687000Y-108394000D03*
X135073000Y-121387000D03*
D12*
X135073000Y-113767000D03*
X108687000Y-113239000D03*
D19*
X116307000Y-113239000D03*
D12*
X108687000Y-118085000D03*
D19*
X116307000Y-118085000D03*
X143281000Y-96723200D03*
D12*
X135661000Y-96723200D03*
D19*
X96866000Y-93116400D03*
D12*
X104486000Y-93116400D03*
X128930000Y-110973000D03*
D19*
X128930000Y-103353000D03*
D13*
X96875600Y-101854000D03*
D19*
X104495600Y-117094000D03*
X96875600Y-104394000D03*
X104495600Y-114554000D03*
X96875600Y-106934000D03*
X104495600Y-112014000D03*
X96875600Y-109474000D03*
X104495600Y-109474000D03*
X96875600Y-112014000D03*
X104495600Y-106934000D03*
X96875600Y-114554000D03*
X104495600Y-104394000D03*
X96875600Y-117094000D03*
X104495600Y-101854000D03*
D20*
X122580000Y-105689000D03*
X122580000Y-110569000D03*
D21*
X117703600Y-90055700D03*
X145542000Y-90055700D03*
X89865200Y-90055700D03*
X89865200Y-125742700D03*
X117703600Y-125742700D03*
X145542000Y-125742700D03*
D22*
X104486000Y-93116400D02*
X103175600Y-94426800D01*
X103175600Y-94426800D02*
X103175600Y-97459800D01*
X99339400Y-112801400D02*
X99339400Y-98623600D01*
X104495600Y-117094000D02*
X103632000Y-117094000D01*
X99339400Y-98623600D02*
X98175600Y-97459800D01*
X103632000Y-117094000D02*
X99339400Y-112801400D01*
X128930000Y-110973000D02*
X128930000Y-114456000D01*
X122580000Y-105689000D02*
X123571000Y-104698000D01*
X123571000Y-104698000D02*
X123571000Y-95732600D01*
X108687000Y-100939200D02*
X108687000Y-98602800D01*
X104495600Y-104394000D02*
X105232200Y-104394000D01*
X105232200Y-104394000D02*
X108687000Y-100939200D01*
X116307000Y-98602800D02*
X114881700Y-98602800D01*
X108687000Y-103548000D02*
X109936500Y-103548000D01*
X109936500Y-103548000D02*
X114881700Y-98602800D01*
X94132400Y-103505000D02*
X94132400Y-110175000D01*
X96875600Y-101854000D02*
X95783400Y-101854000D01*
X94132400Y-110175000D02*
X91338400Y-112969000D01*
X95783400Y-101854000D02*
X94132400Y-103505000D01*
X143281000Y-96723200D02*
X143281000Y-97848500D01*
X143281000Y-97848500D02*
X142316000Y-98813500D01*
X142316000Y-98813500D02*
X142316000Y-106375000D01*
X135073000Y-110185000D02*
X134357700Y-110185000D01*
X135433000Y-110185000D02*
X135073000Y-110185000D01*
X135073000Y-113767000D02*
X135073000Y-110185000D01*
X135433000Y-102565000D02*
X134357700Y-102565000D01*
X134357700Y-102565000D02*
X134357700Y-110185000D01*
X116307000Y-108394000D02*
X116307000Y-103548000D01*
X114427001Y-110273999D02*
X116307000Y-108394000D01*
X105295599Y-110273999D02*
X114427001Y-110273999D01*
X104495600Y-109474000D02*
X105295599Y-110273999D01*
X108687000Y-108394000D02*
X107561700Y-108394000D01*
X104495600Y-106934000D02*
X106101700Y-106934000D01*
X106101700Y-106934000D02*
X107561700Y-108394000D01*
X116307000Y-113239000D02*
X121486500Y-113239000D01*
X121486500Y-113239000D02*
X133430500Y-101295000D01*
X133430500Y-101295000D02*
X135433000Y-101295000D01*
X108687000Y-118085000D02*
X113533000Y-113239000D01*
X113533000Y-113239000D02*
X116307000Y-113239000D01*
X96866000Y-94241700D02*
X96866000Y-93116400D01*
X100112300Y-108595900D02*
X100112300Y-97488000D01*
X104495600Y-112014000D02*
X103530400Y-112014000D01*
X100112300Y-97488000D02*
X96866000Y-94241700D01*
X103530400Y-112014000D02*
X100112300Y-108595900D01*
D23*
G36*
X146510001Y-126723400D02*
G01*
X88897200Y-126723400D01*
X88897200Y-117199000D01*
X90237191Y-117199000D01*
X90237191Y-118899000D01*
X90242018Y-118948008D01*
X90256313Y-118995134D01*
X90279527Y-119038564D01*
X90310768Y-119076632D01*
X90348836Y-119107873D01*
X90392266Y-119131087D01*
X90439392Y-119145382D01*
X90488400Y-119150209D01*
X92188400Y-119150209D01*
X92237408Y-119145382D01*
X92284534Y-119131087D01*
X92327964Y-119107873D01*
X92366032Y-119076632D01*
X92397273Y-119038564D01*
X92420487Y-118995134D01*
X92434782Y-118948008D01*
X92439609Y-118899000D01*
X92439609Y-117199000D01*
X92434782Y-117149992D01*
X92420487Y-117102866D01*
X92397273Y-117059436D01*
X92366032Y-117021368D01*
X92328521Y-116990584D01*
X95825600Y-116990584D01*
X95825600Y-117197416D01*
X95865950Y-117400274D01*
X95945102Y-117591362D01*
X96060011Y-117763336D01*
X96206264Y-117909589D01*
X96378238Y-118024498D01*
X96569326Y-118103650D01*
X96772184Y-118144000D01*
X96979016Y-118144000D01*
X97181874Y-118103650D01*
X97372962Y-118024498D01*
X97544936Y-117909589D01*
X97691189Y-117763336D01*
X97806098Y-117591362D01*
X97885250Y-117400274D01*
X97925600Y-117197416D01*
X97925600Y-116990584D01*
X97885250Y-116787726D01*
X97806098Y-116596638D01*
X97691189Y-116424664D01*
X97544936Y-116278411D01*
X97372962Y-116163502D01*
X97181874Y-116084350D01*
X96979016Y-116044000D01*
X96772184Y-116044000D01*
X96569326Y-116084350D01*
X96378238Y-116163502D01*
X96206264Y-116278411D01*
X96060011Y-116424664D01*
X95945102Y-116596638D01*
X95865950Y-116787726D01*
X95825600Y-116990584D01*
X92328521Y-116990584D01*
X92327964Y-116990127D01*
X92284534Y-116966913D01*
X92237408Y-116952618D01*
X92188400Y-116947791D01*
X90488400Y-116947791D01*
X90439392Y-116952618D01*
X90392266Y-116966913D01*
X90348836Y-116990127D01*
X90310768Y-117021368D01*
X90279527Y-117059436D01*
X90256313Y-117102866D01*
X90242018Y-117149992D01*
X90237191Y-117199000D01*
X88897200Y-117199000D01*
X88897200Y-115400659D01*
X90238400Y-115400659D01*
X90238400Y-115617341D01*
X90280673Y-115829858D01*
X90363593Y-116030045D01*
X90483975Y-116210209D01*
X90637191Y-116363425D01*
X90817355Y-116483807D01*
X91017542Y-116566727D01*
X91230059Y-116609000D01*
X91446741Y-116609000D01*
X91659258Y-116566727D01*
X91859445Y-116483807D01*
X92039609Y-116363425D01*
X92192825Y-116210209D01*
X92313207Y-116030045D01*
X92396127Y-115829858D01*
X92438400Y-115617341D01*
X92438400Y-115400659D01*
X92396127Y-115188142D01*
X92313207Y-114987955D01*
X92192825Y-114807791D01*
X92039609Y-114654575D01*
X91859445Y-114534193D01*
X91659258Y-114451273D01*
X91655795Y-114450584D01*
X95825600Y-114450584D01*
X95825600Y-114657416D01*
X95865950Y-114860274D01*
X95945102Y-115051362D01*
X96060011Y-115223336D01*
X96206264Y-115369589D01*
X96378238Y-115484498D01*
X96569326Y-115563650D01*
X96772184Y-115604000D01*
X96979016Y-115604000D01*
X97181874Y-115563650D01*
X97372962Y-115484498D01*
X97544936Y-115369589D01*
X97691189Y-115223336D01*
X97806098Y-115051362D01*
X97885250Y-114860274D01*
X97925600Y-114657416D01*
X97925600Y-114450584D01*
X97885250Y-114247726D01*
X97806098Y-114056638D01*
X97691189Y-113884664D01*
X97544936Y-113738411D01*
X97372962Y-113623502D01*
X97181874Y-113544350D01*
X96979016Y-113504000D01*
X96772184Y-113504000D01*
X96569326Y-113544350D01*
X96378238Y-113623502D01*
X96206264Y-113738411D01*
X96060011Y-113884664D01*
X95945102Y-114056638D01*
X95865950Y-114247726D01*
X95825600Y-114450584D01*
X91655795Y-114450584D01*
X91446741Y-114409000D01*
X91230059Y-114409000D01*
X91017542Y-114451273D01*
X90817355Y-114534193D01*
X90637191Y-114654575D01*
X90483975Y-114807791D01*
X90363593Y-114987955D01*
X90280673Y-115188142D01*
X90238400Y-115400659D01*
X88897200Y-115400659D01*
X88897200Y-112860659D01*
X90238400Y-112860659D01*
X90238400Y-113077341D01*
X90280673Y-113289858D01*
X90363593Y-113490045D01*
X90483975Y-113670209D01*
X90637191Y-113823425D01*
X90817355Y-113943807D01*
X91017542Y-114026727D01*
X91230059Y-114069000D01*
X91446741Y-114069000D01*
X91659258Y-114026727D01*
X91859445Y-113943807D01*
X92039609Y-113823425D01*
X92192825Y-113670209D01*
X92313207Y-113490045D01*
X92396127Y-113289858D01*
X92438400Y-113077341D01*
X92438400Y-112860659D01*
X92396127Y-112648142D01*
X92335633Y-112502096D01*
X92927145Y-111910584D01*
X95825600Y-111910584D01*
X95825600Y-112117416D01*
X95865950Y-112320274D01*
X95945102Y-112511362D01*
X96060011Y-112683336D01*
X96206264Y-112829589D01*
X96378238Y-112944498D01*
X96569326Y-113023650D01*
X96772184Y-113064000D01*
X96979016Y-113064000D01*
X97181874Y-113023650D01*
X97372962Y-112944498D01*
X97544936Y-112829589D01*
X97691189Y-112683336D01*
X97806098Y-112511362D01*
X97885250Y-112320274D01*
X97925600Y-112117416D01*
X97925600Y-111910584D01*
X97885250Y-111707726D01*
X97806098Y-111516638D01*
X97691189Y-111344664D01*
X97544936Y-111198411D01*
X97372962Y-111083502D01*
X97181874Y-111004350D01*
X96979016Y-110964000D01*
X96772184Y-110964000D01*
X96569326Y-111004350D01*
X96378238Y-111083502D01*
X96206264Y-111198411D01*
X96060011Y-111344664D01*
X95945102Y-111516638D01*
X95865950Y-111707726D01*
X95825600Y-111910584D01*
X92927145Y-111910584D01*
X94384539Y-110453191D01*
X94398848Y-110441448D01*
X94429172Y-110404498D01*
X94445710Y-110384347D01*
X94480530Y-110319201D01*
X94480531Y-110319200D01*
X94501974Y-110248513D01*
X94507400Y-110193419D01*
X94507400Y-110193416D01*
X94509214Y-110175000D01*
X94507400Y-110156584D01*
X94507400Y-109370584D01*
X95825600Y-109370584D01*
X95825600Y-109577416D01*
X95865950Y-109780274D01*
X95945102Y-109971362D01*
X96060011Y-110143336D01*
X96206264Y-110289589D01*
X96378238Y-110404498D01*
X96569326Y-110483650D01*
X96772184Y-110524000D01*
X96979016Y-110524000D01*
X97181874Y-110483650D01*
X97372962Y-110404498D01*
X97544936Y-110289589D01*
X97691189Y-110143336D01*
X97806098Y-109971362D01*
X97885250Y-109780274D01*
X97925600Y-109577416D01*
X97925600Y-109370584D01*
X97885250Y-109167726D01*
X97806098Y-108976638D01*
X97691189Y-108804664D01*
X97544936Y-108658411D01*
X97372962Y-108543502D01*
X97181874Y-108464350D01*
X96979016Y-108424000D01*
X96772184Y-108424000D01*
X96569326Y-108464350D01*
X96378238Y-108543502D01*
X96206264Y-108658411D01*
X96060011Y-108804664D01*
X95945102Y-108976638D01*
X95865950Y-109167726D01*
X95825600Y-109370584D01*
X94507400Y-109370584D01*
X94507400Y-106830584D01*
X95825600Y-106830584D01*
X95825600Y-107037416D01*
X95865950Y-107240274D01*
X95945102Y-107431362D01*
X96060011Y-107603336D01*
X96206264Y-107749589D01*
X96378238Y-107864498D01*
X96569326Y-107943650D01*
X96772184Y-107984000D01*
X96979016Y-107984000D01*
X97181874Y-107943650D01*
X97372962Y-107864498D01*
X97544936Y-107749589D01*
X97691189Y-107603336D01*
X97806098Y-107431362D01*
X97885250Y-107240274D01*
X97925600Y-107037416D01*
X97925600Y-106830584D01*
X97885250Y-106627726D01*
X97806098Y-106436638D01*
X97691189Y-106264664D01*
X97544936Y-106118411D01*
X97372962Y-106003502D01*
X97181874Y-105924350D01*
X96979016Y-105884000D01*
X96772184Y-105884000D01*
X96569326Y-105924350D01*
X96378238Y-106003502D01*
X96206264Y-106118411D01*
X96060011Y-106264664D01*
X95945102Y-106436638D01*
X95865950Y-106627726D01*
X95825600Y-106830584D01*
X94507400Y-106830584D01*
X94507400Y-104290584D01*
X95825600Y-104290584D01*
X95825600Y-104497416D01*
X95865950Y-104700274D01*
X95945102Y-104891362D01*
X96060011Y-105063336D01*
X96206264Y-105209589D01*
X96378238Y-105324498D01*
X96569326Y-105403650D01*
X96772184Y-105444000D01*
X96979016Y-105444000D01*
X97181874Y-105403650D01*
X97372962Y-105324498D01*
X97544936Y-105209589D01*
X97691189Y-105063336D01*
X97806098Y-104891362D01*
X97885250Y-104700274D01*
X97925600Y-104497416D01*
X97925600Y-104290584D01*
X97885250Y-104087726D01*
X97806098Y-103896638D01*
X97691189Y-103724664D01*
X97544936Y-103578411D01*
X97372962Y-103463502D01*
X97181874Y-103384350D01*
X96979016Y-103344000D01*
X96772184Y-103344000D01*
X96569326Y-103384350D01*
X96378238Y-103463502D01*
X96206264Y-103578411D01*
X96060011Y-103724664D01*
X95945102Y-103896638D01*
X95865950Y-104087726D01*
X95825600Y-104290584D01*
X94507400Y-104290584D01*
X94507400Y-103660329D01*
X95824391Y-102343339D01*
X95824391Y-102654000D01*
X95829218Y-102703008D01*
X95843513Y-102750134D01*
X95866727Y-102793564D01*
X95897968Y-102831632D01*
X95936036Y-102862873D01*
X95979466Y-102886087D01*
X96026592Y-102900382D01*
X96075600Y-102905209D01*
X97675600Y-102905209D01*
X97724608Y-102900382D01*
X97771734Y-102886087D01*
X97815164Y-102862873D01*
X97853232Y-102831632D01*
X97884473Y-102793564D01*
X97907687Y-102750134D01*
X97921982Y-102703008D01*
X97926809Y-102654000D01*
X97926809Y-101054000D01*
X97921982Y-101004992D01*
X97907687Y-100957866D01*
X97884473Y-100914436D01*
X97853232Y-100876368D01*
X97815164Y-100845127D01*
X97771734Y-100821913D01*
X97724608Y-100807618D01*
X97675600Y-100802791D01*
X96075600Y-100802791D01*
X96026592Y-100807618D01*
X95979466Y-100821913D01*
X95936036Y-100845127D01*
X95897968Y-100876368D01*
X95866727Y-100914436D01*
X95843513Y-100957866D01*
X95829218Y-101004992D01*
X95824391Y-101054000D01*
X95824391Y-101479000D01*
X95801816Y-101479000D01*
X95783400Y-101477186D01*
X95764984Y-101479000D01*
X95764981Y-101479000D01*
X95709887Y-101484426D01*
X95639200Y-101505869D01*
X95618507Y-101516930D01*
X95574053Y-101540690D01*
X95548760Y-101561448D01*
X95516952Y-101587552D01*
X95505209Y-101601861D01*
X93880266Y-103226805D01*
X93865952Y-103238552D01*
X93819091Y-103295654D01*
X93784269Y-103360801D01*
X93762826Y-103431488D01*
X93758591Y-103474488D01*
X93755586Y-103505000D01*
X93757400Y-103523416D01*
X93757401Y-110019669D01*
X91805304Y-111971767D01*
X91659258Y-111911273D01*
X91446741Y-111869000D01*
X91230059Y-111869000D01*
X91017542Y-111911273D01*
X90817355Y-111994193D01*
X90637191Y-112114575D01*
X90483975Y-112267791D01*
X90363593Y-112447955D01*
X90280673Y-112648142D01*
X90238400Y-112860659D01*
X88897200Y-112860659D01*
X88897200Y-107780659D01*
X90238400Y-107780659D01*
X90238400Y-107997341D01*
X90280673Y-108209858D01*
X90363593Y-108410045D01*
X90483975Y-108590209D01*
X90637191Y-108743425D01*
X90817355Y-108863807D01*
X91017542Y-108946727D01*
X91230059Y-108989000D01*
X91446741Y-108989000D01*
X91659258Y-108946727D01*
X91859445Y-108863807D01*
X92039609Y-108743425D01*
X92192825Y-108590209D01*
X92313207Y-108410045D01*
X92396127Y-108209858D01*
X92438400Y-107997341D01*
X92438400Y-107780659D01*
X92396127Y-107568142D01*
X92313207Y-107367955D01*
X92192825Y-107187791D01*
X92039609Y-107034575D01*
X91859445Y-106914193D01*
X91659258Y-106831273D01*
X91446741Y-106789000D01*
X91230059Y-106789000D01*
X91017542Y-106831273D01*
X90817355Y-106914193D01*
X90637191Y-107034575D01*
X90483975Y-107187791D01*
X90363593Y-107367955D01*
X90280673Y-107568142D01*
X90238400Y-107780659D01*
X88897200Y-107780659D01*
X88897200Y-105240659D01*
X90238400Y-105240659D01*
X90238400Y-105457341D01*
X90280673Y-105669858D01*
X90363593Y-105870045D01*
X90483975Y-106050209D01*
X90637191Y-106203425D01*
X90817355Y-106323807D01*
X91017542Y-106406727D01*
X91230059Y-106449000D01*
X91446741Y-106449000D01*
X91659258Y-106406727D01*
X91859445Y-106323807D01*
X92039609Y-106203425D01*
X92192825Y-106050209D01*
X92313207Y-105870045D01*
X92396127Y-105669858D01*
X92438400Y-105457341D01*
X92438400Y-105240659D01*
X92396127Y-105028142D01*
X92313207Y-104827955D01*
X92192825Y-104647791D01*
X92039609Y-104494575D01*
X91859445Y-104374193D01*
X91659258Y-104291273D01*
X91446741Y-104249000D01*
X91230059Y-104249000D01*
X91017542Y-104291273D01*
X90817355Y-104374193D01*
X90637191Y-104494575D01*
X90483975Y-104647791D01*
X90363593Y-104827955D01*
X90280673Y-105028142D01*
X90238400Y-105240659D01*
X88897200Y-105240659D01*
X88897200Y-102700659D01*
X90238400Y-102700659D01*
X90238400Y-102917341D01*
X90280673Y-103129858D01*
X90363593Y-103330045D01*
X90483975Y-103510209D01*
X90637191Y-103663425D01*
X90817355Y-103783807D01*
X91017542Y-103866727D01*
X91230059Y-103909000D01*
X91446741Y-103909000D01*
X91659258Y-103866727D01*
X91859445Y-103783807D01*
X92039609Y-103663425D01*
X92192825Y-103510209D01*
X92313207Y-103330045D01*
X92396127Y-103129858D01*
X92438400Y-102917341D01*
X92438400Y-102700659D01*
X92396127Y-102488142D01*
X92313207Y-102287955D01*
X92192825Y-102107791D01*
X92039609Y-101954575D01*
X91859445Y-101834193D01*
X91659258Y-101751273D01*
X91446741Y-101709000D01*
X91230059Y-101709000D01*
X91017542Y-101751273D01*
X90817355Y-101834193D01*
X90637191Y-101954575D01*
X90483975Y-102107791D01*
X90363593Y-102287955D01*
X90280673Y-102488142D01*
X90238400Y-102700659D01*
X88897200Y-102700659D01*
X88897200Y-100160659D01*
X90238400Y-100160659D01*
X90238400Y-100377341D01*
X90280673Y-100589858D01*
X90363593Y-100790045D01*
X90483975Y-100970209D01*
X90637191Y-101123425D01*
X90817355Y-101243807D01*
X91017542Y-101326727D01*
X91230059Y-101369000D01*
X91446741Y-101369000D01*
X91659258Y-101326727D01*
X91859445Y-101243807D01*
X92039609Y-101123425D01*
X92192825Y-100970209D01*
X92313207Y-100790045D01*
X92396127Y-100589858D01*
X92438400Y-100377341D01*
X92438400Y-100160659D01*
X92396127Y-99948142D01*
X92313207Y-99747955D01*
X92192825Y-99567791D01*
X92039609Y-99414575D01*
X91859445Y-99294193D01*
X91659258Y-99211273D01*
X91446741Y-99169000D01*
X91230059Y-99169000D01*
X91017542Y-99211273D01*
X90817355Y-99294193D01*
X90637191Y-99414575D01*
X90483975Y-99567791D01*
X90363593Y-99747955D01*
X90280673Y-99948142D01*
X90238400Y-100160659D01*
X88897200Y-100160659D01*
X88897200Y-97620659D01*
X90238400Y-97620659D01*
X90238400Y-97837341D01*
X90280673Y-98049858D01*
X90363593Y-98250045D01*
X90483975Y-98430209D01*
X90637191Y-98583425D01*
X90817355Y-98703807D01*
X91017542Y-98786727D01*
X91230059Y-98829000D01*
X91446741Y-98829000D01*
X91659258Y-98786727D01*
X91859445Y-98703807D01*
X92039609Y-98583425D01*
X92192825Y-98430209D01*
X92313207Y-98250045D01*
X92396127Y-98049858D01*
X92438400Y-97837341D01*
X92438400Y-97620659D01*
X92396127Y-97408142D01*
X92313207Y-97207955D01*
X92192825Y-97027791D01*
X92039609Y-96874575D01*
X91859445Y-96754193D01*
X91659258Y-96671273D01*
X91446741Y-96629000D01*
X91230059Y-96629000D01*
X91017542Y-96671273D01*
X90817355Y-96754193D01*
X90637191Y-96874575D01*
X90483975Y-97027791D01*
X90363593Y-97207955D01*
X90280673Y-97408142D01*
X90238400Y-97620659D01*
X88897200Y-97620659D01*
X88897200Y-93012984D01*
X95816000Y-93012984D01*
X95816000Y-93219816D01*
X95856350Y-93422674D01*
X95935502Y-93613762D01*
X96050411Y-93785736D01*
X96196664Y-93931989D01*
X96368638Y-94046898D01*
X96491000Y-94097583D01*
X96491000Y-94223284D01*
X96489186Y-94241700D01*
X96491000Y-94260116D01*
X96491000Y-94260118D01*
X96496426Y-94315212D01*
X96517869Y-94385899D01*
X96552691Y-94451046D01*
X96599552Y-94508148D01*
X96613866Y-94519895D01*
X98588136Y-96494166D01*
X98481874Y-96450150D01*
X98279016Y-96409800D01*
X98072184Y-96409800D01*
X97869326Y-96450150D01*
X97678238Y-96529302D01*
X97506264Y-96644211D01*
X97360011Y-96790464D01*
X97245102Y-96962438D01*
X97165950Y-97153526D01*
X97125600Y-97356384D01*
X97125600Y-97563216D01*
X97165950Y-97766074D01*
X97245102Y-97957162D01*
X97360011Y-98129136D01*
X97506264Y-98275389D01*
X97678238Y-98390298D01*
X97869326Y-98469450D01*
X98072184Y-98509800D01*
X98279016Y-98509800D01*
X98481874Y-98469450D01*
X98604236Y-98418766D01*
X98964401Y-98778931D01*
X98964400Y-112782984D01*
X98962586Y-112801400D01*
X98964400Y-112819816D01*
X98964400Y-112819818D01*
X98969826Y-112874912D01*
X98991269Y-112945599D01*
X99026091Y-113010746D01*
X99072952Y-113067848D01*
X99087266Y-113079595D01*
X103353809Y-117346139D01*
X103365552Y-117360448D01*
X103422653Y-117407309D01*
X103487800Y-117442131D01*
X103505514Y-117447504D01*
X103565102Y-117591362D01*
X103680011Y-117763336D01*
X103826264Y-117909589D01*
X103998238Y-118024498D01*
X104189326Y-118103650D01*
X104392184Y-118144000D01*
X104599016Y-118144000D01*
X104801874Y-118103650D01*
X104992962Y-118024498D01*
X105057187Y-117981584D01*
X107637000Y-117981584D01*
X107637000Y-118188416D01*
X107677350Y-118391274D01*
X107756502Y-118582362D01*
X107871411Y-118754336D01*
X108017664Y-118900589D01*
X108189638Y-119015498D01*
X108380726Y-119094650D01*
X108583584Y-119135000D01*
X108790416Y-119135000D01*
X108993274Y-119094650D01*
X109184362Y-119015498D01*
X109356336Y-118900589D01*
X109502589Y-118754336D01*
X109617498Y-118582362D01*
X109696650Y-118391274D01*
X109719777Y-118275000D01*
X120323791Y-118275000D01*
X120323791Y-119875000D01*
X120328618Y-119924008D01*
X120342913Y-119971134D01*
X120366127Y-120014564D01*
X120397368Y-120052632D01*
X120435436Y-120083873D01*
X120478866Y-120107087D01*
X120525992Y-120121382D01*
X120575000Y-120126209D01*
X122175000Y-120126209D01*
X122224008Y-120121382D01*
X122271134Y-120107087D01*
X122314564Y-120083873D01*
X122352632Y-120052632D01*
X122383873Y-120014564D01*
X122407087Y-119971134D01*
X122421382Y-119924008D01*
X122426209Y-119875000D01*
X122426209Y-118971584D01*
X122825000Y-118971584D01*
X122825000Y-119178416D01*
X122865350Y-119381274D01*
X122944502Y-119572362D01*
X123059411Y-119744336D01*
X123205664Y-119890589D01*
X123377638Y-120005498D01*
X123568726Y-120084650D01*
X123771584Y-120125000D01*
X123978416Y-120125000D01*
X124181274Y-120084650D01*
X124372362Y-120005498D01*
X124544336Y-119890589D01*
X124690589Y-119744336D01*
X124805498Y-119572362D01*
X124884650Y-119381274D01*
X124925000Y-119178416D01*
X124925000Y-118971584D01*
X124884650Y-118768726D01*
X124805498Y-118577638D01*
X124690589Y-118405664D01*
X124544336Y-118259411D01*
X124372362Y-118144502D01*
X124181274Y-118065350D01*
X123978416Y-118025000D01*
X123771584Y-118025000D01*
X123568726Y-118065350D01*
X123377638Y-118144502D01*
X123205664Y-118259411D01*
X123059411Y-118405664D01*
X122944502Y-118577638D01*
X122865350Y-118768726D01*
X122825000Y-118971584D01*
X122426209Y-118971584D01*
X122426209Y-118275000D01*
X122421382Y-118225992D01*
X122407087Y-118178866D01*
X122383873Y-118135436D01*
X122352632Y-118097368D01*
X122314564Y-118066127D01*
X122271134Y-118042913D01*
X122224008Y-118028618D01*
X122175000Y-118023791D01*
X120575000Y-118023791D01*
X120525992Y-118028618D01*
X120478866Y-118042913D01*
X120435436Y-118066127D01*
X120397368Y-118097368D01*
X120366127Y-118135436D01*
X120342913Y-118178866D01*
X120328618Y-118225992D01*
X120323791Y-118275000D01*
X109719777Y-118275000D01*
X109737000Y-118188416D01*
X109737000Y-117981584D01*
X109696650Y-117778726D01*
X109645965Y-117656364D01*
X113688330Y-113614000D01*
X115325818Y-113614000D01*
X115376502Y-113736362D01*
X115491411Y-113908336D01*
X115637664Y-114054589D01*
X115809638Y-114169498D01*
X116000726Y-114248650D01*
X116203584Y-114289000D01*
X116410416Y-114289000D01*
X116613274Y-114248650D01*
X116804362Y-114169498D01*
X116976336Y-114054589D01*
X117122589Y-113908336D01*
X117237498Y-113736362D01*
X117288182Y-113614000D01*
X121468084Y-113614000D01*
X121486500Y-113615814D01*
X121504916Y-113614000D01*
X121504919Y-113614000D01*
X121560013Y-113608574D01*
X121630700Y-113587131D01*
X121695847Y-113552309D01*
X121752948Y-113505448D01*
X121764695Y-113491134D01*
X124386245Y-110869584D01*
X127880000Y-110869584D01*
X127880000Y-111076416D01*
X127920350Y-111279274D01*
X127999502Y-111470362D01*
X128114411Y-111642336D01*
X128260664Y-111788589D01*
X128432638Y-111903498D01*
X128555000Y-111954183D01*
X128555001Y-113474817D01*
X128432638Y-113525502D01*
X128260664Y-113640411D01*
X128114411Y-113786664D01*
X127999502Y-113958638D01*
X127920350Y-114149726D01*
X127880000Y-114352584D01*
X127880000Y-114559416D01*
X127920350Y-114762274D01*
X127999502Y-114953362D01*
X128114411Y-115125336D01*
X128260664Y-115271589D01*
X128432638Y-115386498D01*
X128623726Y-115465650D01*
X128826584Y-115506000D01*
X129033416Y-115506000D01*
X129236274Y-115465650D01*
X129427362Y-115386498D01*
X129599336Y-115271589D01*
X129745589Y-115125336D01*
X129860498Y-114953362D01*
X129939650Y-114762274D01*
X129980000Y-114559416D01*
X129980000Y-114352584D01*
X129939650Y-114149726D01*
X129860498Y-113958638D01*
X129745589Y-113786664D01*
X129599336Y-113640411D01*
X129427362Y-113525502D01*
X129305000Y-113474818D01*
X129305000Y-111954182D01*
X129427362Y-111903498D01*
X129599336Y-111788589D01*
X129745589Y-111642336D01*
X129860498Y-111470362D01*
X129939650Y-111279274D01*
X129980000Y-111076416D01*
X129980000Y-110869584D01*
X129939650Y-110666726D01*
X129860498Y-110475638D01*
X129745589Y-110303664D01*
X129599336Y-110157411D01*
X129427362Y-110042502D01*
X129236274Y-109963350D01*
X129033416Y-109923000D01*
X128826584Y-109923000D01*
X128623726Y-109963350D01*
X128432638Y-110042502D01*
X128260664Y-110157411D01*
X128114411Y-110303664D01*
X127999502Y-110475638D01*
X127920350Y-110666726D01*
X127880000Y-110869584D01*
X124386245Y-110869584D01*
X133585830Y-101670000D01*
X134529680Y-101670000D01*
X134560494Y-101727650D01*
X134657341Y-101845659D01*
X134760111Y-101930000D01*
X134657341Y-102014341D01*
X134560494Y-102132350D01*
X134529680Y-102190000D01*
X134376119Y-102190000D01*
X134357700Y-102188186D01*
X134339281Y-102190000D01*
X134284187Y-102195426D01*
X134213500Y-102216869D01*
X134148353Y-102251691D01*
X134091252Y-102298552D01*
X134044391Y-102355653D01*
X134009569Y-102420800D01*
X133988126Y-102491487D01*
X133980886Y-102565000D01*
X133982700Y-102583419D01*
X133982701Y-110166571D01*
X133980886Y-110185000D01*
X133988126Y-110258513D01*
X134009569Y-110329200D01*
X134044391Y-110394347D01*
X134091252Y-110451448D01*
X134148353Y-110498309D01*
X134213500Y-110533131D01*
X134284187Y-110554574D01*
X134339281Y-110560000D01*
X134357700Y-110561814D01*
X134376119Y-110560000D01*
X134431791Y-110560000D01*
X134431791Y-110710000D01*
X134436618Y-110759008D01*
X134450913Y-110806134D01*
X134474127Y-110849564D01*
X134505368Y-110887632D01*
X134543436Y-110918873D01*
X134586866Y-110942087D01*
X134633992Y-110956382D01*
X134683000Y-110961209D01*
X134698001Y-110961209D01*
X134698000Y-112785817D01*
X134575638Y-112836502D01*
X134403664Y-112951411D01*
X134257411Y-113097664D01*
X134142502Y-113269638D01*
X134063350Y-113460726D01*
X134023000Y-113663584D01*
X134023000Y-113870416D01*
X134063350Y-114073274D01*
X134142502Y-114264362D01*
X134257411Y-114436336D01*
X134403664Y-114582589D01*
X134575638Y-114697498D01*
X134766726Y-114776650D01*
X134969584Y-114817000D01*
X135176416Y-114817000D01*
X135379274Y-114776650D01*
X135570362Y-114697498D01*
X135742336Y-114582589D01*
X135888589Y-114436336D01*
X136003498Y-114264362D01*
X136082650Y-114073274D01*
X136123000Y-113870416D01*
X136123000Y-113663584D01*
X136082650Y-113460726D01*
X136003498Y-113269638D01*
X135888589Y-113097664D01*
X135742336Y-112951411D01*
X135570362Y-112836502D01*
X135448000Y-112785818D01*
X135448000Y-110961209D01*
X136183000Y-110961209D01*
X136232008Y-110956382D01*
X136279134Y-110942087D01*
X136322564Y-110918873D01*
X136360632Y-110887632D01*
X136391873Y-110849564D01*
X136415087Y-110806134D01*
X136429382Y-110759008D01*
X136434209Y-110710000D01*
X136434209Y-109660000D01*
X136429382Y-109610992D01*
X136415087Y-109563866D01*
X136391873Y-109520436D01*
X136360632Y-109482368D01*
X136322564Y-109451127D01*
X136279134Y-109427913D01*
X136247509Y-109418320D01*
X136305506Y-109347650D01*
X136377470Y-109213014D01*
X136421786Y-109066926D01*
X136436749Y-108915000D01*
X136426079Y-108806659D01*
X141216000Y-108806659D01*
X141216000Y-109023341D01*
X141258273Y-109235858D01*
X141341193Y-109436045D01*
X141461575Y-109616209D01*
X141614791Y-109769425D01*
X141794955Y-109889807D01*
X141995142Y-109972727D01*
X142207659Y-110015000D01*
X142424341Y-110015000D01*
X142636858Y-109972727D01*
X142837045Y-109889807D01*
X143017209Y-109769425D01*
X143170425Y-109616209D01*
X143290807Y-109436045D01*
X143373727Y-109235858D01*
X143416000Y-109023341D01*
X143416000Y-108806659D01*
X143373727Y-108594142D01*
X143290807Y-108393955D01*
X143170425Y-108213791D01*
X143017209Y-108060575D01*
X142837045Y-107940193D01*
X142636858Y-107857273D01*
X142424341Y-107815000D01*
X142207659Y-107815000D01*
X141995142Y-107857273D01*
X141794955Y-107940193D01*
X141614791Y-108060575D01*
X141461575Y-108213791D01*
X141341193Y-108393955D01*
X141258273Y-108594142D01*
X141216000Y-108806659D01*
X136426079Y-108806659D01*
X136421786Y-108763074D01*
X136377470Y-108616986D01*
X136305506Y-108482350D01*
X136208659Y-108364341D01*
X136105889Y-108280000D01*
X136208659Y-108195659D01*
X136305506Y-108077650D01*
X136377470Y-107943014D01*
X136421786Y-107796926D01*
X136436749Y-107645000D01*
X136421786Y-107493074D01*
X136377470Y-107346986D01*
X136305506Y-107212350D01*
X136208659Y-107094341D01*
X136090650Y-106997494D01*
X135956014Y-106925530D01*
X135809926Y-106881214D01*
X135696065Y-106870000D01*
X135169935Y-106870000D01*
X135056074Y-106881214D01*
X134909986Y-106925530D01*
X134775350Y-106997494D01*
X134732700Y-107032496D01*
X134732700Y-105525000D01*
X141214791Y-105525000D01*
X141214791Y-107225000D01*
X141219618Y-107274008D01*
X141233913Y-107321134D01*
X141257127Y-107364564D01*
X141288368Y-107402632D01*
X141326436Y-107433873D01*
X141369866Y-107457087D01*
X141416992Y-107471382D01*
X141466000Y-107476209D01*
X143166000Y-107476209D01*
X143215008Y-107471382D01*
X143262134Y-107457087D01*
X143305564Y-107433873D01*
X143343632Y-107402632D01*
X143374873Y-107364564D01*
X143398087Y-107321134D01*
X143412382Y-107274008D01*
X143417209Y-107225000D01*
X143417209Y-105525000D01*
X143412382Y-105475992D01*
X143398087Y-105428866D01*
X143374873Y-105385436D01*
X143343632Y-105347368D01*
X143305564Y-105316127D01*
X143262134Y-105292913D01*
X143215008Y-105278618D01*
X143166000Y-105273791D01*
X142691000Y-105273791D01*
X142691000Y-98968829D01*
X143533139Y-98126691D01*
X143547448Y-98114948D01*
X143594309Y-98057847D01*
X143629131Y-97992700D01*
X143650574Y-97922013D01*
X143656000Y-97866919D01*
X143656000Y-97866917D01*
X143657814Y-97848501D01*
X143656000Y-97830085D01*
X143656000Y-97704382D01*
X143778362Y-97653698D01*
X143950336Y-97538789D01*
X144096589Y-97392536D01*
X144211498Y-97220562D01*
X144290650Y-97029474D01*
X144331000Y-96826616D01*
X144331000Y-96619784D01*
X144290650Y-96416926D01*
X144211498Y-96225838D01*
X144096589Y-96053864D01*
X143950336Y-95907611D01*
X143778362Y-95792702D01*
X143587274Y-95713550D01*
X143384416Y-95673200D01*
X143177584Y-95673200D01*
X142974726Y-95713550D01*
X142783638Y-95792702D01*
X142611664Y-95907611D01*
X142465411Y-96053864D01*
X142350502Y-96225838D01*
X142271350Y-96416926D01*
X142231000Y-96619784D01*
X142231000Y-96826616D01*
X142271350Y-97029474D01*
X142350502Y-97220562D01*
X142465411Y-97392536D01*
X142611664Y-97538789D01*
X142783638Y-97653698D01*
X142898072Y-97701098D01*
X142063866Y-98535305D01*
X142049552Y-98547052D01*
X142002691Y-98604154D01*
X141967869Y-98669301D01*
X141946426Y-98739988D01*
X141943687Y-98767801D01*
X141939186Y-98813500D01*
X141941000Y-98831916D01*
X141941001Y-105273791D01*
X141466000Y-105273791D01*
X141416992Y-105278618D01*
X141369866Y-105292913D01*
X141326436Y-105316127D01*
X141288368Y-105347368D01*
X141257127Y-105385436D01*
X141233913Y-105428866D01*
X141219618Y-105475992D01*
X141214791Y-105525000D01*
X134732700Y-105525000D01*
X134732700Y-104611209D01*
X136183000Y-104611209D01*
X136232008Y-104606382D01*
X136279134Y-104592087D01*
X136322564Y-104568873D01*
X136360632Y-104537632D01*
X136391873Y-104499564D01*
X136415087Y-104456134D01*
X136429382Y-104409008D01*
X136434209Y-104360000D01*
X136434209Y-103310000D01*
X136429382Y-103260992D01*
X136415087Y-103213866D01*
X136391873Y-103170436D01*
X136360632Y-103132368D01*
X136322564Y-103101127D01*
X136279134Y-103077913D01*
X136247509Y-103068320D01*
X136305506Y-102997650D01*
X136377470Y-102863014D01*
X136421786Y-102716926D01*
X136436749Y-102565000D01*
X136421786Y-102413074D01*
X136377470Y-102266986D01*
X136305506Y-102132350D01*
X136208659Y-102014341D01*
X136105889Y-101930000D01*
X136208659Y-101845659D01*
X136305506Y-101727650D01*
X136377470Y-101593014D01*
X136421786Y-101446926D01*
X136436749Y-101295000D01*
X136421786Y-101143074D01*
X136377470Y-100996986D01*
X136305506Y-100862350D01*
X136208659Y-100744341D01*
X136090650Y-100647494D01*
X135956014Y-100575530D01*
X135809926Y-100531214D01*
X135696065Y-100520000D01*
X135169935Y-100520000D01*
X135056074Y-100531214D01*
X134909986Y-100575530D01*
X134775350Y-100647494D01*
X134657341Y-100744341D01*
X134560494Y-100862350D01*
X134529680Y-100920000D01*
X133448916Y-100920000D01*
X133430500Y-100918186D01*
X133412084Y-100920000D01*
X133412081Y-100920000D01*
X133356987Y-100925426D01*
X133286300Y-100946869D01*
X133221153Y-100981691D01*
X133164052Y-101028552D01*
X133152309Y-101042861D01*
X123580000Y-110615171D01*
X123580000Y-110470509D01*
X123541571Y-110277311D01*
X123466189Y-110095322D01*
X123356751Y-109931537D01*
X123217463Y-109792249D01*
X123053678Y-109682811D01*
X122871689Y-109607429D01*
X122678491Y-109569000D01*
X122481509Y-109569000D01*
X122288311Y-109607429D01*
X122106322Y-109682811D01*
X121942537Y-109792249D01*
X121803249Y-109931537D01*
X121693811Y-110095322D01*
X121618429Y-110277311D01*
X121580000Y-110470509D01*
X121580000Y-110667491D01*
X121618429Y-110860689D01*
X121693811Y-111042678D01*
X121803249Y-111206463D01*
X121942537Y-111345751D01*
X122106322Y-111455189D01*
X122288311Y-111530571D01*
X122481509Y-111569000D01*
X122626171Y-111569000D01*
X121331171Y-112864000D01*
X117288182Y-112864000D01*
X117237498Y-112741638D01*
X117122589Y-112569664D01*
X116976336Y-112423411D01*
X116804362Y-112308502D01*
X116613274Y-112229350D01*
X116410416Y-112189000D01*
X116203584Y-112189000D01*
X116000726Y-112229350D01*
X115809638Y-112308502D01*
X115637664Y-112423411D01*
X115491411Y-112569664D01*
X115376502Y-112741638D01*
X115325818Y-112864000D01*
X113551416Y-112864000D01*
X113533000Y-112862186D01*
X113514584Y-112864000D01*
X113514581Y-112864000D01*
X113459487Y-112869426D01*
X113388800Y-112890869D01*
X113323653Y-112925691D01*
X113266552Y-112972552D01*
X113254810Y-112986860D01*
X109115636Y-117126035D01*
X108993274Y-117075350D01*
X108790416Y-117035000D01*
X108583584Y-117035000D01*
X108380726Y-117075350D01*
X108189638Y-117154502D01*
X108017664Y-117269411D01*
X107871411Y-117415664D01*
X107756502Y-117587638D01*
X107677350Y-117778726D01*
X107637000Y-117981584D01*
X105057187Y-117981584D01*
X105164936Y-117909589D01*
X105311189Y-117763336D01*
X105426098Y-117591362D01*
X105505250Y-117400274D01*
X105545600Y-117197416D01*
X105545600Y-116990584D01*
X105505250Y-116787726D01*
X105426098Y-116596638D01*
X105311189Y-116424664D01*
X105164936Y-116278411D01*
X104992962Y-116163502D01*
X104801874Y-116084350D01*
X104599016Y-116044000D01*
X104392184Y-116044000D01*
X104189326Y-116084350D01*
X103998238Y-116163502D01*
X103826264Y-116278411D01*
X103680011Y-116424664D01*
X103605103Y-116536773D01*
X101518914Y-114450584D01*
X103445600Y-114450584D01*
X103445600Y-114657416D01*
X103485950Y-114860274D01*
X103565102Y-115051362D01*
X103680011Y-115223336D01*
X103826264Y-115369589D01*
X103998238Y-115484498D01*
X104189326Y-115563650D01*
X104392184Y-115604000D01*
X104599016Y-115604000D01*
X104801874Y-115563650D01*
X104992962Y-115484498D01*
X105164936Y-115369589D01*
X105311189Y-115223336D01*
X105426098Y-115051362D01*
X105505250Y-114860274D01*
X105545600Y-114657416D01*
X105545600Y-114450584D01*
X105505250Y-114247726D01*
X105426098Y-114056638D01*
X105311189Y-113884664D01*
X105164936Y-113738411D01*
X104992962Y-113623502D01*
X104801874Y-113544350D01*
X104599016Y-113504000D01*
X104392184Y-113504000D01*
X104189326Y-113544350D01*
X103998238Y-113623502D01*
X103826264Y-113738411D01*
X103680011Y-113884664D01*
X103565102Y-114056638D01*
X103485950Y-114247726D01*
X103445600Y-114450584D01*
X101518914Y-114450584D01*
X100203914Y-113135584D01*
X107637000Y-113135584D01*
X107637000Y-113342416D01*
X107677350Y-113545274D01*
X107756502Y-113736362D01*
X107871411Y-113908336D01*
X108017664Y-114054589D01*
X108189638Y-114169498D01*
X108380726Y-114248650D01*
X108583584Y-114289000D01*
X108790416Y-114289000D01*
X108993274Y-114248650D01*
X109184362Y-114169498D01*
X109356336Y-114054589D01*
X109502589Y-113908336D01*
X109617498Y-113736362D01*
X109696650Y-113545274D01*
X109737000Y-113342416D01*
X109737000Y-113135584D01*
X109696650Y-112932726D01*
X109617498Y-112741638D01*
X109502589Y-112569664D01*
X109356336Y-112423411D01*
X109184362Y-112308502D01*
X108993274Y-112229350D01*
X108790416Y-112189000D01*
X108583584Y-112189000D01*
X108380726Y-112229350D01*
X108189638Y-112308502D01*
X108017664Y-112423411D01*
X107871411Y-112569664D01*
X107756502Y-112741638D01*
X107677350Y-112932726D01*
X107637000Y-113135584D01*
X100203914Y-113135584D01*
X99714400Y-112646071D01*
X99714400Y-98642016D01*
X99716214Y-98623600D01*
X99714299Y-98604154D01*
X99708974Y-98550087D01*
X99687531Y-98479400D01*
X99661238Y-98430209D01*
X99652710Y-98414253D01*
X99617589Y-98371459D01*
X99605848Y-98357152D01*
X99591539Y-98345409D01*
X99134566Y-97888436D01*
X99185250Y-97766074D01*
X99225600Y-97563216D01*
X99225600Y-97356384D01*
X99185250Y-97153526D01*
X99141235Y-97047264D01*
X99737301Y-97643331D01*
X99737300Y-108577484D01*
X99735486Y-108595900D01*
X99737300Y-108614316D01*
X99737300Y-108614318D01*
X99742726Y-108669412D01*
X99764169Y-108740099D01*
X99798991Y-108805246D01*
X99845852Y-108862348D01*
X99860166Y-108874095D01*
X103252209Y-112266139D01*
X103263952Y-112280448D01*
X103294166Y-112305243D01*
X103321052Y-112327309D01*
X103386198Y-112362130D01*
X103386200Y-112362131D01*
X103456887Y-112383574D01*
X103511981Y-112389000D01*
X103511983Y-112389000D01*
X103514521Y-112389250D01*
X103565102Y-112511362D01*
X103680011Y-112683336D01*
X103826264Y-112829589D01*
X103998238Y-112944498D01*
X104189326Y-113023650D01*
X104392184Y-113064000D01*
X104599016Y-113064000D01*
X104801874Y-113023650D01*
X104992962Y-112944498D01*
X105164936Y-112829589D01*
X105311189Y-112683336D01*
X105426098Y-112511362D01*
X105505250Y-112320274D01*
X105545600Y-112117416D01*
X105545600Y-111910584D01*
X105505250Y-111707726D01*
X105426098Y-111516638D01*
X105311189Y-111344664D01*
X105164936Y-111198411D01*
X104992962Y-111083502D01*
X104801874Y-111004350D01*
X104599016Y-110964000D01*
X104392184Y-110964000D01*
X104189326Y-111004350D01*
X103998238Y-111083502D01*
X103826264Y-111198411D01*
X103680011Y-111344664D01*
X103565102Y-111516638D01*
X103564594Y-111517864D01*
X101417314Y-109370584D01*
X103445600Y-109370584D01*
X103445600Y-109577416D01*
X103485950Y-109780274D01*
X103565102Y-109971362D01*
X103680011Y-110143336D01*
X103826264Y-110289589D01*
X103998238Y-110404498D01*
X104189326Y-110483650D01*
X104392184Y-110524000D01*
X104599016Y-110524000D01*
X104801874Y-110483650D01*
X104924236Y-110432966D01*
X105017408Y-110526138D01*
X105029151Y-110540447D01*
X105043458Y-110552188D01*
X105086251Y-110587308D01*
X105102861Y-110596186D01*
X105151399Y-110622130D01*
X105222086Y-110643573D01*
X105277180Y-110648999D01*
X105277182Y-110648999D01*
X105295598Y-110650813D01*
X105314014Y-110648999D01*
X114408585Y-110648999D01*
X114427001Y-110650813D01*
X114445417Y-110648999D01*
X114445420Y-110648999D01*
X114500514Y-110643573D01*
X114571201Y-110622130D01*
X114636348Y-110587308D01*
X114693449Y-110540447D01*
X114705196Y-110526133D01*
X115878364Y-109352966D01*
X116000726Y-109403650D01*
X116203584Y-109444000D01*
X116410416Y-109444000D01*
X116613274Y-109403650D01*
X116804362Y-109324498D01*
X116976336Y-109209589D01*
X117122589Y-109063336D01*
X117237498Y-108891362D01*
X117316650Y-108700274D01*
X117357000Y-108497416D01*
X117357000Y-108290584D01*
X117316650Y-108087726D01*
X117237498Y-107896638D01*
X117122589Y-107724664D01*
X116976336Y-107578411D01*
X116804362Y-107463502D01*
X116682000Y-107412818D01*
X116682000Y-105590509D01*
X121580000Y-105590509D01*
X121580000Y-105787491D01*
X121618429Y-105980689D01*
X121693811Y-106162678D01*
X121803249Y-106326463D01*
X121942537Y-106465751D01*
X122106322Y-106575189D01*
X122288311Y-106650571D01*
X122481509Y-106689000D01*
X122678491Y-106689000D01*
X122871689Y-106650571D01*
X123053678Y-106575189D01*
X123217463Y-106465751D01*
X123356751Y-106326463D01*
X123466189Y-106162678D01*
X123541571Y-105980689D01*
X123580000Y-105787491D01*
X123580000Y-105590509D01*
X123541571Y-105397311D01*
X123500697Y-105298632D01*
X123823140Y-104976190D01*
X123837448Y-104964448D01*
X123857423Y-104940108D01*
X123884310Y-104907347D01*
X123919130Y-104842201D01*
X123919131Y-104842200D01*
X123940574Y-104771513D01*
X123946000Y-104716419D01*
X123946000Y-104716416D01*
X123947814Y-104698000D01*
X123946000Y-104679584D01*
X123946000Y-103249584D01*
X127880000Y-103249584D01*
X127880000Y-103456416D01*
X127920350Y-103659274D01*
X127999502Y-103850362D01*
X128114411Y-104022336D01*
X128260664Y-104168589D01*
X128432638Y-104283498D01*
X128623726Y-104362650D01*
X128826584Y-104403000D01*
X129033416Y-104403000D01*
X129236274Y-104362650D01*
X129427362Y-104283498D01*
X129599336Y-104168589D01*
X129745589Y-104022336D01*
X129860498Y-103850362D01*
X129939650Y-103659274D01*
X129980000Y-103456416D01*
X129980000Y-103249584D01*
X129939650Y-103046726D01*
X129860498Y-102855638D01*
X129745589Y-102683664D01*
X129599336Y-102537411D01*
X129427362Y-102422502D01*
X129236274Y-102343350D01*
X129033416Y-102303000D01*
X128826584Y-102303000D01*
X128623726Y-102343350D01*
X128432638Y-102422502D01*
X128260664Y-102537411D01*
X128114411Y-102683664D01*
X127999502Y-102855638D01*
X127920350Y-103046726D01*
X127880000Y-103249584D01*
X123946000Y-103249584D01*
X123946000Y-96930260D01*
X124163097Y-96840335D01*
X124367828Y-96703538D01*
X124451582Y-96619784D01*
X134611000Y-96619784D01*
X134611000Y-96826616D01*
X134651350Y-97029474D01*
X134730502Y-97220562D01*
X134845411Y-97392536D01*
X134991664Y-97538789D01*
X135163638Y-97653698D01*
X135354726Y-97732850D01*
X135557584Y-97773200D01*
X135764416Y-97773200D01*
X135967274Y-97732850D01*
X136158362Y-97653698D01*
X136330336Y-97538789D01*
X136476589Y-97392536D01*
X136591498Y-97220562D01*
X136670650Y-97029474D01*
X136711000Y-96826616D01*
X136711000Y-96619784D01*
X136670650Y-96416926D01*
X136591498Y-96225838D01*
X136476589Y-96053864D01*
X136330336Y-95907611D01*
X136158362Y-95792702D01*
X135967274Y-95713550D01*
X135764416Y-95673200D01*
X135557584Y-95673200D01*
X135354726Y-95713550D01*
X135163638Y-95792702D01*
X134991664Y-95907611D01*
X134845411Y-96053864D01*
X134730502Y-96225838D01*
X134651350Y-96416926D01*
X134611000Y-96619784D01*
X124451582Y-96619784D01*
X124541938Y-96529428D01*
X124678735Y-96324697D01*
X124772963Y-96097211D01*
X124821000Y-95855714D01*
X124821000Y-95609486D01*
X124772963Y-95367989D01*
X124678735Y-95140503D01*
X124541938Y-94935772D01*
X124367828Y-94761662D01*
X124163097Y-94624865D01*
X123935611Y-94530637D01*
X123694114Y-94482600D01*
X123447886Y-94482600D01*
X123206389Y-94530637D01*
X122978903Y-94624865D01*
X122774172Y-94761662D01*
X122600062Y-94935772D01*
X122463265Y-95140503D01*
X122369037Y-95367989D01*
X122321000Y-95609486D01*
X122321000Y-95855714D01*
X122369037Y-96097211D01*
X122463265Y-96324697D01*
X122600062Y-96529428D01*
X122774172Y-96703538D01*
X122978903Y-96840335D01*
X123196001Y-96930260D01*
X123196000Y-104542670D01*
X122970368Y-104768303D01*
X122871689Y-104727429D01*
X122678491Y-104689000D01*
X122481509Y-104689000D01*
X122288311Y-104727429D01*
X122106322Y-104802811D01*
X121942537Y-104912249D01*
X121803249Y-105051537D01*
X121693811Y-105215322D01*
X121618429Y-105397311D01*
X121580000Y-105590509D01*
X116682000Y-105590509D01*
X116682000Y-104529182D01*
X116804362Y-104478498D01*
X116976336Y-104363589D01*
X117122589Y-104217336D01*
X117237498Y-104045362D01*
X117316650Y-103854274D01*
X117357000Y-103651416D01*
X117357000Y-103444584D01*
X117316650Y-103241726D01*
X117237498Y-103050638D01*
X117122589Y-102878664D01*
X116976336Y-102732411D01*
X116804362Y-102617502D01*
X116613274Y-102538350D01*
X116410416Y-102498000D01*
X116203584Y-102498000D01*
X116000726Y-102538350D01*
X115809638Y-102617502D01*
X115637664Y-102732411D01*
X115491411Y-102878664D01*
X115376502Y-103050638D01*
X115297350Y-103241726D01*
X115257000Y-103444584D01*
X115257000Y-103651416D01*
X115297350Y-103854274D01*
X115376502Y-104045362D01*
X115491411Y-104217336D01*
X115637664Y-104363589D01*
X115809638Y-104478498D01*
X115932001Y-104529183D01*
X115932000Y-107412817D01*
X115809638Y-107463502D01*
X115637664Y-107578411D01*
X115491411Y-107724664D01*
X115376502Y-107896638D01*
X115297350Y-108087726D01*
X115257000Y-108290584D01*
X115257000Y-108497416D01*
X115297350Y-108700274D01*
X115348034Y-108822636D01*
X114271672Y-109898999D01*
X105456072Y-109898999D01*
X105505250Y-109780274D01*
X105545600Y-109577416D01*
X105545600Y-109370584D01*
X105505250Y-109167726D01*
X105426098Y-108976638D01*
X105311189Y-108804664D01*
X105164936Y-108658411D01*
X104992962Y-108543502D01*
X104801874Y-108464350D01*
X104599016Y-108424000D01*
X104392184Y-108424000D01*
X104189326Y-108464350D01*
X103998238Y-108543502D01*
X103826264Y-108658411D01*
X103680011Y-108804664D01*
X103565102Y-108976638D01*
X103485950Y-109167726D01*
X103445600Y-109370584D01*
X101417314Y-109370584D01*
X100487300Y-108440571D01*
X100487300Y-106830584D01*
X103445600Y-106830584D01*
X103445600Y-107037416D01*
X103485950Y-107240274D01*
X103565102Y-107431362D01*
X103680011Y-107603336D01*
X103826264Y-107749589D01*
X103998238Y-107864498D01*
X104189326Y-107943650D01*
X104392184Y-107984000D01*
X104599016Y-107984000D01*
X104801874Y-107943650D01*
X104992962Y-107864498D01*
X105164936Y-107749589D01*
X105311189Y-107603336D01*
X105426098Y-107431362D01*
X105476782Y-107309000D01*
X105946371Y-107309000D01*
X107283509Y-108646139D01*
X107295252Y-108660448D01*
X107352353Y-108707309D01*
X107417500Y-108742131D01*
X107488187Y-108763574D01*
X107543281Y-108769000D01*
X107543284Y-108769000D01*
X107561700Y-108770814D01*
X107580116Y-108769000D01*
X107705818Y-108769000D01*
X107756502Y-108891362D01*
X107871411Y-109063336D01*
X108017664Y-109209589D01*
X108189638Y-109324498D01*
X108380726Y-109403650D01*
X108583584Y-109444000D01*
X108790416Y-109444000D01*
X108993274Y-109403650D01*
X109184362Y-109324498D01*
X109356336Y-109209589D01*
X109502589Y-109063336D01*
X109617498Y-108891362D01*
X109696650Y-108700274D01*
X109737000Y-108497416D01*
X109737000Y-108290584D01*
X109696650Y-108087726D01*
X109617498Y-107896638D01*
X109502589Y-107724664D01*
X109356336Y-107578411D01*
X109184362Y-107463502D01*
X108993274Y-107384350D01*
X108790416Y-107344000D01*
X108583584Y-107344000D01*
X108380726Y-107384350D01*
X108189638Y-107463502D01*
X108017664Y-107578411D01*
X107871411Y-107724664D01*
X107756502Y-107896638D01*
X107709102Y-108011072D01*
X106379895Y-106681866D01*
X106368148Y-106667552D01*
X106311047Y-106620691D01*
X106245900Y-106585869D01*
X106175213Y-106564426D01*
X106120119Y-106559000D01*
X106120116Y-106559000D01*
X106101700Y-106557186D01*
X106083284Y-106559000D01*
X105476782Y-106559000D01*
X105426098Y-106436638D01*
X105311189Y-106264664D01*
X105164936Y-106118411D01*
X104992962Y-106003502D01*
X104801874Y-105924350D01*
X104599016Y-105884000D01*
X104392184Y-105884000D01*
X104189326Y-105924350D01*
X103998238Y-106003502D01*
X103826264Y-106118411D01*
X103680011Y-106264664D01*
X103565102Y-106436638D01*
X103485950Y-106627726D01*
X103445600Y-106830584D01*
X100487300Y-106830584D01*
X100487300Y-104290584D01*
X103445600Y-104290584D01*
X103445600Y-104497416D01*
X103485950Y-104700274D01*
X103565102Y-104891362D01*
X103680011Y-105063336D01*
X103826264Y-105209589D01*
X103998238Y-105324498D01*
X104189326Y-105403650D01*
X104392184Y-105444000D01*
X104599016Y-105444000D01*
X104801874Y-105403650D01*
X104992962Y-105324498D01*
X105164936Y-105209589D01*
X105311189Y-105063336D01*
X105426098Y-104891362D01*
X105505250Y-104700274D01*
X105517415Y-104639114D01*
X106711945Y-103444584D01*
X107637000Y-103444584D01*
X107637000Y-103651416D01*
X107677350Y-103854274D01*
X107756502Y-104045362D01*
X107871411Y-104217336D01*
X108017664Y-104363589D01*
X108189638Y-104478498D01*
X108380726Y-104557650D01*
X108583584Y-104598000D01*
X108790416Y-104598000D01*
X108993274Y-104557650D01*
X109184362Y-104478498D01*
X109356336Y-104363589D01*
X109502589Y-104217336D01*
X109617498Y-104045362D01*
X109668182Y-103923000D01*
X109918084Y-103923000D01*
X109936500Y-103924814D01*
X109954916Y-103923000D01*
X109954919Y-103923000D01*
X110010013Y-103917574D01*
X110080700Y-103896131D01*
X110145847Y-103861309D01*
X110202948Y-103814448D01*
X110214695Y-103800134D01*
X115011624Y-99003206D01*
X115110646Y-99242265D01*
X115258387Y-99463375D01*
X115446425Y-99651413D01*
X115667535Y-99799154D01*
X115913220Y-99900920D01*
X116174037Y-99952800D01*
X116439963Y-99952800D01*
X116700780Y-99900920D01*
X116946465Y-99799154D01*
X117167575Y-99651413D01*
X117355613Y-99463375D01*
X117503354Y-99242265D01*
X117605120Y-98996580D01*
X117657000Y-98735763D01*
X117657000Y-98469837D01*
X117605120Y-98209020D01*
X117503354Y-97963335D01*
X117355613Y-97742225D01*
X117167575Y-97554187D01*
X116946465Y-97406446D01*
X116700780Y-97304680D01*
X116439963Y-97252800D01*
X116174037Y-97252800D01*
X115913220Y-97304680D01*
X115667535Y-97406446D01*
X115446425Y-97554187D01*
X115258387Y-97742225D01*
X115110646Y-97963335D01*
X115008880Y-98209020D01*
X115005144Y-98227800D01*
X114900116Y-98227800D01*
X114881700Y-98225986D01*
X114863284Y-98227800D01*
X114863281Y-98227800D01*
X114808187Y-98233226D01*
X114737500Y-98254669D01*
X114672353Y-98289491D01*
X114615252Y-98336352D01*
X114603509Y-98350661D01*
X109781171Y-103173000D01*
X109668182Y-103173000D01*
X109617498Y-103050638D01*
X109502589Y-102878664D01*
X109356336Y-102732411D01*
X109184362Y-102617502D01*
X108993274Y-102538350D01*
X108790416Y-102498000D01*
X108583584Y-102498000D01*
X108380726Y-102538350D01*
X108189638Y-102617502D01*
X108017664Y-102732411D01*
X107871411Y-102878664D01*
X107756502Y-103050638D01*
X107677350Y-103241726D01*
X107637000Y-103444584D01*
X106711945Y-103444584D01*
X108939140Y-101217390D01*
X108953448Y-101205648D01*
X109000309Y-101148547D01*
X109035131Y-101083400D01*
X109056574Y-101012713D01*
X109062000Y-100957619D01*
X109062000Y-100957617D01*
X109063814Y-100939201D01*
X109062000Y-100920785D01*
X109062000Y-99954009D01*
X109787000Y-99954009D01*
X109836008Y-99949182D01*
X109883134Y-99934887D01*
X109926564Y-99911673D01*
X109964632Y-99880432D01*
X109995873Y-99842364D01*
X110019087Y-99798934D01*
X110033382Y-99751808D01*
X110038209Y-99702800D01*
X110038209Y-97502800D01*
X110033382Y-97453792D01*
X110019087Y-97406666D01*
X109995873Y-97363236D01*
X109964632Y-97325168D01*
X109926564Y-97293927D01*
X109883134Y-97270713D01*
X109836008Y-97256418D01*
X109787000Y-97251591D01*
X107587000Y-97251591D01*
X107537992Y-97256418D01*
X107490866Y-97270713D01*
X107447436Y-97293927D01*
X107409368Y-97325168D01*
X107378127Y-97363236D01*
X107354913Y-97406666D01*
X107340618Y-97453792D01*
X107335791Y-97502800D01*
X107335791Y-99702800D01*
X107340618Y-99751808D01*
X107354913Y-99798934D01*
X107378127Y-99842364D01*
X107409368Y-99880432D01*
X107447436Y-99911673D01*
X107490866Y-99934887D01*
X107537992Y-99949182D01*
X107587000Y-99954009D01*
X108312000Y-99954009D01*
X108312000Y-100783870D01*
X105335229Y-103760642D01*
X105311189Y-103724664D01*
X105164936Y-103578411D01*
X104992962Y-103463502D01*
X104801874Y-103384350D01*
X104599016Y-103344000D01*
X104392184Y-103344000D01*
X104189326Y-103384350D01*
X103998238Y-103463502D01*
X103826264Y-103578411D01*
X103680011Y-103724664D01*
X103565102Y-103896638D01*
X103485950Y-104087726D01*
X103445600Y-104290584D01*
X100487300Y-104290584D01*
X100487300Y-101750584D01*
X103445600Y-101750584D01*
X103445600Y-101957416D01*
X103485950Y-102160274D01*
X103565102Y-102351362D01*
X103680011Y-102523336D01*
X103826264Y-102669589D01*
X103998238Y-102784498D01*
X104189326Y-102863650D01*
X104392184Y-102904000D01*
X104599016Y-102904000D01*
X104801874Y-102863650D01*
X104992962Y-102784498D01*
X105164936Y-102669589D01*
X105311189Y-102523336D01*
X105426098Y-102351362D01*
X105505250Y-102160274D01*
X105545600Y-101957416D01*
X105545600Y-101750584D01*
X105505250Y-101547726D01*
X105426098Y-101356638D01*
X105311189Y-101184664D01*
X105164936Y-101038411D01*
X104992962Y-100923502D01*
X104801874Y-100844350D01*
X104599016Y-100804000D01*
X104392184Y-100804000D01*
X104189326Y-100844350D01*
X103998238Y-100923502D01*
X103826264Y-101038411D01*
X103680011Y-101184664D01*
X103565102Y-101356638D01*
X103485950Y-101547726D01*
X103445600Y-101750584D01*
X100487300Y-101750584D01*
X100487300Y-97506415D01*
X100489114Y-97487999D01*
X100487300Y-97469581D01*
X100481874Y-97414487D01*
X100464249Y-97356384D01*
X102125600Y-97356384D01*
X102125600Y-97563216D01*
X102165950Y-97766074D01*
X102245102Y-97957162D01*
X102360011Y-98129136D01*
X102506264Y-98275389D01*
X102678238Y-98390298D01*
X102869326Y-98469450D01*
X103072184Y-98509800D01*
X103279016Y-98509800D01*
X103481874Y-98469450D01*
X103672962Y-98390298D01*
X103844936Y-98275389D01*
X103991189Y-98129136D01*
X104106098Y-97957162D01*
X104185250Y-97766074D01*
X104225600Y-97563216D01*
X104225600Y-97356384D01*
X104185250Y-97153526D01*
X104106098Y-96962438D01*
X103991189Y-96790464D01*
X103844936Y-96644211D01*
X103672962Y-96529302D01*
X103550600Y-96478618D01*
X103550600Y-94582129D01*
X104057364Y-94075366D01*
X104179726Y-94126050D01*
X104382584Y-94166400D01*
X104589416Y-94166400D01*
X104792274Y-94126050D01*
X104983362Y-94046898D01*
X105155336Y-93931989D01*
X105301589Y-93785736D01*
X105416498Y-93613762D01*
X105495650Y-93422674D01*
X105536000Y-93219816D01*
X105536000Y-93012984D01*
X105495650Y-92810126D01*
X105416498Y-92619038D01*
X105301589Y-92447064D01*
X105155336Y-92300811D01*
X104983362Y-92185902D01*
X104792274Y-92106750D01*
X104589416Y-92066400D01*
X104382584Y-92066400D01*
X104179726Y-92106750D01*
X103988638Y-92185902D01*
X103816664Y-92300811D01*
X103670411Y-92447064D01*
X103555502Y-92619038D01*
X103476350Y-92810126D01*
X103436000Y-93012984D01*
X103436000Y-93219816D01*
X103476350Y-93422674D01*
X103527034Y-93545036D01*
X102923466Y-94148605D01*
X102909152Y-94160352D01*
X102862291Y-94217454D01*
X102827469Y-94282601D01*
X102806026Y-94353288D01*
X102800600Y-94408381D01*
X102798786Y-94426800D01*
X102800600Y-94445216D01*
X102800601Y-96478617D01*
X102678238Y-96529302D01*
X102506264Y-96644211D01*
X102360011Y-96790464D01*
X102245102Y-96962438D01*
X102165950Y-97153526D01*
X102125600Y-97356384D01*
X100464249Y-97356384D01*
X100460431Y-97343800D01*
X100439521Y-97304680D01*
X100425609Y-97278652D01*
X100390488Y-97235858D01*
X100378748Y-97221552D01*
X100364439Y-97209809D01*
X97248928Y-94094299D01*
X97363362Y-94046898D01*
X97535336Y-93931989D01*
X97681589Y-93785736D01*
X97796498Y-93613762D01*
X97875650Y-93422674D01*
X97916000Y-93219816D01*
X97916000Y-93012984D01*
X97875650Y-92810126D01*
X97796498Y-92619038D01*
X97681589Y-92447064D01*
X97535336Y-92300811D01*
X97363362Y-92185902D01*
X97172274Y-92106750D01*
X96969416Y-92066400D01*
X96762584Y-92066400D01*
X96559726Y-92106750D01*
X96368638Y-92185902D01*
X96196664Y-92300811D01*
X96050411Y-92447064D01*
X95935502Y-92619038D01*
X95856350Y-92810126D01*
X95816000Y-93012984D01*
X88897200Y-93012984D01*
X88897200Y-89075000D01*
X146510000Y-89075000D01*
X146510001Y-126723400D01*
G37*
X146510001Y-126723400D02*
X88897200Y-126723400D01*
X88897200Y-117199000D01*
X90237191Y-117199000D01*
X90237191Y-118899000D01*
X90242018Y-118948008D01*
X90256313Y-118995134D01*
X90279527Y-119038564D01*
X90310768Y-119076632D01*
X90348836Y-119107873D01*
X90392266Y-119131087D01*
X90439392Y-119145382D01*
X90488400Y-119150209D01*
X92188400Y-119150209D01*
X92237408Y-119145382D01*
X92284534Y-119131087D01*
X92327964Y-119107873D01*
X92366032Y-119076632D01*
X92397273Y-119038564D01*
X92420487Y-118995134D01*
X92434782Y-118948008D01*
X92439609Y-118899000D01*
X92439609Y-117199000D01*
X92434782Y-117149992D01*
X92420487Y-117102866D01*
X92397273Y-117059436D01*
X92366032Y-117021368D01*
X92328521Y-116990584D01*
X95825600Y-116990584D01*
X95825600Y-117197416D01*
X95865950Y-117400274D01*
X95945102Y-117591362D01*
X96060011Y-117763336D01*
X96206264Y-117909589D01*
X96378238Y-118024498D01*
X96569326Y-118103650D01*
X96772184Y-118144000D01*
X96979016Y-118144000D01*
X97181874Y-118103650D01*
X97372962Y-118024498D01*
X97544936Y-117909589D01*
X97691189Y-117763336D01*
X97806098Y-117591362D01*
X97885250Y-117400274D01*
X97925600Y-117197416D01*
X97925600Y-116990584D01*
X97885250Y-116787726D01*
X97806098Y-116596638D01*
X97691189Y-116424664D01*
X97544936Y-116278411D01*
X97372962Y-116163502D01*
X97181874Y-116084350D01*
X96979016Y-116044000D01*
X96772184Y-116044000D01*
X96569326Y-116084350D01*
X96378238Y-116163502D01*
X96206264Y-116278411D01*
X96060011Y-116424664D01*
X95945102Y-116596638D01*
X95865950Y-116787726D01*
X95825600Y-116990584D01*
X92328521Y-116990584D01*
X92327964Y-116990127D01*
X92284534Y-116966913D01*
X92237408Y-116952618D01*
X92188400Y-116947791D01*
X90488400Y-116947791D01*
X90439392Y-116952618D01*
X90392266Y-116966913D01*
X90348836Y-116990127D01*
X90310768Y-117021368D01*
X90279527Y-117059436D01*
X90256313Y-117102866D01*
X90242018Y-117149992D01*
X90237191Y-117199000D01*
X88897200Y-117199000D01*
X88897200Y-115400659D01*
X90238400Y-115400659D01*
X90238400Y-115617341D01*
X90280673Y-115829858D01*
X90363593Y-116030045D01*
X90483975Y-116210209D01*
X90637191Y-116363425D01*
X90817355Y-116483807D01*
X91017542Y-116566727D01*
X91230059Y-116609000D01*
X91446741Y-116609000D01*
X91659258Y-116566727D01*
X91859445Y-116483807D01*
X92039609Y-116363425D01*
X92192825Y-116210209D01*
X92313207Y-116030045D01*
X92396127Y-115829858D01*
X92438400Y-115617341D01*
X92438400Y-115400659D01*
X92396127Y-115188142D01*
X92313207Y-114987955D01*
X92192825Y-114807791D01*
X92039609Y-114654575D01*
X91859445Y-114534193D01*
X91659258Y-114451273D01*
X91655795Y-114450584D01*
X95825600Y-114450584D01*
X95825600Y-114657416D01*
X95865950Y-114860274D01*
X95945102Y-115051362D01*
X96060011Y-115223336D01*
X96206264Y-115369589D01*
X96378238Y-115484498D01*
X96569326Y-115563650D01*
X96772184Y-115604000D01*
X96979016Y-115604000D01*
X97181874Y-115563650D01*
X97372962Y-115484498D01*
X97544936Y-115369589D01*
X97691189Y-115223336D01*
X97806098Y-115051362D01*
X97885250Y-114860274D01*
X97925600Y-114657416D01*
X97925600Y-114450584D01*
X97885250Y-114247726D01*
X97806098Y-114056638D01*
X97691189Y-113884664D01*
X97544936Y-113738411D01*
X97372962Y-113623502D01*
X97181874Y-113544350D01*
X96979016Y-113504000D01*
X96772184Y-113504000D01*
X96569326Y-113544350D01*
X96378238Y-113623502D01*
X96206264Y-113738411D01*
X96060011Y-113884664D01*
X95945102Y-114056638D01*
X95865950Y-114247726D01*
X95825600Y-114450584D01*
X91655795Y-114450584D01*
X91446741Y-114409000D01*
X91230059Y-114409000D01*
X91017542Y-114451273D01*
X90817355Y-114534193D01*
X90637191Y-114654575D01*
X90483975Y-114807791D01*
X90363593Y-114987955D01*
X90280673Y-115188142D01*
X90238400Y-115400659D01*
X88897200Y-115400659D01*
X88897200Y-112860659D01*
X90238400Y-112860659D01*
X90238400Y-113077341D01*
X90280673Y-113289858D01*
X90363593Y-113490045D01*
X90483975Y-113670209D01*
X90637191Y-113823425D01*
X90817355Y-113943807D01*
X91017542Y-114026727D01*
X91230059Y-114069000D01*
X91446741Y-114069000D01*
X91659258Y-114026727D01*
X91859445Y-113943807D01*
X92039609Y-113823425D01*
X92192825Y-113670209D01*
X92313207Y-113490045D01*
X92396127Y-113289858D01*
X92438400Y-113077341D01*
X92438400Y-112860659D01*
X92396127Y-112648142D01*
X92335633Y-112502096D01*
X92927145Y-111910584D01*
X95825600Y-111910584D01*
X95825600Y-112117416D01*
X95865950Y-112320274D01*
X95945102Y-112511362D01*
X96060011Y-112683336D01*
X96206264Y-112829589D01*
X96378238Y-112944498D01*
X96569326Y-113023650D01*
X96772184Y-113064000D01*
X96979016Y-113064000D01*
X97181874Y-113023650D01*
X97372962Y-112944498D01*
X97544936Y-112829589D01*
X97691189Y-112683336D01*
X97806098Y-112511362D01*
X97885250Y-112320274D01*
X97925600Y-112117416D01*
X97925600Y-111910584D01*
X97885250Y-111707726D01*
X97806098Y-111516638D01*
X97691189Y-111344664D01*
X97544936Y-111198411D01*
X97372962Y-111083502D01*
X97181874Y-111004350D01*
X96979016Y-110964000D01*
X96772184Y-110964000D01*
X96569326Y-111004350D01*
X96378238Y-111083502D01*
X96206264Y-111198411D01*
X96060011Y-111344664D01*
X95945102Y-111516638D01*
X95865950Y-111707726D01*
X95825600Y-111910584D01*
X92927145Y-111910584D01*
X94384539Y-110453191D01*
X94398848Y-110441448D01*
X94429172Y-110404498D01*
X94445710Y-110384347D01*
X94480530Y-110319201D01*
X94480531Y-110319200D01*
X94501974Y-110248513D01*
X94507400Y-110193419D01*
X94507400Y-110193416D01*
X94509214Y-110175000D01*
X94507400Y-110156584D01*
X94507400Y-109370584D01*
X95825600Y-109370584D01*
X95825600Y-109577416D01*
X95865950Y-109780274D01*
X95945102Y-109971362D01*
X96060011Y-110143336D01*
X96206264Y-110289589D01*
X96378238Y-110404498D01*
X96569326Y-110483650D01*
X96772184Y-110524000D01*
X96979016Y-110524000D01*
X97181874Y-110483650D01*
X97372962Y-110404498D01*
X97544936Y-110289589D01*
X97691189Y-110143336D01*
X97806098Y-109971362D01*
X97885250Y-109780274D01*
X97925600Y-109577416D01*
X97925600Y-109370584D01*
X97885250Y-109167726D01*
X97806098Y-108976638D01*
X97691189Y-108804664D01*
X97544936Y-108658411D01*
X97372962Y-108543502D01*
X97181874Y-108464350D01*
X96979016Y-108424000D01*
X96772184Y-108424000D01*
X96569326Y-108464350D01*
X96378238Y-108543502D01*
X96206264Y-108658411D01*
X96060011Y-108804664D01*
X95945102Y-108976638D01*
X95865950Y-109167726D01*
X95825600Y-109370584D01*
X94507400Y-109370584D01*
X94507400Y-106830584D01*
X95825600Y-106830584D01*
X95825600Y-107037416D01*
X95865950Y-107240274D01*
X95945102Y-107431362D01*
X96060011Y-107603336D01*
X96206264Y-107749589D01*
X96378238Y-107864498D01*
X96569326Y-107943650D01*
X96772184Y-107984000D01*
X96979016Y-107984000D01*
X97181874Y-107943650D01*
X97372962Y-107864498D01*
X97544936Y-107749589D01*
X97691189Y-107603336D01*
X97806098Y-107431362D01*
X97885250Y-107240274D01*
X97925600Y-107037416D01*
X97925600Y-106830584D01*
X97885250Y-106627726D01*
X97806098Y-106436638D01*
X97691189Y-106264664D01*
X97544936Y-106118411D01*
X97372962Y-106003502D01*
X97181874Y-105924350D01*
X96979016Y-105884000D01*
X96772184Y-105884000D01*
X96569326Y-105924350D01*
X96378238Y-106003502D01*
X96206264Y-106118411D01*
X96060011Y-106264664D01*
X95945102Y-106436638D01*
X95865950Y-106627726D01*
X95825600Y-106830584D01*
X94507400Y-106830584D01*
X94507400Y-104290584D01*
X95825600Y-104290584D01*
X95825600Y-104497416D01*
X95865950Y-104700274D01*
X95945102Y-104891362D01*
X96060011Y-105063336D01*
X96206264Y-105209589D01*
X96378238Y-105324498D01*
X96569326Y-105403650D01*
X96772184Y-105444000D01*
X96979016Y-105444000D01*
X97181874Y-105403650D01*
X97372962Y-105324498D01*
X97544936Y-105209589D01*
X97691189Y-105063336D01*
X97806098Y-104891362D01*
X97885250Y-104700274D01*
X97925600Y-104497416D01*
X97925600Y-104290584D01*
X97885250Y-104087726D01*
X97806098Y-103896638D01*
X97691189Y-103724664D01*
X97544936Y-103578411D01*
X97372962Y-103463502D01*
X97181874Y-103384350D01*
X96979016Y-103344000D01*
X96772184Y-103344000D01*
X96569326Y-103384350D01*
X96378238Y-103463502D01*
X96206264Y-103578411D01*
X96060011Y-103724664D01*
X95945102Y-103896638D01*
X95865950Y-104087726D01*
X95825600Y-104290584D01*
X94507400Y-104290584D01*
X94507400Y-103660329D01*
X95824391Y-102343339D01*
X95824391Y-102654000D01*
X95829218Y-102703008D01*
X95843513Y-102750134D01*
X95866727Y-102793564D01*
X95897968Y-102831632D01*
X95936036Y-102862873D01*
X95979466Y-102886087D01*
X96026592Y-102900382D01*
X96075600Y-102905209D01*
X97675600Y-102905209D01*
X97724608Y-102900382D01*
X97771734Y-102886087D01*
X97815164Y-102862873D01*
X97853232Y-102831632D01*
X97884473Y-102793564D01*
X97907687Y-102750134D01*
X97921982Y-102703008D01*
X97926809Y-102654000D01*
X97926809Y-101054000D01*
X97921982Y-101004992D01*
X97907687Y-100957866D01*
X97884473Y-100914436D01*
X97853232Y-100876368D01*
X97815164Y-100845127D01*
X97771734Y-100821913D01*
X97724608Y-100807618D01*
X97675600Y-100802791D01*
X96075600Y-100802791D01*
X96026592Y-100807618D01*
X95979466Y-100821913D01*
X95936036Y-100845127D01*
X95897968Y-100876368D01*
X95866727Y-100914436D01*
X95843513Y-100957866D01*
X95829218Y-101004992D01*
X95824391Y-101054000D01*
X95824391Y-101479000D01*
X95801816Y-101479000D01*
X95783400Y-101477186D01*
X95764984Y-101479000D01*
X95764981Y-101479000D01*
X95709887Y-101484426D01*
X95639200Y-101505869D01*
X95618507Y-101516930D01*
X95574053Y-101540690D01*
X95548760Y-101561448D01*
X95516952Y-101587552D01*
X95505209Y-101601861D01*
X93880266Y-103226805D01*
X93865952Y-103238552D01*
X93819091Y-103295654D01*
X93784269Y-103360801D01*
X93762826Y-103431488D01*
X93758591Y-103474488D01*
X93755586Y-103505000D01*
X93757400Y-103523416D01*
X93757401Y-110019669D01*
X91805304Y-111971767D01*
X91659258Y-111911273D01*
X91446741Y-111869000D01*
X91230059Y-111869000D01*
X91017542Y-111911273D01*
X90817355Y-111994193D01*
X90637191Y-112114575D01*
X90483975Y-112267791D01*
X90363593Y-112447955D01*
X90280673Y-112648142D01*
X90238400Y-112860659D01*
X88897200Y-112860659D01*
X88897200Y-107780659D01*
X90238400Y-107780659D01*
X90238400Y-107997341D01*
X90280673Y-108209858D01*
X90363593Y-108410045D01*
X90483975Y-108590209D01*
X90637191Y-108743425D01*
X90817355Y-108863807D01*
X91017542Y-108946727D01*
X91230059Y-108989000D01*
X91446741Y-108989000D01*
X91659258Y-108946727D01*
X91859445Y-108863807D01*
X92039609Y-108743425D01*
X92192825Y-108590209D01*
X92313207Y-108410045D01*
X92396127Y-108209858D01*
X92438400Y-107997341D01*
X92438400Y-107780659D01*
X92396127Y-107568142D01*
X92313207Y-107367955D01*
X92192825Y-107187791D01*
X92039609Y-107034575D01*
X91859445Y-106914193D01*
X91659258Y-106831273D01*
X91446741Y-106789000D01*
X91230059Y-106789000D01*
X91017542Y-106831273D01*
X90817355Y-106914193D01*
X90637191Y-107034575D01*
X90483975Y-107187791D01*
X90363593Y-107367955D01*
X90280673Y-107568142D01*
X90238400Y-107780659D01*
X88897200Y-107780659D01*
X88897200Y-105240659D01*
X90238400Y-105240659D01*
X90238400Y-105457341D01*
X90280673Y-105669858D01*
X90363593Y-105870045D01*
X90483975Y-106050209D01*
X90637191Y-106203425D01*
X90817355Y-106323807D01*
X91017542Y-106406727D01*
X91230059Y-106449000D01*
X91446741Y-106449000D01*
X91659258Y-106406727D01*
X91859445Y-106323807D01*
X92039609Y-106203425D01*
X92192825Y-106050209D01*
X92313207Y-105870045D01*
X92396127Y-105669858D01*
X92438400Y-105457341D01*
X92438400Y-105240659D01*
X92396127Y-105028142D01*
X92313207Y-104827955D01*
X92192825Y-104647791D01*
X92039609Y-104494575D01*
X91859445Y-104374193D01*
X91659258Y-104291273D01*
X91446741Y-104249000D01*
X91230059Y-104249000D01*
X91017542Y-104291273D01*
X90817355Y-104374193D01*
X90637191Y-104494575D01*
X90483975Y-104647791D01*
X90363593Y-104827955D01*
X90280673Y-105028142D01*
X90238400Y-105240659D01*
X88897200Y-105240659D01*
X88897200Y-102700659D01*
X90238400Y-102700659D01*
X90238400Y-102917341D01*
X90280673Y-103129858D01*
X90363593Y-103330045D01*
X90483975Y-103510209D01*
X90637191Y-103663425D01*
X90817355Y-103783807D01*
X91017542Y-103866727D01*
X91230059Y-103909000D01*
X91446741Y-103909000D01*
X91659258Y-103866727D01*
X91859445Y-103783807D01*
X92039609Y-103663425D01*
X92192825Y-103510209D01*
X92313207Y-103330045D01*
X92396127Y-103129858D01*
X92438400Y-102917341D01*
X92438400Y-102700659D01*
X92396127Y-102488142D01*
X92313207Y-102287955D01*
X92192825Y-102107791D01*
X92039609Y-101954575D01*
X91859445Y-101834193D01*
X91659258Y-101751273D01*
X91446741Y-101709000D01*
X91230059Y-101709000D01*
X91017542Y-101751273D01*
X90817355Y-101834193D01*
X90637191Y-101954575D01*
X90483975Y-102107791D01*
X90363593Y-102287955D01*
X90280673Y-102488142D01*
X90238400Y-102700659D01*
X88897200Y-102700659D01*
X88897200Y-100160659D01*
X90238400Y-100160659D01*
X90238400Y-100377341D01*
X90280673Y-100589858D01*
X90363593Y-100790045D01*
X90483975Y-100970209D01*
X90637191Y-101123425D01*
X90817355Y-101243807D01*
X91017542Y-101326727D01*
X91230059Y-101369000D01*
X91446741Y-101369000D01*
X91659258Y-101326727D01*
X91859445Y-101243807D01*
X92039609Y-101123425D01*
X92192825Y-100970209D01*
X92313207Y-100790045D01*
X92396127Y-100589858D01*
X92438400Y-100377341D01*
X92438400Y-100160659D01*
X92396127Y-99948142D01*
X92313207Y-99747955D01*
X92192825Y-99567791D01*
X92039609Y-99414575D01*
X91859445Y-99294193D01*
X91659258Y-99211273D01*
X91446741Y-99169000D01*
X91230059Y-99169000D01*
X91017542Y-99211273D01*
X90817355Y-99294193D01*
X90637191Y-99414575D01*
X90483975Y-99567791D01*
X90363593Y-99747955D01*
X90280673Y-99948142D01*
X90238400Y-100160659D01*
X88897200Y-100160659D01*
X88897200Y-97620659D01*
X90238400Y-97620659D01*
X90238400Y-97837341D01*
X90280673Y-98049858D01*
X90363593Y-98250045D01*
X90483975Y-98430209D01*
X90637191Y-98583425D01*
X90817355Y-98703807D01*
X91017542Y-98786727D01*
X91230059Y-98829000D01*
X91446741Y-98829000D01*
X91659258Y-98786727D01*
X91859445Y-98703807D01*
X92039609Y-98583425D01*
X92192825Y-98430209D01*
X92313207Y-98250045D01*
X92396127Y-98049858D01*
X92438400Y-97837341D01*
X92438400Y-97620659D01*
X92396127Y-97408142D01*
X92313207Y-97207955D01*
X92192825Y-97027791D01*
X92039609Y-96874575D01*
X91859445Y-96754193D01*
X91659258Y-96671273D01*
X91446741Y-96629000D01*
X91230059Y-96629000D01*
X91017542Y-96671273D01*
X90817355Y-96754193D01*
X90637191Y-96874575D01*
X90483975Y-97027791D01*
X90363593Y-97207955D01*
X90280673Y-97408142D01*
X90238400Y-97620659D01*
X88897200Y-97620659D01*
X88897200Y-93012984D01*
X95816000Y-93012984D01*
X95816000Y-93219816D01*
X95856350Y-93422674D01*
X95935502Y-93613762D01*
X96050411Y-93785736D01*
X96196664Y-93931989D01*
X96368638Y-94046898D01*
X96491000Y-94097583D01*
X96491000Y-94223284D01*
X96489186Y-94241700D01*
X96491000Y-94260116D01*
X96491000Y-94260118D01*
X96496426Y-94315212D01*
X96517869Y-94385899D01*
X96552691Y-94451046D01*
X96599552Y-94508148D01*
X96613866Y-94519895D01*
X98588136Y-96494166D01*
X98481874Y-96450150D01*
X98279016Y-96409800D01*
X98072184Y-96409800D01*
X97869326Y-96450150D01*
X97678238Y-96529302D01*
X97506264Y-96644211D01*
X97360011Y-96790464D01*
X97245102Y-96962438D01*
X97165950Y-97153526D01*
X97125600Y-97356384D01*
X97125600Y-97563216D01*
X97165950Y-97766074D01*
X97245102Y-97957162D01*
X97360011Y-98129136D01*
X97506264Y-98275389D01*
X97678238Y-98390298D01*
X97869326Y-98469450D01*
X98072184Y-98509800D01*
X98279016Y-98509800D01*
X98481874Y-98469450D01*
X98604236Y-98418766D01*
X98964401Y-98778931D01*
X98964400Y-112782984D01*
X98962586Y-112801400D01*
X98964400Y-112819816D01*
X98964400Y-112819818D01*
X98969826Y-112874912D01*
X98991269Y-112945599D01*
X99026091Y-113010746D01*
X99072952Y-113067848D01*
X99087266Y-113079595D01*
X103353809Y-117346139D01*
X103365552Y-117360448D01*
X103422653Y-117407309D01*
X103487800Y-117442131D01*
X103505514Y-117447504D01*
X103565102Y-117591362D01*
X103680011Y-117763336D01*
X103826264Y-117909589D01*
X103998238Y-118024498D01*
X104189326Y-118103650D01*
X104392184Y-118144000D01*
X104599016Y-118144000D01*
X104801874Y-118103650D01*
X104992962Y-118024498D01*
X105057187Y-117981584D01*
X107637000Y-117981584D01*
X107637000Y-118188416D01*
X107677350Y-118391274D01*
X107756502Y-118582362D01*
X107871411Y-118754336D01*
X108017664Y-118900589D01*
X108189638Y-119015498D01*
X108380726Y-119094650D01*
X108583584Y-119135000D01*
X108790416Y-119135000D01*
X108993274Y-119094650D01*
X109184362Y-119015498D01*
X109356336Y-118900589D01*
X109502589Y-118754336D01*
X109617498Y-118582362D01*
X109696650Y-118391274D01*
X109719777Y-118275000D01*
X120323791Y-118275000D01*
X120323791Y-119875000D01*
X120328618Y-119924008D01*
X120342913Y-119971134D01*
X120366127Y-120014564D01*
X120397368Y-120052632D01*
X120435436Y-120083873D01*
X120478866Y-120107087D01*
X120525992Y-120121382D01*
X120575000Y-120126209D01*
X122175000Y-120126209D01*
X122224008Y-120121382D01*
X122271134Y-120107087D01*
X122314564Y-120083873D01*
X122352632Y-120052632D01*
X122383873Y-120014564D01*
X122407087Y-119971134D01*
X122421382Y-119924008D01*
X122426209Y-119875000D01*
X122426209Y-118971584D01*
X122825000Y-118971584D01*
X122825000Y-119178416D01*
X122865350Y-119381274D01*
X122944502Y-119572362D01*
X123059411Y-119744336D01*
X123205664Y-119890589D01*
X123377638Y-120005498D01*
X123568726Y-120084650D01*
X123771584Y-120125000D01*
X123978416Y-120125000D01*
X124181274Y-120084650D01*
X124372362Y-120005498D01*
X124544336Y-119890589D01*
X124690589Y-119744336D01*
X124805498Y-119572362D01*
X124884650Y-119381274D01*
X124925000Y-119178416D01*
X124925000Y-118971584D01*
X124884650Y-118768726D01*
X124805498Y-118577638D01*
X124690589Y-118405664D01*
X124544336Y-118259411D01*
X124372362Y-118144502D01*
X124181274Y-118065350D01*
X123978416Y-118025000D01*
X123771584Y-118025000D01*
X123568726Y-118065350D01*
X123377638Y-118144502D01*
X123205664Y-118259411D01*
X123059411Y-118405664D01*
X122944502Y-118577638D01*
X122865350Y-118768726D01*
X122825000Y-118971584D01*
X122426209Y-118971584D01*
X122426209Y-118275000D01*
X122421382Y-118225992D01*
X122407087Y-118178866D01*
X122383873Y-118135436D01*
X122352632Y-118097368D01*
X122314564Y-118066127D01*
X122271134Y-118042913D01*
X122224008Y-118028618D01*
X122175000Y-118023791D01*
X120575000Y-118023791D01*
X120525992Y-118028618D01*
X120478866Y-118042913D01*
X120435436Y-118066127D01*
X120397368Y-118097368D01*
X120366127Y-118135436D01*
X120342913Y-118178866D01*
X120328618Y-118225992D01*
X120323791Y-118275000D01*
X109719777Y-118275000D01*
X109737000Y-118188416D01*
X109737000Y-117981584D01*
X109696650Y-117778726D01*
X109645965Y-117656364D01*
X113688330Y-113614000D01*
X115325818Y-113614000D01*
X115376502Y-113736362D01*
X115491411Y-113908336D01*
X115637664Y-114054589D01*
X115809638Y-114169498D01*
X116000726Y-114248650D01*
X116203584Y-114289000D01*
X116410416Y-114289000D01*
X116613274Y-114248650D01*
X116804362Y-114169498D01*
X116976336Y-114054589D01*
X117122589Y-113908336D01*
X117237498Y-113736362D01*
X117288182Y-113614000D01*
X121468084Y-113614000D01*
X121486500Y-113615814D01*
X121504916Y-113614000D01*
X121504919Y-113614000D01*
X121560013Y-113608574D01*
X121630700Y-113587131D01*
X121695847Y-113552309D01*
X121752948Y-113505448D01*
X121764695Y-113491134D01*
X124386245Y-110869584D01*
X127880000Y-110869584D01*
X127880000Y-111076416D01*
X127920350Y-111279274D01*
X127999502Y-111470362D01*
X128114411Y-111642336D01*
X128260664Y-111788589D01*
X128432638Y-111903498D01*
X128555000Y-111954183D01*
X128555001Y-113474817D01*
X128432638Y-113525502D01*
X128260664Y-113640411D01*
X128114411Y-113786664D01*
X127999502Y-113958638D01*
X127920350Y-114149726D01*
X127880000Y-114352584D01*
X127880000Y-114559416D01*
X127920350Y-114762274D01*
X127999502Y-114953362D01*
X128114411Y-115125336D01*
X128260664Y-115271589D01*
X128432638Y-115386498D01*
X128623726Y-115465650D01*
X128826584Y-115506000D01*
X129033416Y-115506000D01*
X129236274Y-115465650D01*
X129427362Y-115386498D01*
X129599336Y-115271589D01*
X129745589Y-115125336D01*
X129860498Y-114953362D01*
X129939650Y-114762274D01*
X129980000Y-114559416D01*
X129980000Y-114352584D01*
X129939650Y-114149726D01*
X129860498Y-113958638D01*
X129745589Y-113786664D01*
X129599336Y-113640411D01*
X129427362Y-113525502D01*
X129305000Y-113474818D01*
X129305000Y-111954182D01*
X129427362Y-111903498D01*
X129599336Y-111788589D01*
X129745589Y-111642336D01*
X129860498Y-111470362D01*
X129939650Y-111279274D01*
X129980000Y-111076416D01*
X129980000Y-110869584D01*
X129939650Y-110666726D01*
X129860498Y-110475638D01*
X129745589Y-110303664D01*
X129599336Y-110157411D01*
X129427362Y-110042502D01*
X129236274Y-109963350D01*
X129033416Y-109923000D01*
X128826584Y-109923000D01*
X128623726Y-109963350D01*
X128432638Y-110042502D01*
X128260664Y-110157411D01*
X128114411Y-110303664D01*
X127999502Y-110475638D01*
X127920350Y-110666726D01*
X127880000Y-110869584D01*
X124386245Y-110869584D01*
X133585830Y-101670000D01*
X134529680Y-101670000D01*
X134560494Y-101727650D01*
X134657341Y-101845659D01*
X134760111Y-101930000D01*
X134657341Y-102014341D01*
X134560494Y-102132350D01*
X134529680Y-102190000D01*
X134376119Y-102190000D01*
X134357700Y-102188186D01*
X134339281Y-102190000D01*
X134284187Y-102195426D01*
X134213500Y-102216869D01*
X134148353Y-102251691D01*
X134091252Y-102298552D01*
X134044391Y-102355653D01*
X134009569Y-102420800D01*
X133988126Y-102491487D01*
X133980886Y-102565000D01*
X133982700Y-102583419D01*
X133982701Y-110166571D01*
X133980886Y-110185000D01*
X133988126Y-110258513D01*
X134009569Y-110329200D01*
X134044391Y-110394347D01*
X134091252Y-110451448D01*
X134148353Y-110498309D01*
X134213500Y-110533131D01*
X134284187Y-110554574D01*
X134339281Y-110560000D01*
X134357700Y-110561814D01*
X134376119Y-110560000D01*
X134431791Y-110560000D01*
X134431791Y-110710000D01*
X134436618Y-110759008D01*
X134450913Y-110806134D01*
X134474127Y-110849564D01*
X134505368Y-110887632D01*
X134543436Y-110918873D01*
X134586866Y-110942087D01*
X134633992Y-110956382D01*
X134683000Y-110961209D01*
X134698001Y-110961209D01*
X134698000Y-112785817D01*
X134575638Y-112836502D01*
X134403664Y-112951411D01*
X134257411Y-113097664D01*
X134142502Y-113269638D01*
X134063350Y-113460726D01*
X134023000Y-113663584D01*
X134023000Y-113870416D01*
X134063350Y-114073274D01*
X134142502Y-114264362D01*
X134257411Y-114436336D01*
X134403664Y-114582589D01*
X134575638Y-114697498D01*
X134766726Y-114776650D01*
X134969584Y-114817000D01*
X135176416Y-114817000D01*
X135379274Y-114776650D01*
X135570362Y-114697498D01*
X135742336Y-114582589D01*
X135888589Y-114436336D01*
X136003498Y-114264362D01*
X136082650Y-114073274D01*
X136123000Y-113870416D01*
X136123000Y-113663584D01*
X136082650Y-113460726D01*
X136003498Y-113269638D01*
X135888589Y-113097664D01*
X135742336Y-112951411D01*
X135570362Y-112836502D01*
X135448000Y-112785818D01*
X135448000Y-110961209D01*
X136183000Y-110961209D01*
X136232008Y-110956382D01*
X136279134Y-110942087D01*
X136322564Y-110918873D01*
X136360632Y-110887632D01*
X136391873Y-110849564D01*
X136415087Y-110806134D01*
X136429382Y-110759008D01*
X136434209Y-110710000D01*
X136434209Y-109660000D01*
X136429382Y-109610992D01*
X136415087Y-109563866D01*
X136391873Y-109520436D01*
X136360632Y-109482368D01*
X136322564Y-109451127D01*
X136279134Y-109427913D01*
X136247509Y-109418320D01*
X136305506Y-109347650D01*
X136377470Y-109213014D01*
X136421786Y-109066926D01*
X136436749Y-108915000D01*
X136426079Y-108806659D01*
X141216000Y-108806659D01*
X141216000Y-109023341D01*
X141258273Y-109235858D01*
X141341193Y-109436045D01*
X141461575Y-109616209D01*
X141614791Y-109769425D01*
X141794955Y-109889807D01*
X141995142Y-109972727D01*
X142207659Y-110015000D01*
X142424341Y-110015000D01*
X142636858Y-109972727D01*
X142837045Y-109889807D01*
X143017209Y-109769425D01*
X143170425Y-109616209D01*
X143290807Y-109436045D01*
X143373727Y-109235858D01*
X143416000Y-109023341D01*
X143416000Y-108806659D01*
X143373727Y-108594142D01*
X143290807Y-108393955D01*
X143170425Y-108213791D01*
X143017209Y-108060575D01*
X142837045Y-107940193D01*
X142636858Y-107857273D01*
X142424341Y-107815000D01*
X142207659Y-107815000D01*
X141995142Y-107857273D01*
X141794955Y-107940193D01*
X141614791Y-108060575D01*
X141461575Y-108213791D01*
X141341193Y-108393955D01*
X141258273Y-108594142D01*
X141216000Y-108806659D01*
X136426079Y-108806659D01*
X136421786Y-108763074D01*
X136377470Y-108616986D01*
X136305506Y-108482350D01*
X136208659Y-108364341D01*
X136105889Y-108280000D01*
X136208659Y-108195659D01*
X136305506Y-108077650D01*
X136377470Y-107943014D01*
X136421786Y-107796926D01*
X136436749Y-107645000D01*
X136421786Y-107493074D01*
X136377470Y-107346986D01*
X136305506Y-107212350D01*
X136208659Y-107094341D01*
X136090650Y-106997494D01*
X135956014Y-106925530D01*
X135809926Y-106881214D01*
X135696065Y-106870000D01*
X135169935Y-106870000D01*
X135056074Y-106881214D01*
X134909986Y-106925530D01*
X134775350Y-106997494D01*
X134732700Y-107032496D01*
X134732700Y-105525000D01*
X141214791Y-105525000D01*
X141214791Y-107225000D01*
X141219618Y-107274008D01*
X141233913Y-107321134D01*
X141257127Y-107364564D01*
X141288368Y-107402632D01*
X141326436Y-107433873D01*
X141369866Y-107457087D01*
X141416992Y-107471382D01*
X141466000Y-107476209D01*
X143166000Y-107476209D01*
X143215008Y-107471382D01*
X143262134Y-107457087D01*
X143305564Y-107433873D01*
X143343632Y-107402632D01*
X143374873Y-107364564D01*
X143398087Y-107321134D01*
X143412382Y-107274008D01*
X143417209Y-107225000D01*
X143417209Y-105525000D01*
X143412382Y-105475992D01*
X143398087Y-105428866D01*
X143374873Y-105385436D01*
X143343632Y-105347368D01*
X143305564Y-105316127D01*
X143262134Y-105292913D01*
X143215008Y-105278618D01*
X143166000Y-105273791D01*
X142691000Y-105273791D01*
X142691000Y-98968829D01*
X143533139Y-98126691D01*
X143547448Y-98114948D01*
X143594309Y-98057847D01*
X143629131Y-97992700D01*
X143650574Y-97922013D01*
X143656000Y-97866919D01*
X143656000Y-97866917D01*
X143657814Y-97848501D01*
X143656000Y-97830085D01*
X143656000Y-97704382D01*
X143778362Y-97653698D01*
X143950336Y-97538789D01*
X144096589Y-97392536D01*
X144211498Y-97220562D01*
X144290650Y-97029474D01*
X144331000Y-96826616D01*
X144331000Y-96619784D01*
X144290650Y-96416926D01*
X144211498Y-96225838D01*
X144096589Y-96053864D01*
X143950336Y-95907611D01*
X143778362Y-95792702D01*
X143587274Y-95713550D01*
X143384416Y-95673200D01*
X143177584Y-95673200D01*
X142974726Y-95713550D01*
X142783638Y-95792702D01*
X142611664Y-95907611D01*
X142465411Y-96053864D01*
X142350502Y-96225838D01*
X142271350Y-96416926D01*
X142231000Y-96619784D01*
X142231000Y-96826616D01*
X142271350Y-97029474D01*
X142350502Y-97220562D01*
X142465411Y-97392536D01*
X142611664Y-97538789D01*
X142783638Y-97653698D01*
X142898072Y-97701098D01*
X142063866Y-98535305D01*
X142049552Y-98547052D01*
X142002691Y-98604154D01*
X141967869Y-98669301D01*
X141946426Y-98739988D01*
X141943687Y-98767801D01*
X141939186Y-98813500D01*
X141941000Y-98831916D01*
X141941001Y-105273791D01*
X141466000Y-105273791D01*
X141416992Y-105278618D01*
X141369866Y-105292913D01*
X141326436Y-105316127D01*
X141288368Y-105347368D01*
X141257127Y-105385436D01*
X141233913Y-105428866D01*
X141219618Y-105475992D01*
X141214791Y-105525000D01*
X134732700Y-105525000D01*
X134732700Y-104611209D01*
X136183000Y-104611209D01*
X136232008Y-104606382D01*
X136279134Y-104592087D01*
X136322564Y-104568873D01*
X136360632Y-104537632D01*
X136391873Y-104499564D01*
X136415087Y-104456134D01*
X136429382Y-104409008D01*
X136434209Y-104360000D01*
X136434209Y-103310000D01*
X136429382Y-103260992D01*
X136415087Y-103213866D01*
X136391873Y-103170436D01*
X136360632Y-103132368D01*
X136322564Y-103101127D01*
X136279134Y-103077913D01*
X136247509Y-103068320D01*
X136305506Y-102997650D01*
X136377470Y-102863014D01*
X136421786Y-102716926D01*
X136436749Y-102565000D01*
X136421786Y-102413074D01*
X136377470Y-102266986D01*
X136305506Y-102132350D01*
X136208659Y-102014341D01*
X136105889Y-101930000D01*
X136208659Y-101845659D01*
X136305506Y-101727650D01*
X136377470Y-101593014D01*
X136421786Y-101446926D01*
X136436749Y-101295000D01*
X136421786Y-101143074D01*
X136377470Y-100996986D01*
X136305506Y-100862350D01*
X136208659Y-100744341D01*
X136090650Y-100647494D01*
X135956014Y-100575530D01*
X135809926Y-100531214D01*
X135696065Y-100520000D01*
X135169935Y-100520000D01*
X135056074Y-100531214D01*
X134909986Y-100575530D01*
X134775350Y-100647494D01*
X134657341Y-100744341D01*
X134560494Y-100862350D01*
X134529680Y-100920000D01*
X133448916Y-100920000D01*
X133430500Y-100918186D01*
X133412084Y-100920000D01*
X133412081Y-100920000D01*
X133356987Y-100925426D01*
X133286300Y-100946869D01*
X133221153Y-100981691D01*
X133164052Y-101028552D01*
X133152309Y-101042861D01*
X123580000Y-110615171D01*
X123580000Y-110470509D01*
X123541571Y-110277311D01*
X123466189Y-110095322D01*
X123356751Y-109931537D01*
X123217463Y-109792249D01*
X123053678Y-109682811D01*
X122871689Y-109607429D01*
X122678491Y-109569000D01*
X122481509Y-109569000D01*
X122288311Y-109607429D01*
X122106322Y-109682811D01*
X121942537Y-109792249D01*
X121803249Y-109931537D01*
X121693811Y-110095322D01*
X121618429Y-110277311D01*
X121580000Y-110470509D01*
X121580000Y-110667491D01*
X121618429Y-110860689D01*
X121693811Y-111042678D01*
X121803249Y-111206463D01*
X121942537Y-111345751D01*
X122106322Y-111455189D01*
X122288311Y-111530571D01*
X122481509Y-111569000D01*
X122626171Y-111569000D01*
X121331171Y-112864000D01*
X117288182Y-112864000D01*
X117237498Y-112741638D01*
X117122589Y-112569664D01*
X116976336Y-112423411D01*
X116804362Y-112308502D01*
X116613274Y-112229350D01*
X116410416Y-112189000D01*
X116203584Y-112189000D01*
X116000726Y-112229350D01*
X115809638Y-112308502D01*
X115637664Y-112423411D01*
X115491411Y-112569664D01*
X115376502Y-112741638D01*
X115325818Y-112864000D01*
X113551416Y-112864000D01*
X113533000Y-112862186D01*
X113514584Y-112864000D01*
X113514581Y-112864000D01*
X113459487Y-112869426D01*
X113388800Y-112890869D01*
X113323653Y-112925691D01*
X113266552Y-112972552D01*
X113254810Y-112986860D01*
X109115636Y-117126035D01*
X108993274Y-117075350D01*
X108790416Y-117035000D01*
X108583584Y-117035000D01*
X108380726Y-117075350D01*
X108189638Y-117154502D01*
X108017664Y-117269411D01*
X107871411Y-117415664D01*
X107756502Y-117587638D01*
X107677350Y-117778726D01*
X107637000Y-117981584D01*
X105057187Y-117981584D01*
X105164936Y-117909589D01*
X105311189Y-117763336D01*
X105426098Y-117591362D01*
X105505250Y-117400274D01*
X105545600Y-117197416D01*
X105545600Y-116990584D01*
X105505250Y-116787726D01*
X105426098Y-116596638D01*
X105311189Y-116424664D01*
X105164936Y-116278411D01*
X104992962Y-116163502D01*
X104801874Y-116084350D01*
X104599016Y-116044000D01*
X104392184Y-116044000D01*
X104189326Y-116084350D01*
X103998238Y-116163502D01*
X103826264Y-116278411D01*
X103680011Y-116424664D01*
X103605103Y-116536773D01*
X101518914Y-114450584D01*
X103445600Y-114450584D01*
X103445600Y-114657416D01*
X103485950Y-114860274D01*
X103565102Y-115051362D01*
X103680011Y-115223336D01*
X103826264Y-115369589D01*
X103998238Y-115484498D01*
X104189326Y-115563650D01*
X104392184Y-115604000D01*
X104599016Y-115604000D01*
X104801874Y-115563650D01*
X104992962Y-115484498D01*
X105164936Y-115369589D01*
X105311189Y-115223336D01*
X105426098Y-115051362D01*
X105505250Y-114860274D01*
X105545600Y-114657416D01*
X105545600Y-114450584D01*
X105505250Y-114247726D01*
X105426098Y-114056638D01*
X105311189Y-113884664D01*
X105164936Y-113738411D01*
X104992962Y-113623502D01*
X104801874Y-113544350D01*
X104599016Y-113504000D01*
X104392184Y-113504000D01*
X104189326Y-113544350D01*
X103998238Y-113623502D01*
X103826264Y-113738411D01*
X103680011Y-113884664D01*
X103565102Y-114056638D01*
X103485950Y-114247726D01*
X103445600Y-114450584D01*
X101518914Y-114450584D01*
X100203914Y-113135584D01*
X107637000Y-113135584D01*
X107637000Y-113342416D01*
X107677350Y-113545274D01*
X107756502Y-113736362D01*
X107871411Y-113908336D01*
X108017664Y-114054589D01*
X108189638Y-114169498D01*
X108380726Y-114248650D01*
X108583584Y-114289000D01*
X108790416Y-114289000D01*
X108993274Y-114248650D01*
X109184362Y-114169498D01*
X109356336Y-114054589D01*
X109502589Y-113908336D01*
X109617498Y-113736362D01*
X109696650Y-113545274D01*
X109737000Y-113342416D01*
X109737000Y-113135584D01*
X109696650Y-112932726D01*
X109617498Y-112741638D01*
X109502589Y-112569664D01*
X109356336Y-112423411D01*
X109184362Y-112308502D01*
X108993274Y-112229350D01*
X108790416Y-112189000D01*
X108583584Y-112189000D01*
X108380726Y-112229350D01*
X108189638Y-112308502D01*
X108017664Y-112423411D01*
X107871411Y-112569664D01*
X107756502Y-112741638D01*
X107677350Y-112932726D01*
X107637000Y-113135584D01*
X100203914Y-113135584D01*
X99714400Y-112646071D01*
X99714400Y-98642016D01*
X99716214Y-98623600D01*
X99714299Y-98604154D01*
X99708974Y-98550087D01*
X99687531Y-98479400D01*
X99661238Y-98430209D01*
X99652710Y-98414253D01*
X99617589Y-98371459D01*
X99605848Y-98357152D01*
X99591539Y-98345409D01*
X99134566Y-97888436D01*
X99185250Y-97766074D01*
X99225600Y-97563216D01*
X99225600Y-97356384D01*
X99185250Y-97153526D01*
X99141235Y-97047264D01*
X99737301Y-97643331D01*
X99737300Y-108577484D01*
X99735486Y-108595900D01*
X99737300Y-108614316D01*
X99737300Y-108614318D01*
X99742726Y-108669412D01*
X99764169Y-108740099D01*
X99798991Y-108805246D01*
X99845852Y-108862348D01*
X99860166Y-108874095D01*
X103252209Y-112266139D01*
X103263952Y-112280448D01*
X103294166Y-112305243D01*
X103321052Y-112327309D01*
X103386198Y-112362130D01*
X103386200Y-112362131D01*
X103456887Y-112383574D01*
X103511981Y-112389000D01*
X103511983Y-112389000D01*
X103514521Y-112389250D01*
X103565102Y-112511362D01*
X103680011Y-112683336D01*
X103826264Y-112829589D01*
X103998238Y-112944498D01*
X104189326Y-113023650D01*
X104392184Y-113064000D01*
X104599016Y-113064000D01*
X104801874Y-113023650D01*
X104992962Y-112944498D01*
X105164936Y-112829589D01*
X105311189Y-112683336D01*
X105426098Y-112511362D01*
X105505250Y-112320274D01*
X105545600Y-112117416D01*
X105545600Y-111910584D01*
X105505250Y-111707726D01*
X105426098Y-111516638D01*
X105311189Y-111344664D01*
X105164936Y-111198411D01*
X104992962Y-111083502D01*
X104801874Y-111004350D01*
X104599016Y-110964000D01*
X104392184Y-110964000D01*
X104189326Y-111004350D01*
X103998238Y-111083502D01*
X103826264Y-111198411D01*
X103680011Y-111344664D01*
X103565102Y-111516638D01*
X103564594Y-111517864D01*
X101417314Y-109370584D01*
X103445600Y-109370584D01*
X103445600Y-109577416D01*
X103485950Y-109780274D01*
X103565102Y-109971362D01*
X103680011Y-110143336D01*
X103826264Y-110289589D01*
X103998238Y-110404498D01*
X104189326Y-110483650D01*
X104392184Y-110524000D01*
X104599016Y-110524000D01*
X104801874Y-110483650D01*
X104924236Y-110432966D01*
X105017408Y-110526138D01*
X105029151Y-110540447D01*
X105043458Y-110552188D01*
X105086251Y-110587308D01*
X105102861Y-110596186D01*
X105151399Y-110622130D01*
X105222086Y-110643573D01*
X105277180Y-110648999D01*
X105277182Y-110648999D01*
X105295598Y-110650813D01*
X105314014Y-110648999D01*
X114408585Y-110648999D01*
X114427001Y-110650813D01*
X114445417Y-110648999D01*
X114445420Y-110648999D01*
X114500514Y-110643573D01*
X114571201Y-110622130D01*
X114636348Y-110587308D01*
X114693449Y-110540447D01*
X114705196Y-110526133D01*
X115878364Y-109352966D01*
X116000726Y-109403650D01*
X116203584Y-109444000D01*
X116410416Y-109444000D01*
X116613274Y-109403650D01*
X116804362Y-109324498D01*
X116976336Y-109209589D01*
X117122589Y-109063336D01*
X117237498Y-108891362D01*
X117316650Y-108700274D01*
X117357000Y-108497416D01*
X117357000Y-108290584D01*
X117316650Y-108087726D01*
X117237498Y-107896638D01*
X117122589Y-107724664D01*
X116976336Y-107578411D01*
X116804362Y-107463502D01*
X116682000Y-107412818D01*
X116682000Y-105590509D01*
X121580000Y-105590509D01*
X121580000Y-105787491D01*
X121618429Y-105980689D01*
X121693811Y-106162678D01*
X121803249Y-106326463D01*
X121942537Y-106465751D01*
X122106322Y-106575189D01*
X122288311Y-106650571D01*
X122481509Y-106689000D01*
X122678491Y-106689000D01*
X122871689Y-106650571D01*
X123053678Y-106575189D01*
X123217463Y-106465751D01*
X123356751Y-106326463D01*
X123466189Y-106162678D01*
X123541571Y-105980689D01*
X123580000Y-105787491D01*
X123580000Y-105590509D01*
X123541571Y-105397311D01*
X123500697Y-105298632D01*
X123823140Y-104976190D01*
X123837448Y-104964448D01*
X123857423Y-104940108D01*
X123884310Y-104907347D01*
X123919130Y-104842201D01*
X123919131Y-104842200D01*
X123940574Y-104771513D01*
X123946000Y-104716419D01*
X123946000Y-104716416D01*
X123947814Y-104698000D01*
X123946000Y-104679584D01*
X123946000Y-103249584D01*
X127880000Y-103249584D01*
X127880000Y-103456416D01*
X127920350Y-103659274D01*
X127999502Y-103850362D01*
X128114411Y-104022336D01*
X128260664Y-104168589D01*
X128432638Y-104283498D01*
X128623726Y-104362650D01*
X128826584Y-104403000D01*
X129033416Y-104403000D01*
X129236274Y-104362650D01*
X129427362Y-104283498D01*
X129599336Y-104168589D01*
X129745589Y-104022336D01*
X129860498Y-103850362D01*
X129939650Y-103659274D01*
X129980000Y-103456416D01*
X129980000Y-103249584D01*
X129939650Y-103046726D01*
X129860498Y-102855638D01*
X129745589Y-102683664D01*
X129599336Y-102537411D01*
X129427362Y-102422502D01*
X129236274Y-102343350D01*
X129033416Y-102303000D01*
X128826584Y-102303000D01*
X128623726Y-102343350D01*
X128432638Y-102422502D01*
X128260664Y-102537411D01*
X128114411Y-102683664D01*
X127999502Y-102855638D01*
X127920350Y-103046726D01*
X127880000Y-103249584D01*
X123946000Y-103249584D01*
X123946000Y-96930260D01*
X124163097Y-96840335D01*
X124367828Y-96703538D01*
X124451582Y-96619784D01*
X134611000Y-96619784D01*
X134611000Y-96826616D01*
X134651350Y-97029474D01*
X134730502Y-97220562D01*
X134845411Y-97392536D01*
X134991664Y-97538789D01*
X135163638Y-97653698D01*
X135354726Y-97732850D01*
X135557584Y-97773200D01*
X135764416Y-97773200D01*
X135967274Y-97732850D01*
X136158362Y-97653698D01*
X136330336Y-97538789D01*
X136476589Y-97392536D01*
X136591498Y-97220562D01*
X136670650Y-97029474D01*
X136711000Y-96826616D01*
X136711000Y-96619784D01*
X136670650Y-96416926D01*
X136591498Y-96225838D01*
X136476589Y-96053864D01*
X136330336Y-95907611D01*
X136158362Y-95792702D01*
X135967274Y-95713550D01*
X135764416Y-95673200D01*
X135557584Y-95673200D01*
X135354726Y-95713550D01*
X135163638Y-95792702D01*
X134991664Y-95907611D01*
X134845411Y-96053864D01*
X134730502Y-96225838D01*
X134651350Y-96416926D01*
X134611000Y-96619784D01*
X124451582Y-96619784D01*
X124541938Y-96529428D01*
X124678735Y-96324697D01*
X124772963Y-96097211D01*
X124821000Y-95855714D01*
X124821000Y-95609486D01*
X124772963Y-95367989D01*
X124678735Y-95140503D01*
X124541938Y-94935772D01*
X124367828Y-94761662D01*
X124163097Y-94624865D01*
X123935611Y-94530637D01*
X123694114Y-94482600D01*
X123447886Y-94482600D01*
X123206389Y-94530637D01*
X122978903Y-94624865D01*
X122774172Y-94761662D01*
X122600062Y-94935772D01*
X122463265Y-95140503D01*
X122369037Y-95367989D01*
X122321000Y-95609486D01*
X122321000Y-95855714D01*
X122369037Y-96097211D01*
X122463265Y-96324697D01*
X122600062Y-96529428D01*
X122774172Y-96703538D01*
X122978903Y-96840335D01*
X123196001Y-96930260D01*
X123196000Y-104542670D01*
X122970368Y-104768303D01*
X122871689Y-104727429D01*
X122678491Y-104689000D01*
X122481509Y-104689000D01*
X122288311Y-104727429D01*
X122106322Y-104802811D01*
X121942537Y-104912249D01*
X121803249Y-105051537D01*
X121693811Y-105215322D01*
X121618429Y-105397311D01*
X121580000Y-105590509D01*
X116682000Y-105590509D01*
X116682000Y-104529182D01*
X116804362Y-104478498D01*
X116976336Y-104363589D01*
X117122589Y-104217336D01*
X117237498Y-104045362D01*
X117316650Y-103854274D01*
X117357000Y-103651416D01*
X117357000Y-103444584D01*
X117316650Y-103241726D01*
X117237498Y-103050638D01*
X117122589Y-102878664D01*
X116976336Y-102732411D01*
X116804362Y-102617502D01*
X116613274Y-102538350D01*
X116410416Y-102498000D01*
X116203584Y-102498000D01*
X116000726Y-102538350D01*
X115809638Y-102617502D01*
X115637664Y-102732411D01*
X115491411Y-102878664D01*
X115376502Y-103050638D01*
X115297350Y-103241726D01*
X115257000Y-103444584D01*
X115257000Y-103651416D01*
X115297350Y-103854274D01*
X115376502Y-104045362D01*
X115491411Y-104217336D01*
X115637664Y-104363589D01*
X115809638Y-104478498D01*
X115932001Y-104529183D01*
X115932000Y-107412817D01*
X115809638Y-107463502D01*
X115637664Y-107578411D01*
X115491411Y-107724664D01*
X115376502Y-107896638D01*
X115297350Y-108087726D01*
X115257000Y-108290584D01*
X115257000Y-108497416D01*
X115297350Y-108700274D01*
X115348034Y-108822636D01*
X114271672Y-109898999D01*
X105456072Y-109898999D01*
X105505250Y-109780274D01*
X105545600Y-109577416D01*
X105545600Y-109370584D01*
X105505250Y-109167726D01*
X105426098Y-108976638D01*
X105311189Y-108804664D01*
X105164936Y-108658411D01*
X104992962Y-108543502D01*
X104801874Y-108464350D01*
X104599016Y-108424000D01*
X104392184Y-108424000D01*
X104189326Y-108464350D01*
X103998238Y-108543502D01*
X103826264Y-108658411D01*
X103680011Y-108804664D01*
X103565102Y-108976638D01*
X103485950Y-109167726D01*
X103445600Y-109370584D01*
X101417314Y-109370584D01*
X100487300Y-108440571D01*
X100487300Y-106830584D01*
X103445600Y-106830584D01*
X103445600Y-107037416D01*
X103485950Y-107240274D01*
X103565102Y-107431362D01*
X103680011Y-107603336D01*
X103826264Y-107749589D01*
X103998238Y-107864498D01*
X104189326Y-107943650D01*
X104392184Y-107984000D01*
X104599016Y-107984000D01*
X104801874Y-107943650D01*
X104992962Y-107864498D01*
X105164936Y-107749589D01*
X105311189Y-107603336D01*
X105426098Y-107431362D01*
X105476782Y-107309000D01*
X105946371Y-107309000D01*
X107283509Y-108646139D01*
X107295252Y-108660448D01*
X107352353Y-108707309D01*
X107417500Y-108742131D01*
X107488187Y-108763574D01*
X107543281Y-108769000D01*
X107543284Y-108769000D01*
X107561700Y-108770814D01*
X107580116Y-108769000D01*
X107705818Y-108769000D01*
X107756502Y-108891362D01*
X107871411Y-109063336D01*
X108017664Y-109209589D01*
X108189638Y-109324498D01*
X108380726Y-109403650D01*
X108583584Y-109444000D01*
X108790416Y-109444000D01*
X108993274Y-109403650D01*
X109184362Y-109324498D01*
X109356336Y-109209589D01*
X109502589Y-109063336D01*
X109617498Y-108891362D01*
X109696650Y-108700274D01*
X109737000Y-108497416D01*
X109737000Y-108290584D01*
X109696650Y-108087726D01*
X109617498Y-107896638D01*
X109502589Y-107724664D01*
X109356336Y-107578411D01*
X109184362Y-107463502D01*
X108993274Y-107384350D01*
X108790416Y-107344000D01*
X108583584Y-107344000D01*
X108380726Y-107384350D01*
X108189638Y-107463502D01*
X108017664Y-107578411D01*
X107871411Y-107724664D01*
X107756502Y-107896638D01*
X107709102Y-108011072D01*
X106379895Y-106681866D01*
X106368148Y-106667552D01*
X106311047Y-106620691D01*
X106245900Y-106585869D01*
X106175213Y-106564426D01*
X106120119Y-106559000D01*
X106120116Y-106559000D01*
X106101700Y-106557186D01*
X106083284Y-106559000D01*
X105476782Y-106559000D01*
X105426098Y-106436638D01*
X105311189Y-106264664D01*
X105164936Y-106118411D01*
X104992962Y-106003502D01*
X104801874Y-105924350D01*
X104599016Y-105884000D01*
X104392184Y-105884000D01*
X104189326Y-105924350D01*
X103998238Y-106003502D01*
X103826264Y-106118411D01*
X103680011Y-106264664D01*
X103565102Y-106436638D01*
X103485950Y-106627726D01*
X103445600Y-106830584D01*
X100487300Y-106830584D01*
X100487300Y-104290584D01*
X103445600Y-104290584D01*
X103445600Y-104497416D01*
X103485950Y-104700274D01*
X103565102Y-104891362D01*
X103680011Y-105063336D01*
X103826264Y-105209589D01*
X103998238Y-105324498D01*
X104189326Y-105403650D01*
X104392184Y-105444000D01*
X104599016Y-105444000D01*
X104801874Y-105403650D01*
X104992962Y-105324498D01*
X105164936Y-105209589D01*
X105311189Y-105063336D01*
X105426098Y-104891362D01*
X105505250Y-104700274D01*
X105517415Y-104639114D01*
X106711945Y-103444584D01*
X107637000Y-103444584D01*
X107637000Y-103651416D01*
X107677350Y-103854274D01*
X107756502Y-104045362D01*
X107871411Y-104217336D01*
X108017664Y-104363589D01*
X108189638Y-104478498D01*
X108380726Y-104557650D01*
X108583584Y-104598000D01*
X108790416Y-104598000D01*
X108993274Y-104557650D01*
X109184362Y-104478498D01*
X109356336Y-104363589D01*
X109502589Y-104217336D01*
X109617498Y-104045362D01*
X109668182Y-103923000D01*
X109918084Y-103923000D01*
X109936500Y-103924814D01*
X109954916Y-103923000D01*
X109954919Y-103923000D01*
X110010013Y-103917574D01*
X110080700Y-103896131D01*
X110145847Y-103861309D01*
X110202948Y-103814448D01*
X110214695Y-103800134D01*
X115011624Y-99003206D01*
X115110646Y-99242265D01*
X115258387Y-99463375D01*
X115446425Y-99651413D01*
X115667535Y-99799154D01*
X115913220Y-99900920D01*
X116174037Y-99952800D01*
X116439963Y-99952800D01*
X116700780Y-99900920D01*
X116946465Y-99799154D01*
X117167575Y-99651413D01*
X117355613Y-99463375D01*
X117503354Y-99242265D01*
X117605120Y-98996580D01*
X117657000Y-98735763D01*
X117657000Y-98469837D01*
X117605120Y-98209020D01*
X117503354Y-97963335D01*
X117355613Y-97742225D01*
X117167575Y-97554187D01*
X116946465Y-97406446D01*
X116700780Y-97304680D01*
X116439963Y-97252800D01*
X116174037Y-97252800D01*
X115913220Y-97304680D01*
X115667535Y-97406446D01*
X115446425Y-97554187D01*
X115258387Y-97742225D01*
X115110646Y-97963335D01*
X115008880Y-98209020D01*
X115005144Y-98227800D01*
X114900116Y-98227800D01*
X114881700Y-98225986D01*
X114863284Y-98227800D01*
X114863281Y-98227800D01*
X114808187Y-98233226D01*
X114737500Y-98254669D01*
X114672353Y-98289491D01*
X114615252Y-98336352D01*
X114603509Y-98350661D01*
X109781171Y-103173000D01*
X109668182Y-103173000D01*
X109617498Y-103050638D01*
X109502589Y-102878664D01*
X109356336Y-102732411D01*
X109184362Y-102617502D01*
X108993274Y-102538350D01*
X108790416Y-102498000D01*
X108583584Y-102498000D01*
X108380726Y-102538350D01*
X108189638Y-102617502D01*
X108017664Y-102732411D01*
X107871411Y-102878664D01*
X107756502Y-103050638D01*
X107677350Y-103241726D01*
X107637000Y-103444584D01*
X106711945Y-103444584D01*
X108939140Y-101217390D01*
X108953448Y-101205648D01*
X109000309Y-101148547D01*
X109035131Y-101083400D01*
X109056574Y-101012713D01*
X109062000Y-100957619D01*
X109062000Y-100957617D01*
X109063814Y-100939201D01*
X109062000Y-100920785D01*
X109062000Y-99954009D01*
X109787000Y-99954009D01*
X109836008Y-99949182D01*
X109883134Y-99934887D01*
X109926564Y-99911673D01*
X109964632Y-99880432D01*
X109995873Y-99842364D01*
X110019087Y-99798934D01*
X110033382Y-99751808D01*
X110038209Y-99702800D01*
X110038209Y-97502800D01*
X110033382Y-97453792D01*
X110019087Y-97406666D01*
X109995873Y-97363236D01*
X109964632Y-97325168D01*
X109926564Y-97293927D01*
X109883134Y-97270713D01*
X109836008Y-97256418D01*
X109787000Y-97251591D01*
X107587000Y-97251591D01*
X107537992Y-97256418D01*
X107490866Y-97270713D01*
X107447436Y-97293927D01*
X107409368Y-97325168D01*
X107378127Y-97363236D01*
X107354913Y-97406666D01*
X107340618Y-97453792D01*
X107335791Y-97502800D01*
X107335791Y-99702800D01*
X107340618Y-99751808D01*
X107354913Y-99798934D01*
X107378127Y-99842364D01*
X107409368Y-99880432D01*
X107447436Y-99911673D01*
X107490866Y-99934887D01*
X107537992Y-99949182D01*
X107587000Y-99954009D01*
X108312000Y-99954009D01*
X108312000Y-100783870D01*
X105335229Y-103760642D01*
X105311189Y-103724664D01*
X105164936Y-103578411D01*
X104992962Y-103463502D01*
X104801874Y-103384350D01*
X104599016Y-103344000D01*
X104392184Y-103344000D01*
X104189326Y-103384350D01*
X103998238Y-103463502D01*
X103826264Y-103578411D01*
X103680011Y-103724664D01*
X103565102Y-103896638D01*
X103485950Y-104087726D01*
X103445600Y-104290584D01*
X100487300Y-104290584D01*
X100487300Y-101750584D01*
X103445600Y-101750584D01*
X103445600Y-101957416D01*
X103485950Y-102160274D01*
X103565102Y-102351362D01*
X103680011Y-102523336D01*
X103826264Y-102669589D01*
X103998238Y-102784498D01*
X104189326Y-102863650D01*
X104392184Y-102904000D01*
X104599016Y-102904000D01*
X104801874Y-102863650D01*
X104992962Y-102784498D01*
X105164936Y-102669589D01*
X105311189Y-102523336D01*
X105426098Y-102351362D01*
X105505250Y-102160274D01*
X105545600Y-101957416D01*
X105545600Y-101750584D01*
X105505250Y-101547726D01*
X105426098Y-101356638D01*
X105311189Y-101184664D01*
X105164936Y-101038411D01*
X104992962Y-100923502D01*
X104801874Y-100844350D01*
X104599016Y-100804000D01*
X104392184Y-100804000D01*
X104189326Y-100844350D01*
X103998238Y-100923502D01*
X103826264Y-101038411D01*
X103680011Y-101184664D01*
X103565102Y-101356638D01*
X103485950Y-101547726D01*
X103445600Y-101750584D01*
X100487300Y-101750584D01*
X100487300Y-97506415D01*
X100489114Y-97487999D01*
X100487300Y-97469581D01*
X100481874Y-97414487D01*
X100464249Y-97356384D01*
X102125600Y-97356384D01*
X102125600Y-97563216D01*
X102165950Y-97766074D01*
X102245102Y-97957162D01*
X102360011Y-98129136D01*
X102506264Y-98275389D01*
X102678238Y-98390298D01*
X102869326Y-98469450D01*
X103072184Y-98509800D01*
X103279016Y-98509800D01*
X103481874Y-98469450D01*
X103672962Y-98390298D01*
X103844936Y-98275389D01*
X103991189Y-98129136D01*
X104106098Y-97957162D01*
X104185250Y-97766074D01*
X104225600Y-97563216D01*
X104225600Y-97356384D01*
X104185250Y-97153526D01*
X104106098Y-96962438D01*
X103991189Y-96790464D01*
X103844936Y-96644211D01*
X103672962Y-96529302D01*
X103550600Y-96478618D01*
X103550600Y-94582129D01*
X104057364Y-94075366D01*
X104179726Y-94126050D01*
X104382584Y-94166400D01*
X104589416Y-94166400D01*
X104792274Y-94126050D01*
X104983362Y-94046898D01*
X105155336Y-93931989D01*
X105301589Y-93785736D01*
X105416498Y-93613762D01*
X105495650Y-93422674D01*
X105536000Y-93219816D01*
X105536000Y-93012984D01*
X105495650Y-92810126D01*
X105416498Y-92619038D01*
X105301589Y-92447064D01*
X105155336Y-92300811D01*
X104983362Y-92185902D01*
X104792274Y-92106750D01*
X104589416Y-92066400D01*
X104382584Y-92066400D01*
X104179726Y-92106750D01*
X103988638Y-92185902D01*
X103816664Y-92300811D01*
X103670411Y-92447064D01*
X103555502Y-92619038D01*
X103476350Y-92810126D01*
X103436000Y-93012984D01*
X103436000Y-93219816D01*
X103476350Y-93422674D01*
X103527034Y-93545036D01*
X102923466Y-94148605D01*
X102909152Y-94160352D01*
X102862291Y-94217454D01*
X102827469Y-94282601D01*
X102806026Y-94353288D01*
X102800600Y-94408381D01*
X102798786Y-94426800D01*
X102800600Y-94445216D01*
X102800601Y-96478617D01*
X102678238Y-96529302D01*
X102506264Y-96644211D01*
X102360011Y-96790464D01*
X102245102Y-96962438D01*
X102165950Y-97153526D01*
X102125600Y-97356384D01*
X100464249Y-97356384D01*
X100460431Y-97343800D01*
X100439521Y-97304680D01*
X100425609Y-97278652D01*
X100390488Y-97235858D01*
X100378748Y-97221552D01*
X100364439Y-97209809D01*
X97248928Y-94094299D01*
X97363362Y-94046898D01*
X97535336Y-93931989D01*
X97681589Y-93785736D01*
X97796498Y-93613762D01*
X97875650Y-93422674D01*
X97916000Y-93219816D01*
X97916000Y-93012984D01*
X97875650Y-92810126D01*
X97796498Y-92619038D01*
X97681589Y-92447064D01*
X97535336Y-92300811D01*
X97363362Y-92185902D01*
X97172274Y-92106750D01*
X96969416Y-92066400D01*
X96762584Y-92066400D01*
X96559726Y-92106750D01*
X96368638Y-92185902D01*
X96196664Y-92300811D01*
X96050411Y-92447064D01*
X95935502Y-92619038D01*
X95856350Y-92810126D01*
X95816000Y-93012984D01*
X88897200Y-93012984D01*
X88897200Y-89075000D01*
X146510000Y-89075000D01*
X146510001Y-126723400D01*
M02*
