G04 #@! TF.GenerationSoftware,KiCad,Pcbnew,(5.1.6)-1*
G04 #@! TF.CreationDate,2020-08-07T18:30:50-03:00*
G04 #@! TF.ProjectId,av-mc1000,61762d6d-6331-4303-9030-2e6b69636164,rev?*
G04 #@! TF.SameCoordinates,Original*
G04 #@! TF.FileFunction,Soldermask,Bot*
G04 #@! TF.FilePolarity,Negative*
%FSLAX46Y46*%
G04 Gerber Fmt 4.6, Leading zero omitted, Abs format (unit mm)*
G04 Created by KiCad (PCBNEW (5.1.6)-1) date 2020-08-07 18:30:50*
%MOMM*%
%LPD*%
G01*
G04 APERTURE LIST*
%ADD10C,0.100000*%
G04 APERTURE END LIST*
D10*
G36*
X146583400Y-126796800D02*
G01*
X88773000Y-126796800D01*
X88773000Y-126136400D01*
X146583400Y-126136400D01*
X146583400Y-126796800D01*
G37*
X146583400Y-126796800D02*
X88773000Y-126796800D01*
X88773000Y-126136400D01*
X146583400Y-126136400D01*
X146583400Y-126796800D01*
G36*
X146583400Y-89636600D02*
G01*
X88773000Y-89636600D01*
X88773000Y-88976200D01*
X146583400Y-88976200D01*
X146583400Y-89636600D01*
G37*
X146583400Y-89636600D02*
X88773000Y-89636600D01*
X88773000Y-88976200D01*
X146583400Y-88976200D01*
X146583400Y-89636600D01*
G36*
X90932000Y-126822200D02*
G01*
X88798400Y-126822200D01*
X88798400Y-124663200D01*
X90932000Y-124663200D01*
X90932000Y-126822200D01*
G37*
X90932000Y-126822200D02*
X88798400Y-126822200D01*
X88798400Y-124663200D01*
X90932000Y-124663200D01*
X90932000Y-126822200D01*
G36*
X118770400Y-126822200D02*
G01*
X116636800Y-126822200D01*
X116636800Y-124663200D01*
X118770400Y-124663200D01*
X118770400Y-126822200D01*
G37*
X118770400Y-126822200D02*
X116636800Y-126822200D01*
X116636800Y-124663200D01*
X118770400Y-124663200D01*
X118770400Y-126822200D01*
G36*
X146608800Y-126822200D02*
G01*
X144475200Y-126822200D01*
X144475200Y-124663200D01*
X146608800Y-124663200D01*
X146608800Y-126822200D01*
G37*
X146608800Y-126822200D02*
X144475200Y-126822200D01*
X144475200Y-124663200D01*
X146608800Y-124663200D01*
X146608800Y-126822200D01*
G36*
X146608800Y-91135200D02*
G01*
X144475200Y-91135200D01*
X144475200Y-88976200D01*
X146608800Y-88976200D01*
X146608800Y-91135200D01*
G37*
X146608800Y-91135200D02*
X144475200Y-91135200D01*
X144475200Y-88976200D01*
X146608800Y-88976200D01*
X146608800Y-91135200D01*
G36*
X90932000Y-91135200D02*
G01*
X88798400Y-91135200D01*
X88798400Y-88976200D01*
X90932000Y-88976200D01*
X90932000Y-91135200D01*
G37*
X90932000Y-91135200D02*
X88798400Y-91135200D01*
X88798400Y-88976200D01*
X90932000Y-88976200D01*
X90932000Y-91135200D01*
G36*
X118770400Y-91135200D02*
G01*
X116636800Y-91135200D01*
X116636800Y-88976200D01*
X118770400Y-88976200D01*
X118770400Y-91135200D01*
G37*
X118770400Y-91135200D02*
X116636800Y-91135200D01*
X116636800Y-88976200D01*
X118770400Y-88976200D01*
X118770400Y-91135200D01*
G36*
X135321228Y-120568703D02*
G01*
X135476100Y-120632853D01*
X135615481Y-120725985D01*
X135734015Y-120844519D01*
X135827147Y-120983900D01*
X135891297Y-121138772D01*
X135924000Y-121303184D01*
X135924000Y-121470816D01*
X135891297Y-121635228D01*
X135827147Y-121790100D01*
X135734015Y-121929481D01*
X135615481Y-122048015D01*
X135476100Y-122141147D01*
X135321228Y-122205297D01*
X135156816Y-122238000D01*
X134989184Y-122238000D01*
X134824772Y-122205297D01*
X134669900Y-122141147D01*
X134530519Y-122048015D01*
X134411985Y-121929481D01*
X134318853Y-121790100D01*
X134254703Y-121635228D01*
X134222000Y-121470816D01*
X134222000Y-121303184D01*
X134254703Y-121138772D01*
X134318853Y-120983900D01*
X134411985Y-120844519D01*
X134530519Y-120725985D01*
X134669900Y-120632853D01*
X134824772Y-120568703D01*
X134989184Y-120536000D01*
X135156816Y-120536000D01*
X135321228Y-120568703D01*
G37*
G36*
X129178228Y-118637703D02*
G01*
X129333100Y-118701853D01*
X129472481Y-118794985D01*
X129591015Y-118913519D01*
X129684147Y-119052900D01*
X129748297Y-119207772D01*
X129781000Y-119372184D01*
X129781000Y-119539816D01*
X129748297Y-119704228D01*
X129684147Y-119859100D01*
X129591015Y-119998481D01*
X129472481Y-120117015D01*
X129333100Y-120210147D01*
X129178228Y-120274297D01*
X129013816Y-120307000D01*
X128846184Y-120307000D01*
X128681772Y-120274297D01*
X128526900Y-120210147D01*
X128387519Y-120117015D01*
X128268985Y-119998481D01*
X128175853Y-119859100D01*
X128111703Y-119704228D01*
X128079000Y-119539816D01*
X128079000Y-119372184D01*
X128111703Y-119207772D01*
X128175853Y-119052900D01*
X128268985Y-118913519D01*
X128387519Y-118794985D01*
X128526900Y-118701853D01*
X128681772Y-118637703D01*
X128846184Y-118605000D01*
X129013816Y-118605000D01*
X129178228Y-118637703D01*
G37*
G36*
X124123228Y-118256703D02*
G01*
X124278100Y-118320853D01*
X124417481Y-118413985D01*
X124536015Y-118532519D01*
X124629147Y-118671900D01*
X124693297Y-118826772D01*
X124726000Y-118991184D01*
X124726000Y-119158816D01*
X124693297Y-119323228D01*
X124629147Y-119478100D01*
X124536015Y-119617481D01*
X124417481Y-119736015D01*
X124278100Y-119829147D01*
X124123228Y-119893297D01*
X123958816Y-119926000D01*
X123791184Y-119926000D01*
X123626772Y-119893297D01*
X123471900Y-119829147D01*
X123332519Y-119736015D01*
X123213985Y-119617481D01*
X123120853Y-119478100D01*
X123056703Y-119323228D01*
X123024000Y-119158816D01*
X123024000Y-118991184D01*
X123056703Y-118826772D01*
X123120853Y-118671900D01*
X123213985Y-118532519D01*
X123332519Y-118413985D01*
X123471900Y-118320853D01*
X123626772Y-118256703D01*
X123791184Y-118224000D01*
X123958816Y-118224000D01*
X124123228Y-118256703D01*
G37*
G36*
X122226000Y-119926000D02*
G01*
X120524000Y-119926000D01*
X120524000Y-118224000D01*
X122226000Y-118224000D01*
X122226000Y-119926000D01*
G37*
G36*
X92239400Y-118950000D02*
G01*
X90437400Y-118950000D01*
X90437400Y-117148000D01*
X92239400Y-117148000D01*
X92239400Y-118950000D01*
G37*
G36*
X116555228Y-117266703D02*
G01*
X116710100Y-117330853D01*
X116849481Y-117423985D01*
X116968015Y-117542519D01*
X117061147Y-117681900D01*
X117125297Y-117836772D01*
X117158000Y-118001184D01*
X117158000Y-118168816D01*
X117125297Y-118333228D01*
X117061147Y-118488100D01*
X116968015Y-118627481D01*
X116849481Y-118746015D01*
X116710100Y-118839147D01*
X116555228Y-118903297D01*
X116390816Y-118936000D01*
X116223184Y-118936000D01*
X116058772Y-118903297D01*
X115903900Y-118839147D01*
X115764519Y-118746015D01*
X115645985Y-118627481D01*
X115552853Y-118488100D01*
X115488703Y-118333228D01*
X115456000Y-118168816D01*
X115456000Y-118001184D01*
X115488703Y-117836772D01*
X115552853Y-117681900D01*
X115645985Y-117542519D01*
X115764519Y-117423985D01*
X115903900Y-117330853D01*
X116058772Y-117266703D01*
X116223184Y-117234000D01*
X116390816Y-117234000D01*
X116555228Y-117266703D01*
G37*
G36*
X108935228Y-117266703D02*
G01*
X109090100Y-117330853D01*
X109229481Y-117423985D01*
X109348015Y-117542519D01*
X109441147Y-117681900D01*
X109505297Y-117836772D01*
X109538000Y-118001184D01*
X109538000Y-118168816D01*
X109505297Y-118333228D01*
X109441147Y-118488100D01*
X109348015Y-118627481D01*
X109229481Y-118746015D01*
X109090100Y-118839147D01*
X108935228Y-118903297D01*
X108770816Y-118936000D01*
X108603184Y-118936000D01*
X108438772Y-118903297D01*
X108283900Y-118839147D01*
X108144519Y-118746015D01*
X108025985Y-118627481D01*
X107932853Y-118488100D01*
X107868703Y-118333228D01*
X107836000Y-118168816D01*
X107836000Y-118001184D01*
X107868703Y-117836772D01*
X107932853Y-117681900D01*
X108025985Y-117542519D01*
X108144519Y-117423985D01*
X108283900Y-117330853D01*
X108438772Y-117266703D01*
X108603184Y-117234000D01*
X108770816Y-117234000D01*
X108935228Y-117266703D01*
G37*
G36*
X97123828Y-116275703D02*
G01*
X97278700Y-116339853D01*
X97418081Y-116432985D01*
X97536615Y-116551519D01*
X97629747Y-116690900D01*
X97693897Y-116845772D01*
X97726600Y-117010184D01*
X97726600Y-117177816D01*
X97693897Y-117342228D01*
X97629747Y-117497100D01*
X97536615Y-117636481D01*
X97418081Y-117755015D01*
X97278700Y-117848147D01*
X97123828Y-117912297D01*
X96959416Y-117945000D01*
X96791784Y-117945000D01*
X96627372Y-117912297D01*
X96472500Y-117848147D01*
X96333119Y-117755015D01*
X96214585Y-117636481D01*
X96121453Y-117497100D01*
X96057303Y-117342228D01*
X96024600Y-117177816D01*
X96024600Y-117010184D01*
X96057303Y-116845772D01*
X96121453Y-116690900D01*
X96214585Y-116551519D01*
X96333119Y-116432985D01*
X96472500Y-116339853D01*
X96627372Y-116275703D01*
X96791784Y-116243000D01*
X96959416Y-116243000D01*
X97123828Y-116275703D01*
G37*
G36*
X104743828Y-116275703D02*
G01*
X104898700Y-116339853D01*
X105038081Y-116432985D01*
X105156615Y-116551519D01*
X105249747Y-116690900D01*
X105313897Y-116845772D01*
X105346600Y-117010184D01*
X105346600Y-117177816D01*
X105313897Y-117342228D01*
X105249747Y-117497100D01*
X105156615Y-117636481D01*
X105038081Y-117755015D01*
X104898700Y-117848147D01*
X104743828Y-117912297D01*
X104579416Y-117945000D01*
X104411784Y-117945000D01*
X104247372Y-117912297D01*
X104092500Y-117848147D01*
X103953119Y-117755015D01*
X103834585Y-117636481D01*
X103741453Y-117497100D01*
X103677303Y-117342228D01*
X103644600Y-117177816D01*
X103644600Y-117010184D01*
X103677303Y-116845772D01*
X103741453Y-116690900D01*
X103834585Y-116551519D01*
X103953119Y-116432985D01*
X104092500Y-116339853D01*
X104247372Y-116275703D01*
X104411784Y-116243000D01*
X104579416Y-116243000D01*
X104743828Y-116275703D01*
G37*
G36*
X91451912Y-114612927D02*
G01*
X91601212Y-114642624D01*
X91765184Y-114710544D01*
X91912754Y-114809147D01*
X92038253Y-114934646D01*
X92136856Y-115082216D01*
X92204776Y-115246188D01*
X92239400Y-115420259D01*
X92239400Y-115597741D01*
X92204776Y-115771812D01*
X92136856Y-115935784D01*
X92038253Y-116083354D01*
X91912754Y-116208853D01*
X91765184Y-116307456D01*
X91601212Y-116375376D01*
X91451912Y-116405073D01*
X91427142Y-116410000D01*
X91249658Y-116410000D01*
X91224888Y-116405073D01*
X91075588Y-116375376D01*
X90911616Y-116307456D01*
X90764046Y-116208853D01*
X90638547Y-116083354D01*
X90539944Y-115935784D01*
X90472024Y-115771812D01*
X90437400Y-115597741D01*
X90437400Y-115420259D01*
X90472024Y-115246188D01*
X90539944Y-115082216D01*
X90638547Y-114934646D01*
X90764046Y-114809147D01*
X90911616Y-114710544D01*
X91075588Y-114642624D01*
X91224888Y-114612927D01*
X91249658Y-114608000D01*
X91427142Y-114608000D01*
X91451912Y-114612927D01*
G37*
G36*
X104743828Y-113735703D02*
G01*
X104898700Y-113799853D01*
X105038081Y-113892985D01*
X105156615Y-114011519D01*
X105249747Y-114150900D01*
X105313897Y-114305772D01*
X105346600Y-114470184D01*
X105346600Y-114637816D01*
X105313897Y-114802228D01*
X105249747Y-114957100D01*
X105156615Y-115096481D01*
X105038081Y-115215015D01*
X104898700Y-115308147D01*
X104743828Y-115372297D01*
X104579416Y-115405000D01*
X104411784Y-115405000D01*
X104247372Y-115372297D01*
X104092500Y-115308147D01*
X103953119Y-115215015D01*
X103834585Y-115096481D01*
X103741453Y-114957100D01*
X103677303Y-114802228D01*
X103644600Y-114637816D01*
X103644600Y-114470184D01*
X103677303Y-114305772D01*
X103741453Y-114150900D01*
X103834585Y-114011519D01*
X103953119Y-113892985D01*
X104092500Y-113799853D01*
X104247372Y-113735703D01*
X104411784Y-113703000D01*
X104579416Y-113703000D01*
X104743828Y-113735703D01*
G37*
G36*
X97123828Y-113735703D02*
G01*
X97278700Y-113799853D01*
X97418081Y-113892985D01*
X97536615Y-114011519D01*
X97629747Y-114150900D01*
X97693897Y-114305772D01*
X97726600Y-114470184D01*
X97726600Y-114637816D01*
X97693897Y-114802228D01*
X97629747Y-114957100D01*
X97536615Y-115096481D01*
X97418081Y-115215015D01*
X97278700Y-115308147D01*
X97123828Y-115372297D01*
X96959416Y-115405000D01*
X96791784Y-115405000D01*
X96627372Y-115372297D01*
X96472500Y-115308147D01*
X96333119Y-115215015D01*
X96214585Y-115096481D01*
X96121453Y-114957100D01*
X96057303Y-114802228D01*
X96024600Y-114637816D01*
X96024600Y-114470184D01*
X96057303Y-114305772D01*
X96121453Y-114150900D01*
X96214585Y-114011519D01*
X96333119Y-113892985D01*
X96472500Y-113799853D01*
X96627372Y-113735703D01*
X96791784Y-113703000D01*
X96959416Y-113703000D01*
X97123828Y-113735703D01*
G37*
G36*
X129178228Y-113637703D02*
G01*
X129333100Y-113701853D01*
X129472481Y-113794985D01*
X129591015Y-113913519D01*
X129684147Y-114052900D01*
X129748297Y-114207772D01*
X129781000Y-114372184D01*
X129781000Y-114539816D01*
X129748297Y-114704228D01*
X129684147Y-114859100D01*
X129591015Y-114998481D01*
X129472481Y-115117015D01*
X129333100Y-115210147D01*
X129178228Y-115274297D01*
X129013816Y-115307000D01*
X128846184Y-115307000D01*
X128681772Y-115274297D01*
X128526900Y-115210147D01*
X128387519Y-115117015D01*
X128268985Y-114998481D01*
X128175853Y-114859100D01*
X128111703Y-114704228D01*
X128079000Y-114539816D01*
X128079000Y-114372184D01*
X128111703Y-114207772D01*
X128175853Y-114052900D01*
X128268985Y-113913519D01*
X128387519Y-113794985D01*
X128526900Y-113701853D01*
X128681772Y-113637703D01*
X128846184Y-113605000D01*
X129013816Y-113605000D01*
X129178228Y-113637703D01*
G37*
G36*
X135321228Y-112948703D02*
G01*
X135476100Y-113012853D01*
X135615481Y-113105985D01*
X135734015Y-113224519D01*
X135827147Y-113363900D01*
X135891297Y-113518772D01*
X135924000Y-113683184D01*
X135924000Y-113850816D01*
X135891297Y-114015228D01*
X135827147Y-114170100D01*
X135734015Y-114309481D01*
X135615481Y-114428015D01*
X135476100Y-114521147D01*
X135321228Y-114585297D01*
X135156816Y-114618000D01*
X134989184Y-114618000D01*
X134824772Y-114585297D01*
X134669900Y-114521147D01*
X134530519Y-114428015D01*
X134411985Y-114309481D01*
X134318853Y-114170100D01*
X134254703Y-114015228D01*
X134222000Y-113850816D01*
X134222000Y-113683184D01*
X134254703Y-113518772D01*
X134318853Y-113363900D01*
X134411985Y-113224519D01*
X134530519Y-113105985D01*
X134669900Y-113012853D01*
X134824772Y-112948703D01*
X134989184Y-112916000D01*
X135156816Y-112916000D01*
X135321228Y-112948703D01*
G37*
G36*
X116555228Y-112420703D02*
G01*
X116710100Y-112484853D01*
X116849481Y-112577985D01*
X116968015Y-112696519D01*
X117061147Y-112835900D01*
X117125297Y-112990772D01*
X117158000Y-113155184D01*
X117158000Y-113322816D01*
X117125297Y-113487228D01*
X117061147Y-113642100D01*
X116968015Y-113781481D01*
X116849481Y-113900015D01*
X116710100Y-113993147D01*
X116555228Y-114057297D01*
X116390816Y-114090000D01*
X116223184Y-114090000D01*
X116058772Y-114057297D01*
X115903900Y-113993147D01*
X115764519Y-113900015D01*
X115645985Y-113781481D01*
X115552853Y-113642100D01*
X115488703Y-113487228D01*
X115456000Y-113322816D01*
X115456000Y-113155184D01*
X115488703Y-112990772D01*
X115552853Y-112835900D01*
X115645985Y-112696519D01*
X115764519Y-112577985D01*
X115903900Y-112484853D01*
X116058772Y-112420703D01*
X116223184Y-112388000D01*
X116390816Y-112388000D01*
X116555228Y-112420703D01*
G37*
G36*
X108935228Y-112420703D02*
G01*
X109090100Y-112484853D01*
X109229481Y-112577985D01*
X109348015Y-112696519D01*
X109441147Y-112835900D01*
X109505297Y-112990772D01*
X109538000Y-113155184D01*
X109538000Y-113322816D01*
X109505297Y-113487228D01*
X109441147Y-113642100D01*
X109348015Y-113781481D01*
X109229481Y-113900015D01*
X109090100Y-113993147D01*
X108935228Y-114057297D01*
X108770816Y-114090000D01*
X108603184Y-114090000D01*
X108438772Y-114057297D01*
X108283900Y-113993147D01*
X108144519Y-113900015D01*
X108025985Y-113781481D01*
X107932853Y-113642100D01*
X107868703Y-113487228D01*
X107836000Y-113322816D01*
X107836000Y-113155184D01*
X107868703Y-112990772D01*
X107932853Y-112835900D01*
X108025985Y-112696519D01*
X108144519Y-112577985D01*
X108283900Y-112484853D01*
X108438772Y-112420703D01*
X108603184Y-112388000D01*
X108770816Y-112388000D01*
X108935228Y-112420703D01*
G37*
G36*
X91451912Y-112072927D02*
G01*
X91601212Y-112102624D01*
X91765184Y-112170544D01*
X91912754Y-112269147D01*
X92038253Y-112394646D01*
X92136856Y-112542216D01*
X92204776Y-112706188D01*
X92239400Y-112880259D01*
X92239400Y-113057741D01*
X92204776Y-113231812D01*
X92136856Y-113395784D01*
X92038253Y-113543354D01*
X91912754Y-113668853D01*
X91765184Y-113767456D01*
X91601212Y-113835376D01*
X91451912Y-113865073D01*
X91427142Y-113870000D01*
X91249658Y-113870000D01*
X91224888Y-113865073D01*
X91075588Y-113835376D01*
X90911616Y-113767456D01*
X90764046Y-113668853D01*
X90638547Y-113543354D01*
X90539944Y-113395784D01*
X90472024Y-113231812D01*
X90437400Y-113057741D01*
X90437400Y-112880259D01*
X90472024Y-112706188D01*
X90539944Y-112542216D01*
X90638547Y-112394646D01*
X90764046Y-112269147D01*
X90911616Y-112170544D01*
X91075588Y-112102624D01*
X91224888Y-112072927D01*
X91249658Y-112068000D01*
X91427142Y-112068000D01*
X91451912Y-112072927D01*
G37*
G36*
X97123828Y-111195703D02*
G01*
X97278700Y-111259853D01*
X97418081Y-111352985D01*
X97536615Y-111471519D01*
X97629747Y-111610900D01*
X97693897Y-111765772D01*
X97726600Y-111930184D01*
X97726600Y-112097816D01*
X97693897Y-112262228D01*
X97629747Y-112417100D01*
X97536615Y-112556481D01*
X97418081Y-112675015D01*
X97278700Y-112768147D01*
X97123828Y-112832297D01*
X96959416Y-112865000D01*
X96791784Y-112865000D01*
X96627372Y-112832297D01*
X96472500Y-112768147D01*
X96333119Y-112675015D01*
X96214585Y-112556481D01*
X96121453Y-112417100D01*
X96057303Y-112262228D01*
X96024600Y-112097816D01*
X96024600Y-111930184D01*
X96057303Y-111765772D01*
X96121453Y-111610900D01*
X96214585Y-111471519D01*
X96333119Y-111352985D01*
X96472500Y-111259853D01*
X96627372Y-111195703D01*
X96791784Y-111163000D01*
X96959416Y-111163000D01*
X97123828Y-111195703D01*
G37*
G36*
X104743828Y-111195703D02*
G01*
X104898700Y-111259853D01*
X105038081Y-111352985D01*
X105156615Y-111471519D01*
X105249747Y-111610900D01*
X105313897Y-111765772D01*
X105346600Y-111930184D01*
X105346600Y-112097816D01*
X105313897Y-112262228D01*
X105249747Y-112417100D01*
X105156615Y-112556481D01*
X105038081Y-112675015D01*
X104898700Y-112768147D01*
X104743828Y-112832297D01*
X104579416Y-112865000D01*
X104411784Y-112865000D01*
X104247372Y-112832297D01*
X104092500Y-112768147D01*
X103953119Y-112675015D01*
X103834585Y-112556481D01*
X103741453Y-112417100D01*
X103677303Y-112262228D01*
X103644600Y-112097816D01*
X103644600Y-111930184D01*
X103677303Y-111765772D01*
X103741453Y-111610900D01*
X103834585Y-111471519D01*
X103953119Y-111352985D01*
X104092500Y-111259853D01*
X104247372Y-111195703D01*
X104411784Y-111163000D01*
X104579416Y-111163000D01*
X104743828Y-111195703D01*
G37*
G36*
X142429512Y-110558927D02*
G01*
X142578812Y-110588624D01*
X142742784Y-110656544D01*
X142890354Y-110755147D01*
X143015853Y-110880646D01*
X143114456Y-111028216D01*
X143182376Y-111192188D01*
X143217000Y-111366259D01*
X143217000Y-111543741D01*
X143182376Y-111717812D01*
X143114456Y-111881784D01*
X143015853Y-112029354D01*
X142890354Y-112154853D01*
X142742784Y-112253456D01*
X142578812Y-112321376D01*
X142429512Y-112351073D01*
X142404742Y-112356000D01*
X142227258Y-112356000D01*
X142202488Y-112351073D01*
X142053188Y-112321376D01*
X141889216Y-112253456D01*
X141741646Y-112154853D01*
X141616147Y-112029354D01*
X141517544Y-111881784D01*
X141449624Y-111717812D01*
X141415000Y-111543741D01*
X141415000Y-111366259D01*
X141449624Y-111192188D01*
X141517544Y-111028216D01*
X141616147Y-110880646D01*
X141741646Y-110755147D01*
X141889216Y-110656544D01*
X142053188Y-110588624D01*
X142202488Y-110558927D01*
X142227258Y-110554000D01*
X142404742Y-110554000D01*
X142429512Y-110558927D01*
G37*
G36*
X129178228Y-110154703D02*
G01*
X129333100Y-110218853D01*
X129472481Y-110311985D01*
X129591015Y-110430519D01*
X129684147Y-110569900D01*
X129748297Y-110724772D01*
X129781000Y-110889184D01*
X129781000Y-111056816D01*
X129748297Y-111221228D01*
X129684147Y-111376100D01*
X129591015Y-111515481D01*
X129472481Y-111634015D01*
X129333100Y-111727147D01*
X129178228Y-111791297D01*
X129013816Y-111824000D01*
X128846184Y-111824000D01*
X128681772Y-111791297D01*
X128526900Y-111727147D01*
X128387519Y-111634015D01*
X128268985Y-111515481D01*
X128175853Y-111376100D01*
X128111703Y-111221228D01*
X128079000Y-111056816D01*
X128079000Y-110889184D01*
X128111703Y-110724772D01*
X128175853Y-110569900D01*
X128268985Y-110430519D01*
X128387519Y-110311985D01*
X128526900Y-110218853D01*
X128681772Y-110154703D01*
X128846184Y-110122000D01*
X129013816Y-110122000D01*
X129178228Y-110154703D01*
G37*
G36*
X122813642Y-109798781D02*
G01*
X122959414Y-109859162D01*
X122959416Y-109859163D01*
X123090608Y-109946822D01*
X123202178Y-110058392D01*
X123274204Y-110166188D01*
X123289838Y-110189586D01*
X123350219Y-110335358D01*
X123381000Y-110490107D01*
X123381000Y-110647893D01*
X123350219Y-110802642D01*
X123289838Y-110948414D01*
X123289837Y-110948416D01*
X123202178Y-111079608D01*
X123090608Y-111191178D01*
X122959416Y-111278837D01*
X122959415Y-111278838D01*
X122959414Y-111278838D01*
X122813642Y-111339219D01*
X122658893Y-111370000D01*
X122501107Y-111370000D01*
X122346358Y-111339219D01*
X122200586Y-111278838D01*
X122200585Y-111278838D01*
X122200584Y-111278837D01*
X122069392Y-111191178D01*
X121957822Y-111079608D01*
X121870163Y-110948416D01*
X121870162Y-110948414D01*
X121809781Y-110802642D01*
X121779000Y-110647893D01*
X121779000Y-110490107D01*
X121809781Y-110335358D01*
X121870162Y-110189586D01*
X121885796Y-110166188D01*
X121957822Y-110058392D01*
X122069392Y-109946822D01*
X122200584Y-109859163D01*
X122200586Y-109859162D01*
X122346358Y-109798781D01*
X122501107Y-109768000D01*
X122658893Y-109768000D01*
X122813642Y-109798781D01*
G37*
G36*
X91451912Y-109532927D02*
G01*
X91601212Y-109562624D01*
X91765184Y-109630544D01*
X91912754Y-109729147D01*
X92038253Y-109854646D01*
X92136856Y-110002216D01*
X92204776Y-110166188D01*
X92239400Y-110340259D01*
X92239400Y-110517741D01*
X92204776Y-110691812D01*
X92136856Y-110855784D01*
X92038253Y-111003354D01*
X91912754Y-111128853D01*
X91765184Y-111227456D01*
X91601212Y-111295376D01*
X91451912Y-111325073D01*
X91427142Y-111330000D01*
X91249658Y-111330000D01*
X91224888Y-111325073D01*
X91075588Y-111295376D01*
X90911616Y-111227456D01*
X90764046Y-111128853D01*
X90638547Y-111003354D01*
X90539944Y-110855784D01*
X90472024Y-110691812D01*
X90437400Y-110517741D01*
X90437400Y-110340259D01*
X90472024Y-110166188D01*
X90539944Y-110002216D01*
X90638547Y-109854646D01*
X90764046Y-109729147D01*
X90911616Y-109630544D01*
X91075588Y-109562624D01*
X91224888Y-109532927D01*
X91249658Y-109528000D01*
X91427142Y-109528000D01*
X91451912Y-109532927D01*
G37*
G36*
X135770916Y-107077334D02*
G01*
X135879492Y-107110271D01*
X135879495Y-107110272D01*
X135915601Y-107129571D01*
X135979557Y-107163756D01*
X136067264Y-107235736D01*
X136139244Y-107323443D01*
X136173429Y-107387399D01*
X136192728Y-107423505D01*
X136192729Y-107423508D01*
X136225666Y-107532084D01*
X136236787Y-107645000D01*
X136225666Y-107757916D01*
X136197271Y-107851519D01*
X136192728Y-107866495D01*
X136173429Y-107902601D01*
X136139244Y-107966557D01*
X136067264Y-108054264D01*
X135979557Y-108126244D01*
X135898141Y-108169761D01*
X135877766Y-108183375D01*
X135860439Y-108200702D01*
X135846826Y-108221076D01*
X135837448Y-108243715D01*
X135832668Y-108267748D01*
X135832668Y-108292252D01*
X135837448Y-108316285D01*
X135846826Y-108338924D01*
X135860440Y-108359299D01*
X135877767Y-108376626D01*
X135898141Y-108390239D01*
X135979557Y-108433756D01*
X136067264Y-108505736D01*
X136139244Y-108593443D01*
X136165320Y-108642229D01*
X136192728Y-108693505D01*
X136192729Y-108693508D01*
X136225666Y-108802084D01*
X136236787Y-108915000D01*
X136225666Y-109027916D01*
X136192729Y-109136492D01*
X136192728Y-109136495D01*
X136186499Y-109148148D01*
X136139244Y-109236557D01*
X136067264Y-109324264D01*
X135990354Y-109387383D01*
X135973035Y-109404702D01*
X135959421Y-109425077D01*
X135950043Y-109447716D01*
X135945263Y-109471749D01*
X135945263Y-109496253D01*
X135950043Y-109520286D01*
X135959421Y-109542925D01*
X135973034Y-109563299D01*
X135990361Y-109580626D01*
X136010736Y-109594240D01*
X136033375Y-109603618D01*
X136057408Y-109608398D01*
X136069660Y-109609000D01*
X136234000Y-109609000D01*
X136234000Y-110761000D01*
X134632000Y-110761000D01*
X134632000Y-109609000D01*
X134796340Y-109609000D01*
X134820726Y-109606598D01*
X134844175Y-109599485D01*
X134865786Y-109587934D01*
X134884728Y-109572389D01*
X134900273Y-109553447D01*
X134911824Y-109531836D01*
X134918937Y-109508387D01*
X134921339Y-109484001D01*
X134918937Y-109459615D01*
X134911824Y-109436166D01*
X134900273Y-109414555D01*
X134884728Y-109395613D01*
X134875655Y-109387391D01*
X134798736Y-109324264D01*
X134726756Y-109236557D01*
X134679501Y-109148148D01*
X134673272Y-109136495D01*
X134673271Y-109136492D01*
X134640334Y-109027916D01*
X134629213Y-108915000D01*
X134640334Y-108802084D01*
X134673271Y-108693508D01*
X134673272Y-108693505D01*
X134700680Y-108642229D01*
X134726756Y-108593443D01*
X134798736Y-108505736D01*
X134886443Y-108433756D01*
X134967859Y-108390239D01*
X134988234Y-108376625D01*
X135005561Y-108359298D01*
X135019174Y-108338924D01*
X135028552Y-108316285D01*
X135033332Y-108292252D01*
X135033332Y-108267748D01*
X135028552Y-108243715D01*
X135019174Y-108221076D01*
X135005560Y-108200701D01*
X134988233Y-108183374D01*
X134967859Y-108169761D01*
X134886443Y-108126244D01*
X134798736Y-108054264D01*
X134726756Y-107966557D01*
X134692571Y-107902601D01*
X134673272Y-107866495D01*
X134668729Y-107851519D01*
X134640334Y-107757916D01*
X134629213Y-107645000D01*
X134640334Y-107532084D01*
X134673271Y-107423508D01*
X134673272Y-107423505D01*
X134692571Y-107387399D01*
X134726756Y-107323443D01*
X134798736Y-107235736D01*
X134886443Y-107163756D01*
X134950399Y-107129571D01*
X134986505Y-107110272D01*
X134986508Y-107110271D01*
X135095084Y-107077334D01*
X135179702Y-107069000D01*
X135686298Y-107069000D01*
X135770916Y-107077334D01*
G37*
G36*
X104743828Y-108655703D02*
G01*
X104898700Y-108719853D01*
X105038081Y-108812985D01*
X105156615Y-108931519D01*
X105249747Y-109070900D01*
X105313897Y-109225772D01*
X105346600Y-109390184D01*
X105346600Y-109557816D01*
X105313897Y-109722228D01*
X105249747Y-109877100D01*
X105156615Y-110016481D01*
X105038081Y-110135015D01*
X104898700Y-110228147D01*
X104743828Y-110292297D01*
X104579416Y-110325000D01*
X104411784Y-110325000D01*
X104247372Y-110292297D01*
X104092500Y-110228147D01*
X103953119Y-110135015D01*
X103834585Y-110016481D01*
X103741453Y-109877100D01*
X103677303Y-109722228D01*
X103644600Y-109557816D01*
X103644600Y-109390184D01*
X103677303Y-109225772D01*
X103741453Y-109070900D01*
X103834585Y-108931519D01*
X103953119Y-108812985D01*
X104092500Y-108719853D01*
X104247372Y-108655703D01*
X104411784Y-108623000D01*
X104579416Y-108623000D01*
X104743828Y-108655703D01*
G37*
G36*
X97123828Y-108655703D02*
G01*
X97278700Y-108719853D01*
X97418081Y-108812985D01*
X97536615Y-108931519D01*
X97629747Y-109070900D01*
X97693897Y-109225772D01*
X97726600Y-109390184D01*
X97726600Y-109557816D01*
X97693897Y-109722228D01*
X97629747Y-109877100D01*
X97536615Y-110016481D01*
X97418081Y-110135015D01*
X97278700Y-110228147D01*
X97123828Y-110292297D01*
X96959416Y-110325000D01*
X96791784Y-110325000D01*
X96627372Y-110292297D01*
X96472500Y-110228147D01*
X96333119Y-110135015D01*
X96214585Y-110016481D01*
X96121453Y-109877100D01*
X96057303Y-109722228D01*
X96024600Y-109557816D01*
X96024600Y-109390184D01*
X96057303Y-109225772D01*
X96121453Y-109070900D01*
X96214585Y-108931519D01*
X96333119Y-108812985D01*
X96472500Y-108719853D01*
X96627372Y-108655703D01*
X96791784Y-108623000D01*
X96959416Y-108623000D01*
X97123828Y-108655703D01*
G37*
G36*
X142429512Y-108018927D02*
G01*
X142578812Y-108048624D01*
X142742784Y-108116544D01*
X142890354Y-108215147D01*
X143015853Y-108340646D01*
X143114456Y-108488216D01*
X143182376Y-108652188D01*
X143217000Y-108826259D01*
X143217000Y-109003741D01*
X143182376Y-109177812D01*
X143114456Y-109341784D01*
X143015853Y-109489354D01*
X142890354Y-109614853D01*
X142742784Y-109713456D01*
X142578812Y-109781376D01*
X142429512Y-109811073D01*
X142404742Y-109816000D01*
X142227258Y-109816000D01*
X142202488Y-109811073D01*
X142053188Y-109781376D01*
X141889216Y-109713456D01*
X141741646Y-109614853D01*
X141616147Y-109489354D01*
X141517544Y-109341784D01*
X141449624Y-109177812D01*
X141415000Y-109003741D01*
X141415000Y-108826259D01*
X141449624Y-108652188D01*
X141517544Y-108488216D01*
X141616147Y-108340646D01*
X141741646Y-108215147D01*
X141889216Y-108116544D01*
X142053188Y-108048624D01*
X142202488Y-108018927D01*
X142227258Y-108014000D01*
X142404742Y-108014000D01*
X142429512Y-108018927D01*
G37*
G36*
X116555228Y-107575703D02*
G01*
X116710100Y-107639853D01*
X116849481Y-107732985D01*
X116968015Y-107851519D01*
X117061147Y-107990900D01*
X117125297Y-108145772D01*
X117158000Y-108310184D01*
X117158000Y-108477816D01*
X117125297Y-108642228D01*
X117061147Y-108797100D01*
X116968015Y-108936481D01*
X116849481Y-109055015D01*
X116710100Y-109148147D01*
X116555228Y-109212297D01*
X116390816Y-109245000D01*
X116223184Y-109245000D01*
X116058772Y-109212297D01*
X115903900Y-109148147D01*
X115764519Y-109055015D01*
X115645985Y-108936481D01*
X115552853Y-108797100D01*
X115488703Y-108642228D01*
X115456000Y-108477816D01*
X115456000Y-108310184D01*
X115488703Y-108145772D01*
X115552853Y-107990900D01*
X115645985Y-107851519D01*
X115764519Y-107732985D01*
X115903900Y-107639853D01*
X116058772Y-107575703D01*
X116223184Y-107543000D01*
X116390816Y-107543000D01*
X116555228Y-107575703D01*
G37*
G36*
X108935228Y-107575703D02*
G01*
X109090100Y-107639853D01*
X109229481Y-107732985D01*
X109348015Y-107851519D01*
X109441147Y-107990900D01*
X109505297Y-108145772D01*
X109538000Y-108310184D01*
X109538000Y-108477816D01*
X109505297Y-108642228D01*
X109441147Y-108797100D01*
X109348015Y-108936481D01*
X109229481Y-109055015D01*
X109090100Y-109148147D01*
X108935228Y-109212297D01*
X108770816Y-109245000D01*
X108603184Y-109245000D01*
X108438772Y-109212297D01*
X108283900Y-109148147D01*
X108144519Y-109055015D01*
X108025985Y-108936481D01*
X107932853Y-108797100D01*
X107868703Y-108642228D01*
X107836000Y-108477816D01*
X107836000Y-108310184D01*
X107868703Y-108145772D01*
X107932853Y-107990900D01*
X108025985Y-107851519D01*
X108144519Y-107732985D01*
X108283900Y-107639853D01*
X108438772Y-107575703D01*
X108603184Y-107543000D01*
X108770816Y-107543000D01*
X108935228Y-107575703D01*
G37*
G36*
X91451912Y-106992927D02*
G01*
X91601212Y-107022624D01*
X91765184Y-107090544D01*
X91912754Y-107189147D01*
X92038253Y-107314646D01*
X92136856Y-107462216D01*
X92204776Y-107626188D01*
X92239400Y-107800259D01*
X92239400Y-107977741D01*
X92204776Y-108151812D01*
X92136856Y-108315784D01*
X92038253Y-108463354D01*
X91912754Y-108588853D01*
X91765184Y-108687456D01*
X91601212Y-108755376D01*
X91451912Y-108785073D01*
X91427142Y-108790000D01*
X91249658Y-108790000D01*
X91224888Y-108785073D01*
X91075588Y-108755376D01*
X90911616Y-108687456D01*
X90764046Y-108588853D01*
X90638547Y-108463354D01*
X90539944Y-108315784D01*
X90472024Y-108151812D01*
X90437400Y-107977741D01*
X90437400Y-107800259D01*
X90472024Y-107626188D01*
X90539944Y-107462216D01*
X90638547Y-107314646D01*
X90764046Y-107189147D01*
X90911616Y-107090544D01*
X91075588Y-107022624D01*
X91224888Y-106992927D01*
X91249658Y-106988000D01*
X91427142Y-106988000D01*
X91451912Y-106992927D01*
G37*
G36*
X104743828Y-106115703D02*
G01*
X104898700Y-106179853D01*
X105038081Y-106272985D01*
X105156615Y-106391519D01*
X105249747Y-106530900D01*
X105313897Y-106685772D01*
X105346600Y-106850184D01*
X105346600Y-107017816D01*
X105313897Y-107182228D01*
X105249747Y-107337100D01*
X105156615Y-107476481D01*
X105038081Y-107595015D01*
X104898700Y-107688147D01*
X104743828Y-107752297D01*
X104579416Y-107785000D01*
X104411784Y-107785000D01*
X104247372Y-107752297D01*
X104092500Y-107688147D01*
X103953119Y-107595015D01*
X103834585Y-107476481D01*
X103741453Y-107337100D01*
X103677303Y-107182228D01*
X103644600Y-107017816D01*
X103644600Y-106850184D01*
X103677303Y-106685772D01*
X103741453Y-106530900D01*
X103834585Y-106391519D01*
X103953119Y-106272985D01*
X104092500Y-106179853D01*
X104247372Y-106115703D01*
X104411784Y-106083000D01*
X104579416Y-106083000D01*
X104743828Y-106115703D01*
G37*
G36*
X97123828Y-106115703D02*
G01*
X97278700Y-106179853D01*
X97418081Y-106272985D01*
X97536615Y-106391519D01*
X97629747Y-106530900D01*
X97693897Y-106685772D01*
X97726600Y-106850184D01*
X97726600Y-107017816D01*
X97693897Y-107182228D01*
X97629747Y-107337100D01*
X97536615Y-107476481D01*
X97418081Y-107595015D01*
X97278700Y-107688147D01*
X97123828Y-107752297D01*
X96959416Y-107785000D01*
X96791784Y-107785000D01*
X96627372Y-107752297D01*
X96472500Y-107688147D01*
X96333119Y-107595015D01*
X96214585Y-107476481D01*
X96121453Y-107337100D01*
X96057303Y-107182228D01*
X96024600Y-107017816D01*
X96024600Y-106850184D01*
X96057303Y-106685772D01*
X96121453Y-106530900D01*
X96214585Y-106391519D01*
X96333119Y-106272985D01*
X96472500Y-106179853D01*
X96627372Y-106115703D01*
X96791784Y-106083000D01*
X96959416Y-106083000D01*
X97123828Y-106115703D01*
G37*
G36*
X143217000Y-107276000D02*
G01*
X141415000Y-107276000D01*
X141415000Y-105474000D01*
X143217000Y-105474000D01*
X143217000Y-107276000D01*
G37*
G36*
X122813642Y-104918781D02*
G01*
X122959414Y-104979162D01*
X122959416Y-104979163D01*
X123090608Y-105066822D01*
X123202178Y-105178392D01*
X123256879Y-105260259D01*
X123289838Y-105309586D01*
X123350219Y-105455358D01*
X123381000Y-105610107D01*
X123381000Y-105767893D01*
X123350219Y-105922642D01*
X123297941Y-106048852D01*
X123289837Y-106068416D01*
X123202178Y-106199608D01*
X123090608Y-106311178D01*
X122959416Y-106398837D01*
X122959415Y-106398838D01*
X122959414Y-106398838D01*
X122813642Y-106459219D01*
X122658893Y-106490000D01*
X122501107Y-106490000D01*
X122346358Y-106459219D01*
X122200586Y-106398838D01*
X122200585Y-106398838D01*
X122200584Y-106398837D01*
X122069392Y-106311178D01*
X121957822Y-106199608D01*
X121870163Y-106068416D01*
X121862059Y-106048852D01*
X121809781Y-105922642D01*
X121779000Y-105767893D01*
X121779000Y-105610107D01*
X121809781Y-105455358D01*
X121870162Y-105309586D01*
X121903121Y-105260259D01*
X121957822Y-105178392D01*
X122069392Y-105066822D01*
X122200584Y-104979163D01*
X122200586Y-104979162D01*
X122346358Y-104918781D01*
X122501107Y-104888000D01*
X122658893Y-104888000D01*
X122813642Y-104918781D01*
G37*
G36*
X91451912Y-104452927D02*
G01*
X91601212Y-104482624D01*
X91765184Y-104550544D01*
X91912754Y-104649147D01*
X92038253Y-104774646D01*
X92136856Y-104922216D01*
X92204776Y-105086188D01*
X92239400Y-105260259D01*
X92239400Y-105437741D01*
X92204776Y-105611812D01*
X92136856Y-105775784D01*
X92038253Y-105923354D01*
X91912754Y-106048853D01*
X91765184Y-106147456D01*
X91601212Y-106215376D01*
X91451912Y-106245073D01*
X91427142Y-106250000D01*
X91249658Y-106250000D01*
X91224888Y-106245073D01*
X91075588Y-106215376D01*
X90911616Y-106147456D01*
X90764046Y-106048853D01*
X90638547Y-105923354D01*
X90539944Y-105775784D01*
X90472024Y-105611812D01*
X90437400Y-105437741D01*
X90437400Y-105260259D01*
X90472024Y-105086188D01*
X90539944Y-104922216D01*
X90638547Y-104774646D01*
X90764046Y-104649147D01*
X90911616Y-104550544D01*
X91075588Y-104482624D01*
X91224888Y-104452927D01*
X91249658Y-104448000D01*
X91427142Y-104448000D01*
X91451912Y-104452927D01*
G37*
G36*
X97123828Y-103575703D02*
G01*
X97278700Y-103639853D01*
X97418081Y-103732985D01*
X97536615Y-103851519D01*
X97629747Y-103990900D01*
X97693897Y-104145772D01*
X97726600Y-104310184D01*
X97726600Y-104477816D01*
X97693897Y-104642228D01*
X97629747Y-104797100D01*
X97536615Y-104936481D01*
X97418081Y-105055015D01*
X97278700Y-105148147D01*
X97123828Y-105212297D01*
X96959416Y-105245000D01*
X96791784Y-105245000D01*
X96627372Y-105212297D01*
X96472500Y-105148147D01*
X96333119Y-105055015D01*
X96214585Y-104936481D01*
X96121453Y-104797100D01*
X96057303Y-104642228D01*
X96024600Y-104477816D01*
X96024600Y-104310184D01*
X96057303Y-104145772D01*
X96121453Y-103990900D01*
X96214585Y-103851519D01*
X96333119Y-103732985D01*
X96472500Y-103639853D01*
X96627372Y-103575703D01*
X96791784Y-103543000D01*
X96959416Y-103543000D01*
X97123828Y-103575703D01*
G37*
G36*
X104743828Y-103575703D02*
G01*
X104898700Y-103639853D01*
X105038081Y-103732985D01*
X105156615Y-103851519D01*
X105249747Y-103990900D01*
X105313897Y-104145772D01*
X105346600Y-104310184D01*
X105346600Y-104477816D01*
X105313897Y-104642228D01*
X105249747Y-104797100D01*
X105156615Y-104936481D01*
X105038081Y-105055015D01*
X104898700Y-105148147D01*
X104743828Y-105212297D01*
X104579416Y-105245000D01*
X104411784Y-105245000D01*
X104247372Y-105212297D01*
X104092500Y-105148147D01*
X103953119Y-105055015D01*
X103834585Y-104936481D01*
X103741453Y-104797100D01*
X103677303Y-104642228D01*
X103644600Y-104477816D01*
X103644600Y-104310184D01*
X103677303Y-104145772D01*
X103741453Y-103990900D01*
X103834585Y-103851519D01*
X103953119Y-103732985D01*
X104092500Y-103639853D01*
X104247372Y-103575703D01*
X104411784Y-103543000D01*
X104579416Y-103543000D01*
X104743828Y-103575703D01*
G37*
G36*
X135770916Y-100727334D02*
G01*
X135879492Y-100760271D01*
X135879495Y-100760272D01*
X135915601Y-100779571D01*
X135979557Y-100813756D01*
X136067264Y-100885736D01*
X136139244Y-100973443D01*
X136155042Y-101003000D01*
X136192728Y-101073505D01*
X136192729Y-101073508D01*
X136225666Y-101182084D01*
X136236787Y-101295000D01*
X136225666Y-101407916D01*
X136192729Y-101516492D01*
X136192728Y-101516495D01*
X136173429Y-101552601D01*
X136139244Y-101616557D01*
X136067264Y-101704264D01*
X135979557Y-101776244D01*
X135898141Y-101819761D01*
X135877766Y-101833375D01*
X135860439Y-101850702D01*
X135846826Y-101871076D01*
X135837448Y-101893715D01*
X135832668Y-101917748D01*
X135832668Y-101942252D01*
X135837448Y-101966285D01*
X135846826Y-101988924D01*
X135860440Y-102009299D01*
X135877767Y-102026626D01*
X135898141Y-102040239D01*
X135979557Y-102083756D01*
X136067264Y-102155736D01*
X136139244Y-102243443D01*
X136173429Y-102307399D01*
X136192728Y-102343505D01*
X136192729Y-102343508D01*
X136225666Y-102452084D01*
X136236787Y-102565000D01*
X136225666Y-102677916D01*
X136192729Y-102786492D01*
X136192728Y-102786495D01*
X136188795Y-102793853D01*
X136139244Y-102886557D01*
X136067264Y-102974264D01*
X135990354Y-103037383D01*
X135973035Y-103054702D01*
X135959421Y-103075077D01*
X135950043Y-103097716D01*
X135945263Y-103121749D01*
X135945263Y-103146253D01*
X135950043Y-103170286D01*
X135959421Y-103192925D01*
X135973034Y-103213299D01*
X135990361Y-103230626D01*
X136010736Y-103244240D01*
X136033375Y-103253618D01*
X136057408Y-103258398D01*
X136069660Y-103259000D01*
X136234000Y-103259000D01*
X136234000Y-104411000D01*
X134632000Y-104411000D01*
X134632000Y-103259000D01*
X134796340Y-103259000D01*
X134820726Y-103256598D01*
X134844175Y-103249485D01*
X134865786Y-103237934D01*
X134884728Y-103222389D01*
X134900273Y-103203447D01*
X134911824Y-103181836D01*
X134918937Y-103158387D01*
X134921339Y-103134001D01*
X134918937Y-103109615D01*
X134911824Y-103086166D01*
X134900273Y-103064555D01*
X134884728Y-103045613D01*
X134875655Y-103037391D01*
X134798736Y-102974264D01*
X134726756Y-102886557D01*
X134677205Y-102793853D01*
X134673272Y-102786495D01*
X134673271Y-102786492D01*
X134640334Y-102677916D01*
X134629213Y-102565000D01*
X134640334Y-102452084D01*
X134673271Y-102343508D01*
X134673272Y-102343505D01*
X134692571Y-102307399D01*
X134726756Y-102243443D01*
X134798736Y-102155736D01*
X134886443Y-102083756D01*
X134967859Y-102040239D01*
X134988234Y-102026625D01*
X135005561Y-102009298D01*
X135019174Y-101988924D01*
X135028552Y-101966285D01*
X135033332Y-101942252D01*
X135033332Y-101917748D01*
X135028552Y-101893715D01*
X135019174Y-101871076D01*
X135005560Y-101850701D01*
X134988233Y-101833374D01*
X134967859Y-101819761D01*
X134886443Y-101776244D01*
X134798736Y-101704264D01*
X134726756Y-101616557D01*
X134692571Y-101552601D01*
X134673272Y-101516495D01*
X134673271Y-101516492D01*
X134640334Y-101407916D01*
X134629213Y-101295000D01*
X134640334Y-101182084D01*
X134673271Y-101073508D01*
X134673272Y-101073505D01*
X134710958Y-101003000D01*
X134726756Y-100973443D01*
X134798736Y-100885736D01*
X134886443Y-100813756D01*
X134950399Y-100779571D01*
X134986505Y-100760272D01*
X134986508Y-100760271D01*
X135095084Y-100727334D01*
X135179702Y-100719000D01*
X135686298Y-100719000D01*
X135770916Y-100727334D01*
G37*
G36*
X108935228Y-102729703D02*
G01*
X109090100Y-102793853D01*
X109229481Y-102886985D01*
X109348015Y-103005519D01*
X109441147Y-103144900D01*
X109505297Y-103299772D01*
X109538000Y-103464184D01*
X109538000Y-103631816D01*
X109505297Y-103796228D01*
X109441147Y-103951100D01*
X109348015Y-104090481D01*
X109229481Y-104209015D01*
X109090100Y-104302147D01*
X108935228Y-104366297D01*
X108770816Y-104399000D01*
X108603184Y-104399000D01*
X108438772Y-104366297D01*
X108283900Y-104302147D01*
X108144519Y-104209015D01*
X108025985Y-104090481D01*
X107932853Y-103951100D01*
X107868703Y-103796228D01*
X107836000Y-103631816D01*
X107836000Y-103464184D01*
X107868703Y-103299772D01*
X107932853Y-103144900D01*
X108025985Y-103005519D01*
X108144519Y-102886985D01*
X108283900Y-102793853D01*
X108438772Y-102729703D01*
X108603184Y-102697000D01*
X108770816Y-102697000D01*
X108935228Y-102729703D01*
G37*
G36*
X116555228Y-102729703D02*
G01*
X116710100Y-102793853D01*
X116849481Y-102886985D01*
X116968015Y-103005519D01*
X117061147Y-103144900D01*
X117125297Y-103299772D01*
X117158000Y-103464184D01*
X117158000Y-103631816D01*
X117125297Y-103796228D01*
X117061147Y-103951100D01*
X116968015Y-104090481D01*
X116849481Y-104209015D01*
X116710100Y-104302147D01*
X116555228Y-104366297D01*
X116390816Y-104399000D01*
X116223184Y-104399000D01*
X116058772Y-104366297D01*
X115903900Y-104302147D01*
X115764519Y-104209015D01*
X115645985Y-104090481D01*
X115552853Y-103951100D01*
X115488703Y-103796228D01*
X115456000Y-103631816D01*
X115456000Y-103464184D01*
X115488703Y-103299772D01*
X115552853Y-103144900D01*
X115645985Y-103005519D01*
X115764519Y-102886985D01*
X115903900Y-102793853D01*
X116058772Y-102729703D01*
X116223184Y-102697000D01*
X116390816Y-102697000D01*
X116555228Y-102729703D01*
G37*
G36*
X129178228Y-102534703D02*
G01*
X129333100Y-102598853D01*
X129472481Y-102691985D01*
X129591015Y-102810519D01*
X129684147Y-102949900D01*
X129748297Y-103104772D01*
X129781000Y-103269184D01*
X129781000Y-103436816D01*
X129748297Y-103601228D01*
X129684147Y-103756100D01*
X129591015Y-103895481D01*
X129472481Y-104014015D01*
X129333100Y-104107147D01*
X129178228Y-104171297D01*
X129013816Y-104204000D01*
X128846184Y-104204000D01*
X128681772Y-104171297D01*
X128526900Y-104107147D01*
X128387519Y-104014015D01*
X128268985Y-103895481D01*
X128175853Y-103756100D01*
X128111703Y-103601228D01*
X128079000Y-103436816D01*
X128079000Y-103269184D01*
X128111703Y-103104772D01*
X128175853Y-102949900D01*
X128268985Y-102810519D01*
X128387519Y-102691985D01*
X128526900Y-102598853D01*
X128681772Y-102534703D01*
X128846184Y-102502000D01*
X129013816Y-102502000D01*
X129178228Y-102534703D01*
G37*
G36*
X91451912Y-101912927D02*
G01*
X91601212Y-101942624D01*
X91765184Y-102010544D01*
X91912754Y-102109147D01*
X92038253Y-102234646D01*
X92136856Y-102382216D01*
X92204776Y-102546188D01*
X92239400Y-102720259D01*
X92239400Y-102897741D01*
X92204776Y-103071812D01*
X92136856Y-103235784D01*
X92038253Y-103383354D01*
X91912754Y-103508853D01*
X91765184Y-103607456D01*
X91601212Y-103675376D01*
X91451912Y-103705073D01*
X91427142Y-103710000D01*
X91249658Y-103710000D01*
X91224888Y-103705073D01*
X91075588Y-103675376D01*
X90911616Y-103607456D01*
X90764046Y-103508853D01*
X90638547Y-103383354D01*
X90539944Y-103235784D01*
X90472024Y-103071812D01*
X90437400Y-102897741D01*
X90437400Y-102720259D01*
X90472024Y-102546188D01*
X90539944Y-102382216D01*
X90638547Y-102234646D01*
X90764046Y-102109147D01*
X90911616Y-102010544D01*
X91075588Y-101942624D01*
X91224888Y-101912927D01*
X91249658Y-101908000D01*
X91427142Y-101908000D01*
X91451912Y-101912927D01*
G37*
G36*
X97726600Y-102705000D02*
G01*
X96024600Y-102705000D01*
X96024600Y-101003000D01*
X97726600Y-101003000D01*
X97726600Y-102705000D01*
G37*
G36*
X104743828Y-101035703D02*
G01*
X104898700Y-101099853D01*
X105038081Y-101192985D01*
X105156615Y-101311519D01*
X105249747Y-101450900D01*
X105313897Y-101605772D01*
X105346600Y-101770184D01*
X105346600Y-101937816D01*
X105313897Y-102102228D01*
X105249747Y-102257100D01*
X105156615Y-102396481D01*
X105038081Y-102515015D01*
X104898700Y-102608147D01*
X104743828Y-102672297D01*
X104579416Y-102705000D01*
X104411784Y-102705000D01*
X104247372Y-102672297D01*
X104092500Y-102608147D01*
X103953119Y-102515015D01*
X103834585Y-102396481D01*
X103741453Y-102257100D01*
X103677303Y-102102228D01*
X103644600Y-101937816D01*
X103644600Y-101770184D01*
X103677303Y-101605772D01*
X103741453Y-101450900D01*
X103834585Y-101311519D01*
X103953119Y-101192985D01*
X104092500Y-101099853D01*
X104247372Y-101035703D01*
X104411784Y-101003000D01*
X104579416Y-101003000D01*
X104743828Y-101035703D01*
G37*
G36*
X91451912Y-99372927D02*
G01*
X91601212Y-99402624D01*
X91765184Y-99470544D01*
X91912754Y-99569147D01*
X92038253Y-99694646D01*
X92136856Y-99842216D01*
X92204776Y-100006188D01*
X92239400Y-100180259D01*
X92239400Y-100357741D01*
X92204776Y-100531812D01*
X92136856Y-100695784D01*
X92038253Y-100843354D01*
X91912754Y-100968853D01*
X91765184Y-101067456D01*
X91601212Y-101135376D01*
X91451912Y-101165073D01*
X91427142Y-101170000D01*
X91249658Y-101170000D01*
X91224888Y-101165073D01*
X91075588Y-101135376D01*
X90911616Y-101067456D01*
X90764046Y-100968853D01*
X90638547Y-100843354D01*
X90539944Y-100695784D01*
X90472024Y-100531812D01*
X90437400Y-100357741D01*
X90437400Y-100180259D01*
X90472024Y-100006188D01*
X90539944Y-99842216D01*
X90638547Y-99694646D01*
X90764046Y-99569147D01*
X90911616Y-99470544D01*
X91075588Y-99402624D01*
X91224888Y-99372927D01*
X91249658Y-99368000D01*
X91427142Y-99368000D01*
X91451912Y-99372927D01*
G37*
G36*
X116492698Y-97466188D02*
G01*
X116642734Y-97496032D01*
X116852203Y-97582797D01*
X117040720Y-97708760D01*
X117201040Y-97869080D01*
X117327003Y-98057597D01*
X117413768Y-98267066D01*
X117458000Y-98489436D01*
X117458000Y-98716164D01*
X117413768Y-98938534D01*
X117327003Y-99148003D01*
X117201040Y-99336520D01*
X117040720Y-99496840D01*
X116852203Y-99622803D01*
X116642734Y-99709568D01*
X116531549Y-99731684D01*
X116420365Y-99753800D01*
X116193635Y-99753800D01*
X116082451Y-99731684D01*
X115971266Y-99709568D01*
X115761797Y-99622803D01*
X115573280Y-99496840D01*
X115412960Y-99336520D01*
X115286997Y-99148003D01*
X115200232Y-98938534D01*
X115156000Y-98716164D01*
X115156000Y-98489436D01*
X115200232Y-98267066D01*
X115286997Y-98057597D01*
X115412960Y-97869080D01*
X115573280Y-97708760D01*
X115761797Y-97582797D01*
X115971266Y-97496032D01*
X116121302Y-97466188D01*
X116193635Y-97451800D01*
X116420365Y-97451800D01*
X116492698Y-97466188D01*
G37*
G36*
X109838000Y-99753800D02*
G01*
X107536000Y-99753800D01*
X107536000Y-97451800D01*
X109838000Y-97451800D01*
X109838000Y-99753800D01*
G37*
G36*
X91451912Y-96832927D02*
G01*
X91601212Y-96862624D01*
X91765184Y-96930544D01*
X91912754Y-97029147D01*
X92038253Y-97154646D01*
X92136856Y-97302216D01*
X92204776Y-97466188D01*
X92239400Y-97640259D01*
X92239400Y-97817741D01*
X92204776Y-97991812D01*
X92136856Y-98155784D01*
X92038253Y-98303354D01*
X91912754Y-98428853D01*
X91765184Y-98527456D01*
X91601212Y-98595376D01*
X91451912Y-98625073D01*
X91427142Y-98630000D01*
X91249658Y-98630000D01*
X91224888Y-98625073D01*
X91075588Y-98595376D01*
X90911616Y-98527456D01*
X90764046Y-98428853D01*
X90638547Y-98303354D01*
X90539944Y-98155784D01*
X90472024Y-97991812D01*
X90437400Y-97817741D01*
X90437400Y-97640259D01*
X90472024Y-97466188D01*
X90539944Y-97302216D01*
X90638547Y-97154646D01*
X90764046Y-97029147D01*
X90911616Y-96930544D01*
X91075588Y-96862624D01*
X91224888Y-96832927D01*
X91249658Y-96828000D01*
X91427142Y-96828000D01*
X91451912Y-96832927D01*
G37*
G36*
X103423828Y-96641503D02*
G01*
X103578700Y-96705653D01*
X103718081Y-96798785D01*
X103836615Y-96917319D01*
X103929747Y-97056700D01*
X103993897Y-97211572D01*
X104026600Y-97375984D01*
X104026600Y-97543616D01*
X103993897Y-97708028D01*
X103929747Y-97862900D01*
X103836615Y-98002281D01*
X103718081Y-98120815D01*
X103578700Y-98213947D01*
X103423828Y-98278097D01*
X103259416Y-98310800D01*
X103091784Y-98310800D01*
X102927372Y-98278097D01*
X102772500Y-98213947D01*
X102633119Y-98120815D01*
X102514585Y-98002281D01*
X102421453Y-97862900D01*
X102357303Y-97708028D01*
X102324600Y-97543616D01*
X102324600Y-97375984D01*
X102357303Y-97211572D01*
X102421453Y-97056700D01*
X102514585Y-96917319D01*
X102633119Y-96798785D01*
X102772500Y-96705653D01*
X102927372Y-96641503D01*
X103091784Y-96608800D01*
X103259416Y-96608800D01*
X103423828Y-96641503D01*
G37*
G36*
X98423828Y-96641503D02*
G01*
X98578700Y-96705653D01*
X98718081Y-96798785D01*
X98836615Y-96917319D01*
X98929747Y-97056700D01*
X98993897Y-97211572D01*
X99026600Y-97375984D01*
X99026600Y-97543616D01*
X98993897Y-97708028D01*
X98929747Y-97862900D01*
X98836615Y-98002281D01*
X98718081Y-98120815D01*
X98578700Y-98213947D01*
X98423828Y-98278097D01*
X98259416Y-98310800D01*
X98091784Y-98310800D01*
X97927372Y-98278097D01*
X97772500Y-98213947D01*
X97633119Y-98120815D01*
X97514585Y-98002281D01*
X97421453Y-97862900D01*
X97357303Y-97708028D01*
X97324600Y-97543616D01*
X97324600Y-97375984D01*
X97357303Y-97211572D01*
X97421453Y-97056700D01*
X97514585Y-96917319D01*
X97633119Y-96798785D01*
X97772500Y-96705653D01*
X97927372Y-96641503D01*
X98091784Y-96608800D01*
X98259416Y-96608800D01*
X98423828Y-96641503D01*
G37*
G36*
X143529228Y-95904903D02*
G01*
X143684100Y-95969053D01*
X143823481Y-96062185D01*
X143942015Y-96180719D01*
X144035147Y-96320100D01*
X144099297Y-96474972D01*
X144132000Y-96639384D01*
X144132000Y-96807016D01*
X144099297Y-96971428D01*
X144035147Y-97126300D01*
X143942015Y-97265681D01*
X143823481Y-97384215D01*
X143684100Y-97477347D01*
X143529228Y-97541497D01*
X143364816Y-97574200D01*
X143197184Y-97574200D01*
X143032772Y-97541497D01*
X142877900Y-97477347D01*
X142738519Y-97384215D01*
X142619985Y-97265681D01*
X142526853Y-97126300D01*
X142462703Y-96971428D01*
X142430000Y-96807016D01*
X142430000Y-96639384D01*
X142462703Y-96474972D01*
X142526853Y-96320100D01*
X142619985Y-96180719D01*
X142738519Y-96062185D01*
X142877900Y-95969053D01*
X143032772Y-95904903D01*
X143197184Y-95872200D01*
X143364816Y-95872200D01*
X143529228Y-95904903D01*
G37*
G36*
X135909228Y-95904903D02*
G01*
X136064100Y-95969053D01*
X136203481Y-96062185D01*
X136322015Y-96180719D01*
X136415147Y-96320100D01*
X136479297Y-96474972D01*
X136512000Y-96639384D01*
X136512000Y-96807016D01*
X136479297Y-96971428D01*
X136415147Y-97126300D01*
X136322015Y-97265681D01*
X136203481Y-97384215D01*
X136064100Y-97477347D01*
X135909228Y-97541497D01*
X135744816Y-97574200D01*
X135577184Y-97574200D01*
X135412772Y-97541497D01*
X135257900Y-97477347D01*
X135118519Y-97384215D01*
X134999985Y-97265681D01*
X134906853Y-97126300D01*
X134842703Y-96971428D01*
X134810000Y-96807016D01*
X134810000Y-96639384D01*
X134842703Y-96474972D01*
X134906853Y-96320100D01*
X134999985Y-96180719D01*
X135118519Y-96062185D01*
X135257900Y-95969053D01*
X135412772Y-95904903D01*
X135577184Y-95872200D01*
X135744816Y-95872200D01*
X135909228Y-95904903D01*
G37*
G36*
X123877564Y-94721989D02*
G01*
X124068833Y-94801215D01*
X124068835Y-94801216D01*
X124240973Y-94916235D01*
X124387365Y-95062627D01*
X124502385Y-95234767D01*
X124581611Y-95426036D01*
X124622000Y-95629084D01*
X124622000Y-95836116D01*
X124581611Y-96039164D01*
X124502385Y-96230433D01*
X124502384Y-96230435D01*
X124387365Y-96402573D01*
X124240973Y-96548965D01*
X124068835Y-96663984D01*
X124068834Y-96663985D01*
X124068833Y-96663985D01*
X123877564Y-96743211D01*
X123674516Y-96783600D01*
X123467484Y-96783600D01*
X123264436Y-96743211D01*
X123073167Y-96663985D01*
X123073166Y-96663985D01*
X123073165Y-96663984D01*
X122901027Y-96548965D01*
X122754635Y-96402573D01*
X122639616Y-96230435D01*
X122639615Y-96230433D01*
X122560389Y-96039164D01*
X122520000Y-95836116D01*
X122520000Y-95629084D01*
X122560389Y-95426036D01*
X122639615Y-95234767D01*
X122754635Y-95062627D01*
X122901027Y-94916235D01*
X123073165Y-94801216D01*
X123073167Y-94801215D01*
X123264436Y-94721989D01*
X123467484Y-94681600D01*
X123674516Y-94681600D01*
X123877564Y-94721989D01*
G37*
G36*
X128877564Y-94721989D02*
G01*
X129068833Y-94801215D01*
X129068835Y-94801216D01*
X129240973Y-94916235D01*
X129387365Y-95062627D01*
X129502385Y-95234767D01*
X129581611Y-95426036D01*
X129622000Y-95629084D01*
X129622000Y-95836116D01*
X129581611Y-96039164D01*
X129502385Y-96230433D01*
X129502384Y-96230435D01*
X129387365Y-96402573D01*
X129240973Y-96548965D01*
X129068835Y-96663984D01*
X129068834Y-96663985D01*
X129068833Y-96663985D01*
X128877564Y-96743211D01*
X128674516Y-96783600D01*
X128467484Y-96783600D01*
X128264436Y-96743211D01*
X128073167Y-96663985D01*
X128073166Y-96663985D01*
X128073165Y-96663984D01*
X127901027Y-96548965D01*
X127754635Y-96402573D01*
X127639616Y-96230435D01*
X127639615Y-96230433D01*
X127560389Y-96039164D01*
X127520000Y-95836116D01*
X127520000Y-95629084D01*
X127560389Y-95426036D01*
X127639615Y-95234767D01*
X127754635Y-95062627D01*
X127901027Y-94916235D01*
X128073165Y-94801216D01*
X128073167Y-94801215D01*
X128264436Y-94721989D01*
X128467484Y-94681600D01*
X128674516Y-94681600D01*
X128877564Y-94721989D01*
G37*
G36*
X104734228Y-92298103D02*
G01*
X104889100Y-92362253D01*
X105028481Y-92455385D01*
X105147015Y-92573919D01*
X105240147Y-92713300D01*
X105304297Y-92868172D01*
X105337000Y-93032584D01*
X105337000Y-93200216D01*
X105304297Y-93364628D01*
X105240147Y-93519500D01*
X105147015Y-93658881D01*
X105028481Y-93777415D01*
X104889100Y-93870547D01*
X104734228Y-93934697D01*
X104569816Y-93967400D01*
X104402184Y-93967400D01*
X104237772Y-93934697D01*
X104082900Y-93870547D01*
X103943519Y-93777415D01*
X103824985Y-93658881D01*
X103731853Y-93519500D01*
X103667703Y-93364628D01*
X103635000Y-93200216D01*
X103635000Y-93032584D01*
X103667703Y-92868172D01*
X103731853Y-92713300D01*
X103824985Y-92573919D01*
X103943519Y-92455385D01*
X104082900Y-92362253D01*
X104237772Y-92298103D01*
X104402184Y-92265400D01*
X104569816Y-92265400D01*
X104734228Y-92298103D01*
G37*
G36*
X97114228Y-92298103D02*
G01*
X97269100Y-92362253D01*
X97408481Y-92455385D01*
X97527015Y-92573919D01*
X97620147Y-92713300D01*
X97684297Y-92868172D01*
X97717000Y-93032584D01*
X97717000Y-93200216D01*
X97684297Y-93364628D01*
X97620147Y-93519500D01*
X97527015Y-93658881D01*
X97408481Y-93777415D01*
X97269100Y-93870547D01*
X97114228Y-93934697D01*
X96949816Y-93967400D01*
X96782184Y-93967400D01*
X96617772Y-93934697D01*
X96462900Y-93870547D01*
X96323519Y-93777415D01*
X96204985Y-93658881D01*
X96111853Y-93519500D01*
X96047703Y-93364628D01*
X96015000Y-93200216D01*
X96015000Y-93032584D01*
X96047703Y-92868172D01*
X96111853Y-92713300D01*
X96204985Y-92573919D01*
X96323519Y-92455385D01*
X96462900Y-92362253D01*
X96617772Y-92298103D01*
X96782184Y-92265400D01*
X96949816Y-92265400D01*
X97114228Y-92298103D01*
G37*
M02*
