M48
; DRILL file {KiCad (5.1.6)-1} date 08/07/20 18:32:44
; FORMAT={-:-/ absolute / inch / decimal}
; #@! TF.CreationDate,2020-08-07T18:32:44-03:00
; #@! TF.GenerationSoftware,Kicad,Pcbnew,(5.1.6)-1
; #@! TF.FileFunction,Plated,1,2,PTH
FMAT,2
INCH
T1C0.0157
T2C0.0295
T3C0.0315
T4C0.0394
T5C0.0433
T6C0.0472
%
G90
G05
T1
X3.538Y-3.5455
X3.538Y-4.9505
X4.634Y-3.5455
X4.634Y-4.9505
X5.73Y-3.5455
X5.73Y-4.9505
T2
X5.332Y-4.238
X5.332Y-4.288
X5.332Y-4.338
X5.332Y-3.988
X5.332Y-4.038
X5.332Y-4.088
T3
X4.279Y-4.2675
X4.579Y-4.2675
X4.279Y-4.649
X4.579Y-4.649
X3.8136Y-3.666
X4.1136Y-3.666
X4.7785Y-4.688
X4.877Y-4.688
X3.814Y-4.01
X3.814Y-4.11
X3.814Y-4.21
X3.814Y-4.31
X3.814Y-4.41
X3.814Y-4.51
X3.814Y-4.61
X4.114Y-4.01
X4.114Y-4.11
X4.114Y-4.21
X4.114Y-4.31
X4.114Y-4.41
X4.114Y-4.51
X4.114Y-4.61
X5.076Y-4.5061
X5.076Y-4.703
X5.341Y-3.808
X5.641Y-3.808
X5.3178Y-4.479
X5.3178Y-4.779
X4.279Y-4.0767
X4.579Y-4.0767
X4.826Y-4.161
X4.826Y-4.3531
X3.8652Y-3.837
X4.062Y-3.837
X5.076Y-4.069
X5.076Y-4.369
X4.279Y-4.4582
X4.579Y-4.4582
T4
X5.603Y-4.188
X5.603Y-4.288
X5.603Y-4.388
X3.596Y-3.8476
X3.596Y-3.9476
X3.596Y-4.0476
X3.596Y-4.1476
X3.596Y-4.2476
X3.596Y-4.3476
X3.596Y-4.4476
X3.596Y-4.5476
X3.596Y-4.6476
T5
X4.279Y-3.882
X4.579Y-3.882
T6
X4.865Y-3.769
X5.0619Y-3.769
T0
M30
