G04 #@! TF.GenerationSoftware,KiCad,Pcbnew,(5.1.6)-1*
G04 #@! TF.CreationDate,2020-08-07T18:30:50-03:00*
G04 #@! TF.ProjectId,av-mc1000,61762d6d-6331-4303-9030-2e6b69636164,rev?*
G04 #@! TF.SameCoordinates,Original*
G04 #@! TF.FileFunction,Legend,Top*
G04 #@! TF.FilePolarity,Positive*
%FSLAX46Y46*%
G04 Gerber Fmt 4.6, Leading zero omitted, Abs format (unit mm)*
G04 Created by KiCad (PCBNEW (5.1.6)-1) date 2020-08-07 18:30:50*
%MOMM*%
%LPD*%
G01*
G04 APERTURE LIST*
%ADD10C,0.150000*%
%ADD11C,0.120000*%
G04 APERTURE END LIST*
D10*
X93548171Y-119335504D02*
X93091028Y-119335504D01*
X93319600Y-119335504D02*
X93319600Y-118535504D01*
X93243409Y-118649790D01*
X93167219Y-118725980D01*
X93091028Y-118764076D01*
X140639771Y-106559304D02*
X140182628Y-106559304D01*
X140411200Y-106559304D02*
X140411200Y-105759304D01*
X140335009Y-105873590D01*
X140258819Y-105949780D01*
X140182628Y-105987876D01*
X141175704Y-122267023D02*
X140375704Y-122267023D01*
X140375704Y-121962261D01*
X140413800Y-121886071D01*
X140451895Y-121847976D01*
X140528085Y-121809880D01*
X140642371Y-121809880D01*
X140718561Y-121847976D01*
X140756657Y-121886071D01*
X140794752Y-121962261D01*
X140794752Y-122267023D01*
X141175704Y-121467023D02*
X140642371Y-121467023D01*
X140375704Y-121467023D02*
X140413800Y-121505119D01*
X140451895Y-121467023D01*
X140413800Y-121428928D01*
X140375704Y-121467023D01*
X140451895Y-121467023D01*
X140642371Y-121086071D02*
X141175704Y-121086071D01*
X140718561Y-121086071D02*
X140680466Y-121047976D01*
X140642371Y-120971785D01*
X140642371Y-120857500D01*
X140680466Y-120781309D01*
X140756657Y-120743214D01*
X141175704Y-120743214D01*
X141175704Y-120247976D02*
X141137609Y-120324166D01*
X141099514Y-120362261D01*
X141023323Y-120400357D01*
X140794752Y-120400357D01*
X140718561Y-120362261D01*
X140680466Y-120324166D01*
X140642371Y-120247976D01*
X140642371Y-120133690D01*
X140680466Y-120057500D01*
X140718561Y-120019404D01*
X140794752Y-119981309D01*
X141023323Y-119981309D01*
X141099514Y-120019404D01*
X141137609Y-120057500D01*
X141175704Y-120133690D01*
X141175704Y-120247976D01*
X141175704Y-118609880D02*
X141175704Y-119067023D01*
X141175704Y-118838452D02*
X140375704Y-118838452D01*
X140489990Y-118914642D01*
X140566180Y-118990833D01*
X140604276Y-119067023D01*
X141099514Y-118267023D02*
X141137609Y-118228928D01*
X141175704Y-118267023D01*
X141137609Y-118305119D01*
X141099514Y-118267023D01*
X141175704Y-118267023D01*
X140680466Y-118267023D02*
X140718561Y-118228928D01*
X140756657Y-118267023D01*
X140718561Y-118305119D01*
X140680466Y-118267023D01*
X140756657Y-118267023D01*
X140375704Y-118000357D02*
X141175704Y-117733690D01*
X140375704Y-117467023D01*
X141175704Y-117200357D02*
X140642371Y-117200357D01*
X140375704Y-117200357D02*
X140413800Y-117238452D01*
X140451895Y-117200357D01*
X140413800Y-117162261D01*
X140375704Y-117200357D01*
X140451895Y-117200357D01*
X141175704Y-116476547D02*
X140375704Y-116476547D01*
X141137609Y-116476547D02*
X141175704Y-116552738D01*
X141175704Y-116705119D01*
X141137609Y-116781309D01*
X141099514Y-116819404D01*
X141023323Y-116857500D01*
X140794752Y-116857500D01*
X140718561Y-116819404D01*
X140680466Y-116781309D01*
X140642371Y-116705119D01*
X140642371Y-116552738D01*
X140680466Y-116476547D01*
X141137609Y-115790833D02*
X141175704Y-115867023D01*
X141175704Y-116019404D01*
X141137609Y-116095595D01*
X141061419Y-116133690D01*
X140756657Y-116133690D01*
X140680466Y-116095595D01*
X140642371Y-116019404D01*
X140642371Y-115867023D01*
X140680466Y-115790833D01*
X140756657Y-115752738D01*
X140832847Y-115752738D01*
X140909038Y-116133690D01*
X141175704Y-115295595D02*
X141137609Y-115371785D01*
X141099514Y-115409880D01*
X141023323Y-115447976D01*
X140794752Y-115447976D01*
X140718561Y-115409880D01*
X140680466Y-115371785D01*
X140642371Y-115295595D01*
X140642371Y-115181309D01*
X140680466Y-115105119D01*
X140718561Y-115067023D01*
X140794752Y-115028928D01*
X141023323Y-115028928D01*
X141099514Y-115067023D01*
X141137609Y-115105119D01*
X141175704Y-115181309D01*
X141175704Y-115295595D01*
X142525704Y-122267023D02*
X141725704Y-122267023D01*
X141725704Y-121962261D01*
X141763800Y-121886071D01*
X141801895Y-121847976D01*
X141878085Y-121809880D01*
X141992371Y-121809880D01*
X142068561Y-121847976D01*
X142106657Y-121886071D01*
X142144752Y-121962261D01*
X142144752Y-122267023D01*
X142525704Y-121467023D02*
X141992371Y-121467023D01*
X141725704Y-121467023D02*
X141763800Y-121505119D01*
X141801895Y-121467023D01*
X141763800Y-121428928D01*
X141725704Y-121467023D01*
X141801895Y-121467023D01*
X141992371Y-121086071D02*
X142525704Y-121086071D01*
X142068561Y-121086071D02*
X142030466Y-121047976D01*
X141992371Y-120971785D01*
X141992371Y-120857500D01*
X142030466Y-120781309D01*
X142106657Y-120743214D01*
X142525704Y-120743214D01*
X142525704Y-120247976D02*
X142487609Y-120324166D01*
X142449514Y-120362261D01*
X142373323Y-120400357D01*
X142144752Y-120400357D01*
X142068561Y-120362261D01*
X142030466Y-120324166D01*
X141992371Y-120247976D01*
X141992371Y-120133690D01*
X142030466Y-120057500D01*
X142068561Y-120019404D01*
X142144752Y-119981309D01*
X142373323Y-119981309D01*
X142449514Y-120019404D01*
X142487609Y-120057500D01*
X142525704Y-120133690D01*
X142525704Y-120247976D01*
X141801895Y-119067023D02*
X141763800Y-119028928D01*
X141725704Y-118952738D01*
X141725704Y-118762261D01*
X141763800Y-118686071D01*
X141801895Y-118647976D01*
X141878085Y-118609880D01*
X141954276Y-118609880D01*
X142068561Y-118647976D01*
X142525704Y-119105119D01*
X142525704Y-118609880D01*
X142449514Y-118267023D02*
X142487609Y-118228928D01*
X142525704Y-118267023D01*
X142487609Y-118305119D01*
X142449514Y-118267023D01*
X142525704Y-118267023D01*
X142030466Y-118267023D02*
X142068561Y-118228928D01*
X142106657Y-118267023D01*
X142068561Y-118305119D01*
X142030466Y-118267023D01*
X142106657Y-118267023D01*
X142297133Y-117924166D02*
X142297133Y-117543214D01*
X142525704Y-118000357D02*
X141725704Y-117733690D01*
X142525704Y-117467023D01*
X141992371Y-116857500D02*
X142525704Y-116857500D01*
X141992371Y-117200357D02*
X142411419Y-117200357D01*
X142487609Y-117162261D01*
X142525704Y-117086071D01*
X142525704Y-116971785D01*
X142487609Y-116895595D01*
X142449514Y-116857500D01*
X142525704Y-116133690D02*
X141725704Y-116133690D01*
X142487609Y-116133690D02*
X142525704Y-116209880D01*
X142525704Y-116362261D01*
X142487609Y-116438452D01*
X142449514Y-116476547D01*
X142373323Y-116514642D01*
X142144752Y-116514642D01*
X142068561Y-116476547D01*
X142030466Y-116438452D01*
X141992371Y-116362261D01*
X141992371Y-116209880D01*
X142030466Y-116133690D01*
X142525704Y-115752738D02*
X141992371Y-115752738D01*
X141725704Y-115752738D02*
X141763800Y-115790833D01*
X141801895Y-115752738D01*
X141763800Y-115714642D01*
X141725704Y-115752738D01*
X141801895Y-115752738D01*
X142525704Y-115257500D02*
X142487609Y-115333690D01*
X142449514Y-115371785D01*
X142373323Y-115409880D01*
X142144752Y-115409880D01*
X142068561Y-115371785D01*
X142030466Y-115333690D01*
X141992371Y-115257500D01*
X141992371Y-115143214D01*
X142030466Y-115067023D01*
X142068561Y-115028928D01*
X142144752Y-114990833D01*
X142373323Y-114990833D01*
X142449514Y-115028928D01*
X142487609Y-115067023D01*
X142525704Y-115143214D01*
X142525704Y-115257500D01*
X143875704Y-122267023D02*
X143075704Y-122267023D01*
X143075704Y-121962261D01*
X143113800Y-121886071D01*
X143151895Y-121847976D01*
X143228085Y-121809880D01*
X143342371Y-121809880D01*
X143418561Y-121847976D01*
X143456657Y-121886071D01*
X143494752Y-121962261D01*
X143494752Y-122267023D01*
X143875704Y-121467023D02*
X143342371Y-121467023D01*
X143075704Y-121467023D02*
X143113800Y-121505119D01*
X143151895Y-121467023D01*
X143113800Y-121428928D01*
X143075704Y-121467023D01*
X143151895Y-121467023D01*
X143342371Y-121086071D02*
X143875704Y-121086071D01*
X143418561Y-121086071D02*
X143380466Y-121047976D01*
X143342371Y-120971785D01*
X143342371Y-120857500D01*
X143380466Y-120781309D01*
X143456657Y-120743214D01*
X143875704Y-120743214D01*
X143875704Y-120247976D02*
X143837609Y-120324166D01*
X143799514Y-120362261D01*
X143723323Y-120400357D01*
X143494752Y-120400357D01*
X143418561Y-120362261D01*
X143380466Y-120324166D01*
X143342371Y-120247976D01*
X143342371Y-120133690D01*
X143380466Y-120057500D01*
X143418561Y-120019404D01*
X143494752Y-119981309D01*
X143723323Y-119981309D01*
X143799514Y-120019404D01*
X143837609Y-120057500D01*
X143875704Y-120133690D01*
X143875704Y-120247976D01*
X143075704Y-119105119D02*
X143075704Y-118609880D01*
X143380466Y-118876547D01*
X143380466Y-118762261D01*
X143418561Y-118686071D01*
X143456657Y-118647976D01*
X143532847Y-118609880D01*
X143723323Y-118609880D01*
X143799514Y-118647976D01*
X143837609Y-118686071D01*
X143875704Y-118762261D01*
X143875704Y-118990833D01*
X143837609Y-119067023D01*
X143799514Y-119105119D01*
X143799514Y-118267023D02*
X143837609Y-118228928D01*
X143875704Y-118267023D01*
X143837609Y-118305119D01*
X143799514Y-118267023D01*
X143875704Y-118267023D01*
X143380466Y-118267023D02*
X143418561Y-118228928D01*
X143456657Y-118267023D01*
X143418561Y-118305119D01*
X143380466Y-118267023D01*
X143456657Y-118267023D01*
X143113800Y-117467023D02*
X143075704Y-117543214D01*
X143075704Y-117657500D01*
X143113800Y-117771785D01*
X143189990Y-117847976D01*
X143266180Y-117886071D01*
X143418561Y-117924166D01*
X143532847Y-117924166D01*
X143685228Y-117886071D01*
X143761419Y-117847976D01*
X143837609Y-117771785D01*
X143875704Y-117657500D01*
X143875704Y-117581309D01*
X143837609Y-117467023D01*
X143799514Y-117428928D01*
X143532847Y-117428928D01*
X143532847Y-117581309D01*
X143875704Y-117086071D02*
X143075704Y-117086071D01*
X143875704Y-116628928D01*
X143075704Y-116628928D01*
X143875704Y-116247976D02*
X143075704Y-116247976D01*
X143075704Y-116057500D01*
X143113800Y-115943214D01*
X143189990Y-115867023D01*
X143266180Y-115828928D01*
X143418561Y-115790833D01*
X143532847Y-115790833D01*
X143685228Y-115828928D01*
X143761419Y-115867023D01*
X143837609Y-115943214D01*
X143875704Y-116057500D01*
X143875704Y-116247976D01*
D11*
X140986000Y-105045000D02*
X142316000Y-105045000D01*
X140986000Y-106375000D02*
X140986000Y-105045000D01*
X140986000Y-107645000D02*
X143646000Y-107645000D01*
X143646000Y-107645000D02*
X143646000Y-112785000D01*
X140986000Y-107645000D02*
X140986000Y-112785000D01*
X140986000Y-112785000D02*
X143646000Y-112785000D01*
X103295600Y-98514800D02*
X103295600Y-98829800D01*
X103295600Y-96089800D02*
X103295600Y-96404800D01*
X98055600Y-98514800D02*
X98055600Y-98829800D01*
X98055600Y-96089800D02*
X98055600Y-96404800D01*
X98055600Y-98829800D02*
X103295600Y-98829800D01*
X98055600Y-96089800D02*
X103295600Y-96089800D01*
X127560000Y-119576000D02*
X127560000Y-114336000D01*
X130300000Y-119576000D02*
X130300000Y-114336000D01*
X127560000Y-119576000D02*
X127875000Y-119576000D01*
X129985000Y-119576000D02*
X130300000Y-119576000D01*
X127560000Y-114336000D02*
X127875000Y-114336000D01*
X129985000Y-114336000D02*
X130300000Y-114336000D01*
X125245000Y-119075000D02*
G75*
G03*
X125245000Y-119075000I-2620000J0D01*
G01*
X122625000Y-116495000D02*
X122625000Y-121655000D01*
X122665000Y-116495000D02*
X122665000Y-121655000D01*
X122705000Y-116496000D02*
X122705000Y-121654000D01*
X122745000Y-116497000D02*
X122745000Y-121653000D01*
X122785000Y-116499000D02*
X122785000Y-121651000D01*
X122825000Y-116502000D02*
X122825000Y-121648000D01*
X122865000Y-116506000D02*
X122865000Y-118035000D01*
X122865000Y-120115000D02*
X122865000Y-121644000D01*
X122905000Y-116510000D02*
X122905000Y-118035000D01*
X122905000Y-120115000D02*
X122905000Y-121640000D01*
X122945000Y-116514000D02*
X122945000Y-118035000D01*
X122945000Y-120115000D02*
X122945000Y-121636000D01*
X122985000Y-116519000D02*
X122985000Y-118035000D01*
X122985000Y-120115000D02*
X122985000Y-121631000D01*
X123025000Y-116525000D02*
X123025000Y-118035000D01*
X123025000Y-120115000D02*
X123025000Y-121625000D01*
X123065000Y-116532000D02*
X123065000Y-118035000D01*
X123065000Y-120115000D02*
X123065000Y-121618000D01*
X123105000Y-116539000D02*
X123105000Y-118035000D01*
X123105000Y-120115000D02*
X123105000Y-121611000D01*
X123145000Y-116547000D02*
X123145000Y-118035000D01*
X123145000Y-120115000D02*
X123145000Y-121603000D01*
X123185000Y-116555000D02*
X123185000Y-118035000D01*
X123185000Y-120115000D02*
X123185000Y-121595000D01*
X123225000Y-116564000D02*
X123225000Y-118035000D01*
X123225000Y-120115000D02*
X123225000Y-121586000D01*
X123265000Y-116574000D02*
X123265000Y-118035000D01*
X123265000Y-120115000D02*
X123265000Y-121576000D01*
X123305000Y-116584000D02*
X123305000Y-118035000D01*
X123305000Y-120115000D02*
X123305000Y-121566000D01*
X123346000Y-116595000D02*
X123346000Y-118035000D01*
X123346000Y-120115000D02*
X123346000Y-121555000D01*
X123386000Y-116607000D02*
X123386000Y-118035000D01*
X123386000Y-120115000D02*
X123386000Y-121543000D01*
X123426000Y-116620000D02*
X123426000Y-118035000D01*
X123426000Y-120115000D02*
X123426000Y-121530000D01*
X123466000Y-116633000D02*
X123466000Y-118035000D01*
X123466000Y-120115000D02*
X123466000Y-121517000D01*
X123506000Y-116647000D02*
X123506000Y-118035000D01*
X123506000Y-120115000D02*
X123506000Y-121503000D01*
X123546000Y-116661000D02*
X123546000Y-118035000D01*
X123546000Y-120115000D02*
X123546000Y-121489000D01*
X123586000Y-116677000D02*
X123586000Y-118035000D01*
X123586000Y-120115000D02*
X123586000Y-121473000D01*
X123626000Y-116693000D02*
X123626000Y-118035000D01*
X123626000Y-120115000D02*
X123626000Y-121457000D01*
X123666000Y-116710000D02*
X123666000Y-118035000D01*
X123666000Y-120115000D02*
X123666000Y-121440000D01*
X123706000Y-116727000D02*
X123706000Y-118035000D01*
X123706000Y-120115000D02*
X123706000Y-121423000D01*
X123746000Y-116746000D02*
X123746000Y-118035000D01*
X123746000Y-120115000D02*
X123746000Y-121404000D01*
X123786000Y-116765000D02*
X123786000Y-118035000D01*
X123786000Y-120115000D02*
X123786000Y-121385000D01*
X123826000Y-116785000D02*
X123826000Y-118035000D01*
X123826000Y-120115000D02*
X123826000Y-121365000D01*
X123866000Y-116807000D02*
X123866000Y-118035000D01*
X123866000Y-120115000D02*
X123866000Y-121343000D01*
X123906000Y-116828000D02*
X123906000Y-118035000D01*
X123906000Y-120115000D02*
X123906000Y-121322000D01*
X123946000Y-116851000D02*
X123946000Y-118035000D01*
X123946000Y-120115000D02*
X123946000Y-121299000D01*
X123986000Y-116875000D02*
X123986000Y-118035000D01*
X123986000Y-120115000D02*
X123986000Y-121275000D01*
X124026000Y-116900000D02*
X124026000Y-118035000D01*
X124026000Y-120115000D02*
X124026000Y-121250000D01*
X124066000Y-116926000D02*
X124066000Y-118035000D01*
X124066000Y-120115000D02*
X124066000Y-121224000D01*
X124106000Y-116953000D02*
X124106000Y-118035000D01*
X124106000Y-120115000D02*
X124106000Y-121197000D01*
X124146000Y-116980000D02*
X124146000Y-118035000D01*
X124146000Y-120115000D02*
X124146000Y-121170000D01*
X124186000Y-117010000D02*
X124186000Y-118035000D01*
X124186000Y-120115000D02*
X124186000Y-121140000D01*
X124226000Y-117040000D02*
X124226000Y-118035000D01*
X124226000Y-120115000D02*
X124226000Y-121110000D01*
X124266000Y-117071000D02*
X124266000Y-118035000D01*
X124266000Y-120115000D02*
X124266000Y-121079000D01*
X124306000Y-117104000D02*
X124306000Y-118035000D01*
X124306000Y-120115000D02*
X124306000Y-121046000D01*
X124346000Y-117138000D02*
X124346000Y-118035000D01*
X124346000Y-120115000D02*
X124346000Y-121012000D01*
X124386000Y-117174000D02*
X124386000Y-118035000D01*
X124386000Y-120115000D02*
X124386000Y-120976000D01*
X124426000Y-117211000D02*
X124426000Y-118035000D01*
X124426000Y-120115000D02*
X124426000Y-120939000D01*
X124466000Y-117249000D02*
X124466000Y-118035000D01*
X124466000Y-120115000D02*
X124466000Y-120901000D01*
X124506000Y-117290000D02*
X124506000Y-118035000D01*
X124506000Y-120115000D02*
X124506000Y-120860000D01*
X124546000Y-117332000D02*
X124546000Y-118035000D01*
X124546000Y-120115000D02*
X124546000Y-120818000D01*
X124586000Y-117376000D02*
X124586000Y-118035000D01*
X124586000Y-120115000D02*
X124586000Y-120774000D01*
X124626000Y-117422000D02*
X124626000Y-118035000D01*
X124626000Y-120115000D02*
X124626000Y-120728000D01*
X124666000Y-117470000D02*
X124666000Y-118035000D01*
X124666000Y-120115000D02*
X124666000Y-120680000D01*
X124706000Y-117521000D02*
X124706000Y-118035000D01*
X124706000Y-120115000D02*
X124706000Y-120629000D01*
X124746000Y-117575000D02*
X124746000Y-118035000D01*
X124746000Y-120115000D02*
X124746000Y-120575000D01*
X124786000Y-117632000D02*
X124786000Y-118035000D01*
X124786000Y-120115000D02*
X124786000Y-120518000D01*
X124826000Y-117692000D02*
X124826000Y-118035000D01*
X124826000Y-120115000D02*
X124826000Y-120458000D01*
X124866000Y-117756000D02*
X124866000Y-118035000D01*
X124866000Y-120115000D02*
X124866000Y-120394000D01*
X124906000Y-117824000D02*
X124906000Y-118035000D01*
X124906000Y-120115000D02*
X124906000Y-120326000D01*
X124946000Y-117897000D02*
X124946000Y-120253000D01*
X124986000Y-117977000D02*
X124986000Y-120173000D01*
X125026000Y-118064000D02*
X125026000Y-120086000D01*
X125066000Y-118160000D02*
X125066000Y-119990000D01*
X125106000Y-118270000D02*
X125106000Y-119880000D01*
X125146000Y-118398000D02*
X125146000Y-119752000D01*
X125186000Y-118557000D02*
X125186000Y-119593000D01*
X125226000Y-118791000D02*
X125226000Y-119359000D01*
X119820225Y-117600000D02*
X120320225Y-117600000D01*
X120070225Y-117350000D02*
X120070225Y-117850000D01*
X131191000Y-95732600D02*
G75*
G03*
X131191000Y-95732600I-5120000J0D01*
G01*
X109777000Y-97262800D02*
X109777000Y-97132800D01*
X109777000Y-97132800D02*
X115217000Y-97132800D01*
X115217000Y-97132800D02*
X115217000Y-97262800D01*
X109777000Y-99942800D02*
X109777000Y-100072800D01*
X109777000Y-100072800D02*
X115217000Y-100072800D01*
X115217000Y-100072800D02*
X115217000Y-99942800D01*
X110677000Y-97132800D02*
X110677000Y-100072800D01*
X110797000Y-97132800D02*
X110797000Y-100072800D01*
X110557000Y-97132800D02*
X110557000Y-100072800D01*
X92668400Y-96399000D02*
X90008400Y-96399000D01*
X92668400Y-116779000D02*
X92668400Y-96399000D01*
X90008400Y-116779000D02*
X90008400Y-96399000D01*
X92668400Y-116779000D02*
X90008400Y-116779000D01*
X92668400Y-118049000D02*
X92668400Y-119379000D01*
X92668400Y-119379000D02*
X91338400Y-119379000D01*
X137283000Y-110715000D02*
X137283000Y-107115000D01*
X137271478Y-107076522D02*
G75*
G03*
X132833000Y-108915000I-1838478J-1838478D01*
G01*
X137271478Y-110753478D02*
G75*
G02*
X132833000Y-108915000I-1838478J1838478D01*
G01*
X137283000Y-104365000D02*
X137283000Y-100765000D01*
X137271478Y-104403478D02*
G75*
G02*
X132833000Y-102565000I-1838478J1838478D01*
G01*
X137271478Y-100726522D02*
G75*
G03*
X132833000Y-102565000I-1838478J-1838478D01*
G01*
X115767000Y-104918000D02*
X115767000Y-104588000D01*
X109227000Y-104918000D02*
X115767000Y-104918000D01*
X109227000Y-104588000D02*
X109227000Y-104918000D01*
X115767000Y-102178000D02*
X115767000Y-102508000D01*
X109227000Y-102178000D02*
X115767000Y-102178000D01*
X109227000Y-102508000D02*
X109227000Y-102178000D01*
X115767000Y-109434000D02*
X115767000Y-109764000D01*
X115767000Y-109764000D02*
X109227000Y-109764000D01*
X109227000Y-109764000D02*
X109227000Y-109434000D01*
X115767000Y-107354000D02*
X115767000Y-107024000D01*
X115767000Y-107024000D02*
X109227000Y-107024000D01*
X109227000Y-107024000D02*
X109227000Y-107354000D01*
X133703000Y-120847000D02*
X134033000Y-120847000D01*
X133703000Y-114307000D02*
X133703000Y-120847000D01*
X134033000Y-114307000D02*
X133703000Y-114307000D01*
X136443000Y-120847000D02*
X136113000Y-120847000D01*
X136443000Y-114307000D02*
X136443000Y-120847000D01*
X136113000Y-114307000D02*
X136443000Y-114307000D01*
X109227000Y-112199000D02*
X109227000Y-111869000D01*
X109227000Y-111869000D02*
X115767000Y-111869000D01*
X115767000Y-111869000D02*
X115767000Y-112199000D01*
X109227000Y-114279000D02*
X109227000Y-114609000D01*
X109227000Y-114609000D02*
X115767000Y-114609000D01*
X115767000Y-114609000D02*
X115767000Y-114279000D01*
X109227000Y-117045000D02*
X109227000Y-116715000D01*
X109227000Y-116715000D02*
X115767000Y-116715000D01*
X115767000Y-116715000D02*
X115767000Y-117045000D01*
X109227000Y-119125000D02*
X109227000Y-119455000D01*
X109227000Y-119455000D02*
X115767000Y-119455000D01*
X115767000Y-119455000D02*
X115767000Y-119125000D01*
X142741000Y-98093200D02*
X142741000Y-97763200D01*
X136201000Y-98093200D02*
X142741000Y-98093200D01*
X136201000Y-97763200D02*
X136201000Y-98093200D01*
X142741000Y-95353200D02*
X142741000Y-95683200D01*
X136201000Y-95353200D02*
X142741000Y-95353200D01*
X136201000Y-95683200D02*
X136201000Y-95353200D01*
X97406000Y-91746400D02*
X97406000Y-92076400D01*
X103946000Y-91746400D02*
X97406000Y-91746400D01*
X103946000Y-92076400D02*
X103946000Y-91746400D01*
X97406000Y-94486400D02*
X97406000Y-94156400D01*
X103946000Y-94486400D02*
X97406000Y-94486400D01*
X103946000Y-94156400D02*
X103946000Y-94486400D01*
X127890000Y-110433000D02*
X127560000Y-110433000D01*
X127560000Y-110433000D02*
X127560000Y-103893000D01*
X127560000Y-103893000D02*
X127890000Y-103893000D01*
X129970000Y-110433000D02*
X130300000Y-110433000D01*
X130300000Y-110433000D02*
X130300000Y-103893000D01*
X130300000Y-103893000D02*
X129970000Y-103893000D01*
X99685600Y-100524000D02*
X98035600Y-100524000D01*
X98035600Y-100524000D02*
X98035600Y-118424000D01*
X98035600Y-118424000D02*
X103335600Y-118424000D01*
X103335600Y-118424000D02*
X103335600Y-100524000D01*
X103335600Y-100524000D02*
X101685600Y-100524000D01*
X101685600Y-100524000D02*
G75*
G02*
X99685600Y-100524000I-1000000J0D01*
G01*
X125105000Y-104929000D02*
X125105000Y-111329000D01*
X120055000Y-104929000D02*
X120055000Y-111329000D01*
X120055000Y-104929000D02*
G75*
G02*
X125105000Y-104929000I2525000J0D01*
G01*
X120055000Y-111329000D02*
G75*
G03*
X125105000Y-111329000I2525000J0D01*
G01*
D10*
X144417904Y-109166667D02*
X144989333Y-109166667D01*
X145103619Y-109204762D01*
X145179809Y-109280953D01*
X145217904Y-109395239D01*
X145217904Y-109471429D01*
X144494095Y-108823810D02*
X144456000Y-108785715D01*
X144417904Y-108709524D01*
X144417904Y-108519048D01*
X144456000Y-108442858D01*
X144494095Y-108404762D01*
X144570285Y-108366667D01*
X144646476Y-108366667D01*
X144760761Y-108404762D01*
X145217904Y-108861905D01*
X145217904Y-108366667D01*
X100506066Y-97745514D02*
X100467971Y-97783609D01*
X100353685Y-97821704D01*
X100277495Y-97821704D01*
X100163209Y-97783609D01*
X100087019Y-97707419D01*
X100048923Y-97631228D01*
X100010828Y-97478847D01*
X100010828Y-97364561D01*
X100048923Y-97212180D01*
X100087019Y-97135990D01*
X100163209Y-97059800D01*
X100277495Y-97021704D01*
X100353685Y-97021704D01*
X100467971Y-97059800D01*
X100506066Y-97097895D01*
X101267971Y-97821704D02*
X100810828Y-97821704D01*
X101039400Y-97821704D02*
X101039400Y-97021704D01*
X100963209Y-97135990D01*
X100887019Y-97212180D01*
X100810828Y-97250276D01*
X129190314Y-117074733D02*
X129228409Y-117112828D01*
X129266504Y-117227114D01*
X129266504Y-117303304D01*
X129228409Y-117417590D01*
X129152219Y-117493780D01*
X129076028Y-117531876D01*
X128923647Y-117569971D01*
X128809361Y-117569971D01*
X128656980Y-117531876D01*
X128580790Y-117493780D01*
X128504600Y-117417590D01*
X128466504Y-117303304D01*
X128466504Y-117227114D01*
X128504600Y-117112828D01*
X128542695Y-117074733D01*
X128542695Y-116769971D02*
X128504600Y-116731876D01*
X128466504Y-116655685D01*
X128466504Y-116465209D01*
X128504600Y-116389019D01*
X128542695Y-116350923D01*
X128618885Y-116312828D01*
X128695076Y-116312828D01*
X128809361Y-116350923D01*
X129266504Y-116808066D01*
X129266504Y-116312828D01*
X120390714Y-116312733D02*
X120428809Y-116350828D01*
X120466904Y-116465114D01*
X120466904Y-116541304D01*
X120428809Y-116655590D01*
X120352619Y-116731780D01*
X120276428Y-116769876D01*
X120124047Y-116807971D01*
X120009761Y-116807971D01*
X119857380Y-116769876D01*
X119781190Y-116731780D01*
X119705000Y-116655590D01*
X119666904Y-116541304D01*
X119666904Y-116465114D01*
X119705000Y-116350828D01*
X119743095Y-116312733D01*
X119666904Y-116046066D02*
X119666904Y-115550828D01*
X119971666Y-115817495D01*
X119971666Y-115703209D01*
X120009761Y-115627019D01*
X120047857Y-115588923D01*
X120124047Y-115550828D01*
X120314523Y-115550828D01*
X120390714Y-115588923D01*
X120428809Y-115627019D01*
X120466904Y-115703209D01*
X120466904Y-115931780D01*
X120428809Y-116007971D01*
X120390714Y-116046066D01*
X125594809Y-96018314D02*
X125556714Y-96056409D01*
X125442428Y-96094504D01*
X125366238Y-96094504D01*
X125251952Y-96056409D01*
X125175761Y-95980219D01*
X125137666Y-95904028D01*
X125099571Y-95751647D01*
X125099571Y-95637361D01*
X125137666Y-95484980D01*
X125175761Y-95408790D01*
X125251952Y-95332600D01*
X125366238Y-95294504D01*
X125442428Y-95294504D01*
X125556714Y-95332600D01*
X125594809Y-95370695D01*
X125823380Y-95294504D02*
X126090047Y-96094504D01*
X126356714Y-95294504D01*
X127042428Y-96094504D02*
X126585285Y-96094504D01*
X126813857Y-96094504D02*
X126813857Y-95294504D01*
X126737666Y-95408790D01*
X126661476Y-95484980D01*
X126585285Y-95523076D01*
X112312923Y-98961504D02*
X112312923Y-98161504D01*
X112503400Y-98161504D01*
X112617685Y-98199600D01*
X112693876Y-98275790D01*
X112731971Y-98351980D01*
X112770066Y-98504361D01*
X112770066Y-98618647D01*
X112731971Y-98771028D01*
X112693876Y-98847219D01*
X112617685Y-98923409D01*
X112503400Y-98961504D01*
X112312923Y-98961504D01*
X113531971Y-98961504D02*
X113074828Y-98961504D01*
X113303400Y-98961504D02*
X113303400Y-98161504D01*
X113227209Y-98275790D01*
X113151019Y-98351980D01*
X113074828Y-98390076D01*
X89020704Y-108165667D02*
X89592133Y-108165667D01*
X89706419Y-108203762D01*
X89782609Y-108279953D01*
X89820704Y-108394239D01*
X89820704Y-108470429D01*
X89820704Y-107365667D02*
X89820704Y-107822810D01*
X89820704Y-107594239D02*
X89020704Y-107594239D01*
X89134990Y-107670429D01*
X89211180Y-107746620D01*
X89249276Y-107822810D01*
X132874095Y-107467190D02*
X132836000Y-107543380D01*
X132759809Y-107619571D01*
X132645523Y-107733857D01*
X132607428Y-107810047D01*
X132607428Y-107886238D01*
X132797904Y-107848142D02*
X132759809Y-107924333D01*
X132683619Y-108000523D01*
X132531238Y-108038619D01*
X132264571Y-108038619D01*
X132112190Y-108000523D01*
X132036000Y-107924333D01*
X131997904Y-107848142D01*
X131997904Y-107695761D01*
X132036000Y-107619571D01*
X132112190Y-107543380D01*
X132264571Y-107505285D01*
X132531238Y-107505285D01*
X132683619Y-107543380D01*
X132759809Y-107619571D01*
X132797904Y-107695761D01*
X132797904Y-107848142D01*
X132797904Y-106743380D02*
X132797904Y-107200523D01*
X132797904Y-106971952D02*
X131997904Y-106971952D01*
X132112190Y-107048142D01*
X132188380Y-107124333D01*
X132226476Y-107200523D01*
X132874095Y-100711190D02*
X132836000Y-100787380D01*
X132759809Y-100863571D01*
X132645523Y-100977857D01*
X132607428Y-101054047D01*
X132607428Y-101130238D01*
X132797904Y-101092142D02*
X132759809Y-101168333D01*
X132683619Y-101244523D01*
X132531238Y-101282619D01*
X132264571Y-101282619D01*
X132112190Y-101244523D01*
X132036000Y-101168333D01*
X131997904Y-101092142D01*
X131997904Y-100939761D01*
X132036000Y-100863571D01*
X132112190Y-100787380D01*
X132264571Y-100749285D01*
X132531238Y-100749285D01*
X132683619Y-100787380D01*
X132759809Y-100863571D01*
X132797904Y-100939761D01*
X132797904Y-101092142D01*
X132074095Y-100444523D02*
X132036000Y-100406428D01*
X131997904Y-100330238D01*
X131997904Y-100139761D01*
X132036000Y-100063571D01*
X132074095Y-100025476D01*
X132150285Y-99987380D01*
X132226476Y-99987380D01*
X132340761Y-100025476D01*
X132797904Y-100482619D01*
X132797904Y-99987380D01*
X112338266Y-103842404D02*
X112071600Y-103461452D01*
X111881123Y-103842404D02*
X111881123Y-103042404D01*
X112185885Y-103042404D01*
X112262076Y-103080500D01*
X112300171Y-103118595D01*
X112338266Y-103194785D01*
X112338266Y-103309071D01*
X112300171Y-103385261D01*
X112262076Y-103423357D01*
X112185885Y-103461452D01*
X111881123Y-103461452D01*
X113100171Y-103842404D02*
X112643028Y-103842404D01*
X112871600Y-103842404D02*
X112871600Y-103042404D01*
X112795409Y-103156690D01*
X112719219Y-103232880D01*
X112643028Y-103270976D01*
X112338266Y-108742104D02*
X112071600Y-108361152D01*
X111881123Y-108742104D02*
X111881123Y-107942104D01*
X112185885Y-107942104D01*
X112262076Y-107980200D01*
X112300171Y-108018295D01*
X112338266Y-108094485D01*
X112338266Y-108208771D01*
X112300171Y-108284961D01*
X112262076Y-108323057D01*
X112185885Y-108361152D01*
X111881123Y-108361152D01*
X112643028Y-108018295D02*
X112681123Y-107980200D01*
X112757314Y-107942104D01*
X112947790Y-107942104D01*
X113023980Y-107980200D01*
X113062076Y-108018295D01*
X113100171Y-108094485D01*
X113100171Y-108170676D01*
X113062076Y-108284961D01*
X112604933Y-108742104D01*
X113100171Y-108742104D01*
X135434904Y-117735733D02*
X135053952Y-118002400D01*
X135434904Y-118192876D02*
X134634904Y-118192876D01*
X134634904Y-117888114D01*
X134673000Y-117811923D01*
X134711095Y-117773828D01*
X134787285Y-117735733D01*
X134901571Y-117735733D01*
X134977761Y-117773828D01*
X135015857Y-117811923D01*
X135053952Y-117888114D01*
X135053952Y-118192876D01*
X134634904Y-117469066D02*
X134634904Y-116973828D01*
X134939666Y-117240495D01*
X134939666Y-117126209D01*
X134977761Y-117050019D01*
X135015857Y-117011923D01*
X135092047Y-116973828D01*
X135282523Y-116973828D01*
X135358714Y-117011923D01*
X135396809Y-117050019D01*
X135434904Y-117126209D01*
X135434904Y-117354780D01*
X135396809Y-117430971D01*
X135358714Y-117469066D01*
X112389066Y-113568304D02*
X112122400Y-113187352D01*
X111931923Y-113568304D02*
X111931923Y-112768304D01*
X112236685Y-112768304D01*
X112312876Y-112806400D01*
X112350971Y-112844495D01*
X112389066Y-112920685D01*
X112389066Y-113034971D01*
X112350971Y-113111161D01*
X112312876Y-113149257D01*
X112236685Y-113187352D01*
X111931923Y-113187352D01*
X113074780Y-113034971D02*
X113074780Y-113568304D01*
X112884304Y-112730209D02*
X112693828Y-113301638D01*
X113189066Y-113301638D01*
X112389066Y-118420904D02*
X112122400Y-118039952D01*
X111931923Y-118420904D02*
X111931923Y-117620904D01*
X112236685Y-117620904D01*
X112312876Y-117659000D01*
X112350971Y-117697095D01*
X112389066Y-117773285D01*
X112389066Y-117887571D01*
X112350971Y-117963761D01*
X112312876Y-118001857D01*
X112236685Y-118039952D01*
X111931923Y-118039952D01*
X113112876Y-117620904D02*
X112731923Y-117620904D01*
X112693828Y-118001857D01*
X112731923Y-117963761D01*
X112808114Y-117925666D01*
X112998590Y-117925666D01*
X113074780Y-117963761D01*
X113112876Y-118001857D01*
X113150971Y-118078047D01*
X113150971Y-118268523D01*
X113112876Y-118344714D01*
X113074780Y-118382809D01*
X112998590Y-118420904D01*
X112808114Y-118420904D01*
X112731923Y-118382809D01*
X112693828Y-118344714D01*
X139312266Y-97085104D02*
X139045600Y-96704152D01*
X138855123Y-97085104D02*
X138855123Y-96285104D01*
X139159885Y-96285104D01*
X139236076Y-96323200D01*
X139274171Y-96361295D01*
X139312266Y-96437485D01*
X139312266Y-96551771D01*
X139274171Y-96627961D01*
X139236076Y-96666057D01*
X139159885Y-96704152D01*
X138855123Y-96704152D01*
X139997980Y-96285104D02*
X139845600Y-96285104D01*
X139769409Y-96323200D01*
X139731314Y-96361295D01*
X139655123Y-96475580D01*
X139617028Y-96627961D01*
X139617028Y-96932723D01*
X139655123Y-97008914D01*
X139693219Y-97047009D01*
X139769409Y-97085104D01*
X139921790Y-97085104D01*
X139997980Y-97047009D01*
X140036076Y-97008914D01*
X140074171Y-96932723D01*
X140074171Y-96742247D01*
X140036076Y-96666057D01*
X139997980Y-96627961D01*
X139921790Y-96589866D01*
X139769409Y-96589866D01*
X139693219Y-96627961D01*
X139655123Y-96666057D01*
X139617028Y-96742247D01*
X100568066Y-93457904D02*
X100301400Y-93076952D01*
X100110923Y-93457904D02*
X100110923Y-92657904D01*
X100415685Y-92657904D01*
X100491876Y-92696000D01*
X100529971Y-92734095D01*
X100568066Y-92810285D01*
X100568066Y-92924571D01*
X100529971Y-93000761D01*
X100491876Y-93038857D01*
X100415685Y-93076952D01*
X100110923Y-93076952D01*
X100834733Y-92657904D02*
X101368066Y-92657904D01*
X101025209Y-93457904D01*
X129296304Y-107296333D02*
X128915352Y-107563000D01*
X129296304Y-107753476D02*
X128496304Y-107753476D01*
X128496304Y-107448714D01*
X128534400Y-107372523D01*
X128572495Y-107334428D01*
X128648685Y-107296333D01*
X128762971Y-107296333D01*
X128839161Y-107334428D01*
X128877257Y-107372523D01*
X128915352Y-107448714D01*
X128915352Y-107753476D01*
X128839161Y-106839190D02*
X128801066Y-106915380D01*
X128762971Y-106953476D01*
X128686780Y-106991571D01*
X128648685Y-106991571D01*
X128572495Y-106953476D01*
X128534400Y-106915380D01*
X128496304Y-106839190D01*
X128496304Y-106686809D01*
X128534400Y-106610619D01*
X128572495Y-106572523D01*
X128648685Y-106534428D01*
X128686780Y-106534428D01*
X128762971Y-106572523D01*
X128801066Y-106610619D01*
X128839161Y-106686809D01*
X128839161Y-106839190D01*
X128877257Y-106915380D01*
X128915352Y-106953476D01*
X128991542Y-106991571D01*
X129143923Y-106991571D01*
X129220114Y-106953476D01*
X129258209Y-106915380D01*
X129296304Y-106839190D01*
X129296304Y-106686809D01*
X129258209Y-106610619D01*
X129220114Y-106572523D01*
X129143923Y-106534428D01*
X128991542Y-106534428D01*
X128915352Y-106572523D01*
X128877257Y-106610619D01*
X128839161Y-106686809D01*
X100101476Y-109019104D02*
X100101476Y-109666723D01*
X100139571Y-109742914D01*
X100177666Y-109781009D01*
X100253857Y-109819104D01*
X100406238Y-109819104D01*
X100482428Y-109781009D01*
X100520523Y-109742914D01*
X100558619Y-109666723D01*
X100558619Y-109019104D01*
X101358619Y-109819104D02*
X100901476Y-109819104D01*
X101130047Y-109819104D02*
X101130047Y-109019104D01*
X101053857Y-109133390D01*
X100977666Y-109209580D01*
X100901476Y-109247676D01*
X122091104Y-108786619D02*
X122891104Y-108253285D01*
X122091104Y-108253285D02*
X122891104Y-108786619D01*
X122891104Y-107529476D02*
X122891104Y-107986619D01*
X122891104Y-107758047D02*
X122091104Y-107758047D01*
X122205390Y-107834238D01*
X122281580Y-107910428D01*
X122319676Y-107986619D01*
M02*
